<svg width="17" height="17" viewBox="0 0 17 17" fill="none" xmlns="http://www.w3.org/2000/svg">
<path fill-rule="evenodd" clip-rule="evenodd" d="M1.68359 8.6643C1.68359 8.30284 1.97664 8.00977 2.33811 8.00977H14.1195C14.4809 8.00977 14.774 8.30284 14.774 8.6643C14.774 9.02582 14.4809 9.31884 14.1195 9.31884H2.33811C1.97664 9.31884 1.68359 9.02582 1.68359 8.6643Z" fill="white"/>
<path fill-rule="evenodd" clip-rule="evenodd" d="M9.72954 4.27422C9.98508 4.01862 10.3996 4.01862 10.6552 4.27422L14.5823 8.20137C14.8378 8.45691 14.8378 8.87139 14.5823 9.12699L10.6552 13.0541C10.3996 13.3097 9.98508 13.3097 9.72954 13.0541C9.47394 12.7985 9.47394 12.384 9.72954 12.1285L13.1938 8.66415L9.72954 5.19986C9.47394 4.94425 9.47394 4.52983 9.72954 4.27422Z" fill="white"/>
</svg>
