<svg width="17" height="17" viewBox="0 0 17 17" xmlns="http://www.w3.org/2000/svg">
	<g id="arrow">
		<path fill-rule="evenodd" clip-rule="evenodd" d="M1.68359 8.6643C1.68359 8.30284 1.97664 8.00977 2.33811 8.00977H14.1195C14.4809 8.00977 14.774 8.30284 14.774 8.6643C14.774 9.02582 14.4809 9.31884 14.1195 9.31884H2.33811C1.97664 9.31884 1.68359 9.02582 1.68359 8.6643Z" fill="white"/>
		<path fill-rule="evenodd" clip-rule="evenodd" d="M9.72954 4.27422C9.98508 4.01862 10.3996 4.01862 10.6552 4.27422L14.5823 8.20137C14.8378 8.45691 14.8378 8.87139 14.5823 9.12699L10.6552 13.0541C10.3996 13.3097 9.98508 13.3097 9.72954 13.0541C9.47394 12.7985 9.47394 12.384 9.72954 12.1285L13.1938 8.66415L9.72954 5.19986C9.47394 4.94425 9.47394 4.52983 9.72954 4.27422Z" fill="white"/>
	</g>

	<path id="play" d="M36.5 4.5625C45.5307 4.79975 53.052 7.9243 59.0638 13.9362C65.0757 19.948 68.2002 27.4693 68.4375 36.5C68.2002 45.5307 65.0757 53.052 59.0638 59.0638C53.052 65.0757 45.5307 68.2002 36.5 68.4375C27.4693 68.2002 19.948 65.0757 13.9362 59.0638C7.9243 53.052 4.79975 45.5307 4.5625 36.5C4.79975 27.4693 7.9243 19.948 13.9362 13.9362C19.948 7.9243 27.4693 4.79975 36.5 4.5625ZM36.5 63.875C44.2471 63.6849 50.6985 61.0113 55.8541 55.8541C61.0097 50.697 63.6834 44.2456 63.875 36.5C63.6849 28.7529 61.0113 22.3015 55.8541 17.1459C50.697 11.9902 44.2456 9.31663 36.5 9.125C28.7529 9.3151 22.3015 11.9887 17.1459 17.1459C11.9902 22.303 9.31663 28.7544 9.125 36.5C9.3151 44.2471 11.9887 50.6985 17.1459 55.8541C22.303 61.0097 28.7544 63.6834 36.5 63.875ZM33.0781 46.1953L47.6918 36.5L33.0781 26.8047V46.1953ZM33.8629 21.8156L51.6133 33.6507C52.6109 34.364 53.1098 35.3145 53.1098 36.5023C53.1098 37.6901 52.6109 38.6406 51.6133 39.3538L33.8629 51.189C33.2926 51.5692 32.6987 51.7714 32.0812 51.7958C31.4638 51.8201 30.8813 51.6772 30.3338 51.3669C29.7863 51.0567 29.3468 50.6407 29.0152 50.1191C28.6837 49.5974 28.5171 49.0035 28.5156 48.3374V24.6694C28.5156 24.0033 28.6822 23.4094 29.0152 22.8878C29.3483 22.3661 29.7878 21.9502 30.3338 21.6399C30.8798 21.3297 31.4622 21.1867 32.0812 21.2111C32.7002 21.2354 33.2941 21.4377 33.8629 21.8179V21.8156Z" fill="#2157F2"/>

	<path id="edit" d="M14.3814 48.6342L28.4021 56.7279L44.5896 28.6889L30.5689 20.5951L14.3814 48.6342ZM12.6471 52.9701L15.0312 63.6654L25.5092 60.3401L12.6471 52.9701ZM32.8814 16.5483L46.9021 24.642L51.0207 17.5588L37 9.46506L32.8814 16.5483ZM7.51562 51.2358L35.2656 3.17969L57.3061 15.8984L29.5561 63.9545L11.6342 69.5924L7.51562 51.2358ZM35.2656 69.5924V64.9674H67.6406V69.5924H35.2656Z" fill="#2157F2"/>
</svg>
