<svg width="127.769165" height="88.988525" viewBox="0 0 127.769 88.9885" fill="none" xmlns="http://www.w3.org/2000/svg" xmlns:xlink="http://www.w3.org/1999/xlink">
	<desc>
			Created with Pixso.
	</desc>
	<defs/>
	<path id="Vector" d="M55.96 79.22C55.99 80.79 54.16 82.45 52.22 82.54C52.48 83.76 52.79 84.94 52.27 86.19C51.52 88.14 49.49 89.21 47.49 88.94C44.27 88.5 43.4 83.96 46.5 82.6C47.61 82.13 49.26 83.22 48.04 84.32C47.37 84.94 46.27 85.12 46.76 86.42C47.05 87.13 47.84 87.28 48.47 87.16C49.58 86.96 50.18 86.01 50.24 84.94C50.39 84.02 50.04 83.07 49.81 82.12C48.36 81.41 47.25 79.78 47.66 78.12C47.98 76.67 49.75 77.26 49.05 78.18C48.73 78.8 49.2 79.69 49.72 80.17C49.86 79.49 50.1 78.84 50.47 78.21C51.93 75.93 55.9 75.82 55.96 79.22ZM53.78 78.16C52.5 77.92 51.99 79.64 51.96 80.56C51.96 80.62 51.96 80.68 51.96 80.74C52.39 80.68 52.83 80.53 53.18 80.29C54.07 79.67 54.74 78.48 53.78 78.16Z" fill="#767676" fill-opacity="1.000000" fill-rule="nonzero"/>
	<path id="Vector" d="M59.76 78.96C59.47 79.31 58.92 80.02 58.31 80.91C58.51 80.91 58.69 80.94 58.77 80.94C59.24 80.97 58.75 82.22 58.2 82.22C57.99 82.22 57.7 82.19 57.41 82.19C56.05 84.18 54.69 86.31 54.89 86.49C55.27 86.9 57.09 84.8 57.85 83.91C58.37 83.32 59.04 84 58.49 84.62C57.18 86.01 55.24 88.74 53.67 88.45C52.51 88.27 52.04 86.93 53 85.6C53.41 85.01 54.28 83.59 55.18 82.13C55.03 82.13 54.89 82.13 54.74 82.13C54.22 82.13 54.77 80.86 55.3 80.83C55.44 80.83 55.7 80.83 55.99 80.83C56.92 79.35 57.73 78.07 57.99 77.84C58.46 77.39 59.01 77.04 59.47 77.15C59.93 77.3 60.63 77.95 59.76 78.96Z" fill="#767676" fill-opacity="1.000000" fill-rule="nonzero"/>
	<path id="Vector" d="M65.94 84.65C64.66 86.04 62.75 88.74 61.18 88.47C60.6 88.35 60.37 87.82 60.43 87.17C59.93 87.73 59.26 88.23 58.54 88.23C56.13 88.23 56.83 85.12 58.25 83.43C59.67 81.74 61.47 80.56 62.6 81.03C62.98 81.18 63.21 81.48 63.33 81.8C63.38 81.71 63.41 81.65 63.47 81.6C63.94 81.15 64.52 80.79 64.95 80.94C65.45 81.06 66.11 81.75 65.27 82.75C64.28 83.88 62.43 86.13 62.72 86.43C62.98 86.69 64.6 84.79 65.36 83.91C65.88 83.31 66.49 84.05 65.94 84.65ZM61.09 84.65C61.99 83.52 62.54 82.58 62.34 82.4C62.17 82.22 61.27 83.05 60.28 84.26C59.33 85.45 58.83 86.6 58.95 86.72C59.21 86.99 60.19 85.77 61.09 84.65Z" fill="#767676" fill-opacity="1.000000" fill-rule="nonzero"/>
	<path id="Vector" d="M71.04 78.96C70.75 79.31 70.2 80.02 69.59 80.91C69.79 80.91 69.97 80.94 70.06 80.94C70.52 80.97 70.03 82.22 69.48 82.22C69.28 82.22 68.98 82.19 68.7 82.19C67.33 84.18 65.97 86.31 66.17 86.49C66.55 86.9 68.38 84.8 69.13 83.91C69.65 83.32 70.32 84 69.77 84.62C68.46 86.01 66.52 88.74 64.95 88.45C63.79 88.27 63.33 86.93 64.29 85.6C64.69 85.01 65.56 83.59 66.46 82.13C66.31 82.13 66.17 82.13 66.03 82.13C65.5 82.13 66.05 80.86 66.58 80.83C66.73 80.83 66.99 80.83 67.27 80.83C68.2 79.35 69.01 78.07 69.28 77.84C69.74 77.39 70.29 77.04 70.76 77.15C71.21 77.3 71.91 77.95 71.04 78.96Z" fill="#767676" fill-opacity="1.000000" fill-rule="nonzero"/>
	<path id="Vector" d="M73.19 84.65C71.88 86.04 70 88.74 68.4 88.47C67.27 88.27 67.15 86.93 68.08 85.6C69.07 84.24 70.17 82.13 70.69 81.6C71.16 81.15 71.74 80.8 72.17 80.95C72.67 81.07 73.36 81.75 72.49 82.76C71.51 83.88 69.65 86.13 69.94 86.43C70.2 86.69 71.85 84.8 72.61 83.91C73.1 83.31 73.74 84.05 73.19 84.65ZM73.24 80.14C71.85 80.14 73.22 77 74.81 77.36C76.29 77.68 74.35 80.5 73.24 80.14Z" fill="#767676" fill-opacity="1.000000" fill-rule="nonzero"/>
	<path id="Vector" d="M80.15 84.65C79.71 85.09 79.25 85.68 78.76 86.25C77.66 87.47 77.31 87.91 76.23 87.7C76.06 87.67 75.95 87.61 75.83 87.52C75.13 88.03 74.44 88.29 73.85 88.29C71.88 88.29 71.24 86.25 72.43 84.2C73.62 82.13 75.56 80.79 76.96 80.79C78.44 80.79 79.57 82.04 78.41 84.38C78.03 85.12 77.6 85.77 77.13 86.34C77.33 86.25 77.68 85.98 78.03 85.59C78.58 85.03 79.16 84.35 79.54 83.9C80.06 83.31 80.7 84.05 80.15 84.65ZM76.87 82.54C76.03 82.54 73.19 86.63 74 86.63C74.61 86.63 77.71 82.54 76.87 82.54Z" fill="#767676" fill-opacity="1.000000" fill-rule="nonzero"/>
	<path id="Vector" d="M86.93 84.65C85.63 86.04 83.74 88.74 82.15 88.47C80.55 88.18 80.96 86.61 81.92 85.27C82.84 83.94 84.03 82.93 83.83 82.67C83.66 82.4 81.92 84.21 81.37 84.8C80.73 85.77 80.09 86.72 79.69 87.29C79.08 88.15 78.81 88.47 78.12 88.47C77.05 88.47 77.34 87.02 78.64 85.27C79.6 83.94 80.44 82.55 80.59 82.25C81.02 81.36 81.17 80.92 81.78 80.92C82.24 80.92 82.82 81.27 82.91 81.89C83.6 81.33 84.33 80.92 85.05 80.92C85.75 80.92 86.74 81.75 85.81 83.11C84.88 84.47 83.4 86.13 83.69 86.43C83.95 86.69 85.58 84.8 86.33 83.91C86.85 83.31 87.49 84.05 86.93 84.65Z" fill="#767676" fill-opacity="1.000000" fill-rule="nonzero"/>
	<path id="Vector" d="M12.51 41.99L13.5 43.89C14.87 46.49 13.91 49.76 11.39 51.15L9.16 52.38L13.7 60.98C13.92 61.4 13.77 61.89 13.36 62.12L11.34 63.23C10.93 63.46 10.44 63.3 10.22 62.89L0.1 43.67C-0.12 43.26 0.03 42.76 0.43 42.54L5.41 39.8C7.93 38.41 11.14 39.39 12.51 41.99ZM8.95 43.76C8.61 43.11 7.84 42.84 7.2 43.2L4.97 44.42L7.28 48.8L9.51 47.57C10.15 47.22 10.36 46.42 10.03 45.8L8.95 43.76Z" fill="#767676" fill-opacity="1.000000" fill-rule="nonzero"/>
	<path id="Vector" d="M19.16 37.72L20.85 42.42L23.57 41.4C24 41.23 24.47 41.45 24.62 41.89L25.33 43.85C25.48 44.29 25.27 44.76 24.84 44.92L22.13 45.95L24.52 52.59L28.81 50.98C29.24 50.82 29.71 51.04 29.86 51.48L30.59 53.49C30.75 53.94 30.53 54.41 30.1 54.57L22.85 57.3C22.42 57.46 21.95 57.24 21.8 56.8L14.41 36.32C14.26 35.88 14.47 35.4 14.9 35.24L22.15 32.51C22.58 32.35 23.04 32.57 23.2 33.01L23.93 35.03C24.08 35.47 23.87 35.94 23.44 36.11L19.16 37.72Z" fill="#767676" fill-opacity="1.000000" fill-rule="nonzero"/>
	<path id="Vector" d="M37.25 29.24L37.77 31.4C37.88 31.85 37.58 32.31 37.17 32.41L34.43 33.11L38.85 51.33C38.96 51.79 38.7 52.23 38.25 52.35L36.02 52.91C35.6 53.02 35.13 52.75 35.02 52.3L30.6 34.08L27.88 34.77C27.44 34.88 27 34.61 26.89 34.15L26.36 32C26.25 31.54 26.52 31.1 26.96 30.98L36.25 28.63C36.67 28.53 37.14 28.79 37.25 29.24Z" fill="#767676" fill-opacity="1.000000" fill-rule="nonzero"/>
	<path id="Vector" d="M50.68 38.95L54.38 44.12C54.58 44.43 54.7 44.82 54.75 45.19L55.21 48.51C55.27 48.98 54.99 49.39 54.54 49.45L52.26 49.78C51.81 49.84 51.37 49.53 51.3 49.07L50.98 46.74C50.93 46.38 50.82 46.02 50.6 45.64L46.22 39.55L47.59 49.63C47.66 50.09 47.35 50.51 46.89 50.58L44.62 50.9C44.19 50.96 43.75 50.65 43.69 50.19L40.74 28.57C40.68 28.1 41.02 27.68 41.44 27.62L47.07 26.82C49.93 26.41 52.57 28.48 52.97 31.4L53.26 33.5C53.57 35.76 52.46 37.88 50.68 38.95ZM47.59 30.64L45.05 31.01L45.73 35.96L48.27 35.6C48.95 35.5 49.45 34.82 49.35 34.06L49.04 31.76C48.94 31.03 48.27 30.55 47.59 30.64Z" fill="#767676" fill-opacity="1.000000" fill-rule="nonzero"/>
	<path id="Vector" d="M68.2 29.67L68.7 44.55C68.78 46.93 66.94 48.91 64.64 48.99L61.02 49.11C58.69 49.19 56.75 47.34 56.68 44.96L56.18 30.09C56.1 27.71 57.91 25.69 60.24 25.61L63.86 25.49C66.15 25.41 68.12 27.29 68.2 29.67ZM64.27 30.15C64.26 29.68 63.85 29.36 63.39 29.37L60.96 29.46C60.5 29.48 60.11 29.83 60.13 30.3L60.6 44.39C60.61 44.86 61.02 45.25 61.48 45.23L63.91 45.15C64.37 45.13 64.75 44.71 64.74 44.25L64.27 30.15Z" fill="#767676" fill-opacity="1.000000" fill-rule="nonzero"/>
	<path id="Vector" d="M76.19 26.55L75.12 45.36L79.72 45.63C80.17 45.66 80.52 46.05 80.49 46.52L80.37 48.66C80.34 49.13 79.96 49.48 79.5 49.45L71.79 48.99C71.33 48.97 70.99 48.57 71.02 48.11L72.25 26.32C72.28 25.85 72.66 25.5 73.12 25.53L75.42 25.66C75.88 25.69 76.22 26.08 76.19 26.55Z" fill="#767676" fill-opacity="1.000000" fill-rule="nonzero"/>
	<path id="Vector" d="M88.34 30.76L87.64 35.72L90.51 36.14C90.96 36.21 91.27 36.63 91.2 37.09L90.91 39.15C90.85 39.61 90.44 39.93 89.98 39.86L87.12 39.44L86.13 46.45L90.65 47.12C91.11 47.19 91.41 47.61 91.35 48.07L91.05 50.2C90.98 50.66 90.57 50.98 90.12 50.91L82.47 49.78C82.02 49.72 81.71 49.3 81.78 48.83L84.82 27.23C84.89 26.76 85.3 26.45 85.75 26.52L93.4 27.64C93.85 27.71 94.16 28.13 94.09 28.59L93.79 30.72C93.73 31.19 93.32 31.5 92.86 31.43L88.34 30.76Z" fill="#767676" fill-opacity="1.000000" fill-rule="nonzero"/>
	<path id="Vector" d="M106.95 30.76L109.18 31.34C109.62 31.46 109.88 31.94 109.76 32.4L105.32 50.17C104.76 52.44 102.43 53.85 100.21 53.27L96.7 52.35C94.47 51.77 93.1 49.4 93.67 47.13L98.11 29.36C98.22 28.9 98.67 28.6 99.11 28.72L101.34 29.3C101.79 29.42 102.04 29.9 101.93 30.36L97.59 47.73C97.47 48.19 97.77 48.65 98.21 48.76L100.57 49.38C101.02 49.49 101.49 49.23 101.6 48.78L105.95 31.4C106.05 30.95 106.5 30.65 106.95 30.76Z" fill="#767676" fill-opacity="1.000000" fill-rule="nonzero"/>
	<path id="Vector" d="M122.81 57.86L121.62 60.74C121.44 61.17 120.94 61.35 120.54 61.17L118.44 60.23C118.01 60.05 117.83 59.56 118.01 59.13L119.03 56.73C119.11 56.54 119.17 56.39 119.23 56.19L122.27 45.94L117.04 54.6C116.82 54.94 116.4 55.09 116.04 54.92L113.75 53.91C113.39 53.75 113.17 53.32 113.27 52.93L115.91 43.11L110.64 52.38C110.53 52.55 110.46 52.7 110.38 52.89L109.36 55.29C109.18 55.72 108.7 55.91 108.28 55.72L106.17 54.78C105.75 54.6 105.56 54.11 105.75 53.68L107 50.83C107.04 50.73 107.13 50.52 107.26 50.29L116.79 34.64C117.01 34.29 117.43 34.15 117.82 34.33L120.08 35.33C120.47 35.51 120.66 35.92 120.56 36.32L117.59 48L123.97 37.83C124.18 37.48 124.61 37.34 124.97 37.5L127.26 38.52C127.65 38.69 127.84 39.1 127.74 39.5L123.03 57.29C122.95 57.55 122.85 57.77 122.81 57.86Z" fill="#767676" fill-opacity="1.000000" fill-rule="nonzero"/>
	<path id="Vector" d="M66.48 56.12C66.47 56.12 66.45 56.12 66.43 56.12C66.43 56.12 66.42 56.12 66.41 56.12C66.4 56.12 66.39 56.12 66.38 56.12C66.37 56.12 66.35 56.12 66.33 56.12C43.11 56.12 22.6 62.77 10.22 72.94L16.07 75.92L16.78 82.85C18.86 80.95 21.39 79.13 24.37 77.42C35.41 71.07 50.32 67.57 66.33 67.57C66.35 67.57 66.36 67.57 66.38 67.57C66.39 67.57 66.39 67.57 66.4 67.57C66.41 67.57 66.42 67.57 66.43 67.57C66.44 67.57 66.46 67.57 66.48 67.57C82.49 67.57 97.4 71.07 108.44 77.42C111.42 79.13 113.95 80.95 116.03 82.85L116.74 75.92L122.59 72.94C110.22 62.77 89.71 56.12 66.48 56.12Z" fill="#767676" fill-opacity="1.000000" fill-rule="nonzero"/>
	<path id="Vector" d="M41.45 85.43C42.68 85.43 42.68 83.49 41.45 83.49C40.23 83.49 40.23 85.43 41.45 85.43Z" fill="#767676" fill-opacity="1.000000" fill-rule="nonzero"/>
	<path id="Vector" d="M89.98 85.43C91.2 85.43 91.2 83.49 89.98 83.49C88.75 83.49 88.75 85.43 89.98 85.43Z" fill="#767676" fill-opacity="1.000000" fill-rule="nonzero"/>
	<path id="Vector" d="M23.21 72.46C23.55 73.04 23.37 73.79 22.8 74.14C22.24 74.48 21.5 74.3 21.16 73.72C20.83 73.15 21.01 72.39 21.57 72.04C22.14 71.7 22.88 71.89 23.21 72.46Z" fill="#FFFFFF" fill-opacity="1.000000" fill-rule="nonzero"/>
	<path id="Vector" d="M29.33 70.02L29.77 70.96C30.09 71.66 29.8 72.5 29.11 72.83L27.63 73.54C27.52 73.59 27.4 73.55 27.35 73.44L24.96 68.27C24.91 68.15 24.96 68.03 25.07 67.97L26.42 67.32C27.11 66.99 27.92 67.3 28.25 68L28.48 68.52C28.6 68.78 28.64 69.05 28.6 69.32C28.92 69.44 29.18 69.68 29.33 70.02ZM26.77 69.71L27.39 69.41C27.55 69.33 27.63 69.12 27.55 68.95L27.3 68.4C27.22 68.23 27.01 68.15 26.85 68.23L26.23 68.53L26.77 69.71ZM28.38 70.42C28.3 70.24 28.09 70.17 27.93 70.25L27.19 70.6L27.95 72.26L28.69 71.9C28.85 71.82 28.93 71.61 28.84 71.43L28.38 70.42Z" fill="#FFFFFF" fill-opacity="1.000000" fill-rule="nonzero"/>
	<path id="Vector" d="M30.23 66.71L30.71 67.92L31.42 67.63C31.53 67.59 31.65 67.64 31.7 67.75L31.9 68.26C31.94 68.37 31.89 68.5 31.78 68.55L31.08 68.84L31.76 70.56L32.87 70.1C32.98 70.05 33.1 70.11 33.15 70.22L33.36 70.74C33.4 70.85 33.35 70.98 33.24 71.03L31.36 71.8C31.25 71.85 31.13 71.79 31.08 71.68L28.98 66.38C28.94 66.27 28.99 66.14 29.1 66.1L30.97 65.32C31.08 65.28 31.21 65.33 31.25 65.44L31.46 65.96C31.5 66.07 31.45 66.2 31.34 66.25L30.23 66.71Z" fill="#FFFFFF" fill-opacity="1.000000" fill-rule="nonzero"/>
	<path id="Vector" d="M34.68 65.6L34.62 65.43C34.56 65.24 34.36 65.15 34.18 65.22L33.81 65.35C33.63 65.41 33.53 65.61 33.59 65.79L33.77 66.3C33.83 66.48 34.02 66.57 34.21 66.51L34.58 66.38C35.3 66.12 36.08 66.51 36.33 67.25L36.68 68.27C36.93 69 36.55 69.81 35.84 70.06L35.46 70.2C34.75 70.45 33.96 70.06 33.71 69.33L33.48 68.65C33.44 68.53 33.5 68.41 33.61 68.37L34.18 68.16C34.29 68.12 34.41 68.18 34.45 68.3L34.7 69.02C34.76 69.2 34.96 69.3 35.14 69.24L35.51 69.1C35.69 69.04 35.78 68.84 35.72 68.65L35.35 67.57C35.29 67.39 35.1 67.3 34.92 67.36L34.54 67.5C33.83 67.75 33.04 67.37 32.79 66.64L32.63 66.17C32.38 65.44 32.76 64.63 33.48 64.37L33.85 64.24C34.58 63.98 35.36 64.37 35.61 65.11L35.65 65.25C35.69 65.37 35.63 65.49 35.52 65.53L34.95 65.73C34.84 65.78 34.72 65.72 34.68 65.6Z" fill="#FFFFFF" fill-opacity="1.000000" fill-rule="nonzero"/>
	<path id="Vector" d="M38.94 62.85L39.1 63.41C39.14 63.53 39.07 63.65 38.96 63.68L38.25 63.89L39.61 68.61C39.64 68.73 39.58 68.85 39.47 68.88L38.89 69.06C38.78 69.09 38.65 69.03 38.62 68.91L37.25 64.19L36.55 64.4C36.44 64.44 36.32 64.37 36.29 64.26L36.13 63.7C36.09 63.58 36.15 63.46 36.27 63.42L38.67 62.7C38.78 62.67 38.91 62.73 38.94 62.85Z" fill="#FFFFFF" fill-opacity="1.000000" fill-rule="nonzero"/>
	<path id="Vector" d="M45.76 66.22L46.1 66.15C46.2 66.13 46.32 66.2 46.35 66.32L46.47 66.87C46.49 66.99 46.41 67.11 46.3 67.14L44.63 67.52C43.98 67.67 43.33 67.24 43.19 66.58L42.41 62.99C42.26 62.32 42.68 61.65 43.33 61.51L44.04 61.35C44.69 61.2 45.34 61.62 45.48 62.29L46.12 65.25C46.21 65.63 46.05 66.01 45.76 66.22ZM44.47 62.51C44.45 62.39 44.32 62.31 44.21 62.34L43.58 62.48C43.47 62.51 43.39 62.64 43.41 62.76L44.19 66.36C44.22 66.47 44.34 66.55 44.46 66.52L45.3 66.33L44.47 62.51Z" fill="#FFFFFF" fill-opacity="1.000000" fill-rule="nonzero"/>
	<path id="Vector" d="M48.74 60.42L49.33 60.32C49.45 60.3 49.56 60.39 49.58 60.51L50.39 65.24C50.49 65.84 50.09 66.43 49.49 66.54L48.56 66.7C47.97 66.81 47.39 66.39 47.29 65.79L46.48 61.06C46.45 60.94 46.53 60.81 46.65 60.79L47.24 60.69C47.36 60.67 47.47 60.76 47.49 60.88L48.28 65.5C48.3 65.62 48.42 65.7 48.54 65.68L49.16 65.56C49.28 65.54 49.37 65.43 49.35 65.31L48.56 60.69C48.55 60.57 48.62 60.44 48.74 60.42Z" fill="#FFFFFF" fill-opacity="1.000000" fill-rule="nonzero"/>
	<path id="Vector" d="M54.45 64.8L54.55 65.57C54.56 65.69 54.48 65.8 54.36 65.82L53.75 65.9C53.64 65.91 53.53 65.83 53.52 65.71L53.41 64.91L52.27 65.07L52.37 65.86C52.39 65.98 52.31 66.09 52.19 66.11L51.59 66.19C51.47 66.2 51.36 66.12 51.35 66L51.25 65.23C51.25 65.2 51.24 65.17 51.24 65.12L51.36 60.2C51.36 60.09 51.44 60 51.55 59.98L52.84 59.81C52.95 59.8 53.04 59.88 53.07 59.98L54.42 64.69C54.44 64.74 54.44 64.77 54.45 64.8ZM53.17 63.94L52.32 60.93L52.26 64.06L53.17 63.94Z" fill="#FFFFFF" fill-opacity="1.000000" fill-rule="nonzero"/>
	<path id="Vector" d="M55.84 59.69L56.3 64.6L57.5 64.48C57.62 64.47 57.72 64.56 57.73 64.68L57.78 65.24C57.79 65.37 57.71 65.47 57.59 65.48L55.58 65.68C55.45 65.69 55.35 65.61 55.34 65.48L54.81 59.79C54.8 59.67 54.88 59.56 55 59.55L55.6 59.49C55.72 59.48 55.82 59.57 55.84 59.69Z" fill="#FFFFFF" fill-opacity="1.000000" fill-rule="nonzero"/>
	<path id="Vector" d="M59.4 65.35L58.8 65.39C58.68 65.4 58.58 65.31 58.57 65.19L58.18 59.49C58.17 59.37 58.26 59.26 58.38 59.25L58.98 59.2C59.1 59.2 59.2 59.29 59.21 59.42L59.6 65.11C59.61 65.23 59.52 65.34 59.4 65.35Z" fill="#FFFFFF" fill-opacity="1.000000" fill-rule="nonzero"/>
	<path id="Vector" d="M63.08 59.21L63.1 59.79C63.11 59.92 63.01 60.02 62.9 60.02L62.16 60.06L62.37 64.97C62.37 65.09 62.28 65.19 62.16 65.2L61.56 65.22C61.45 65.23 61.34 65.14 61.34 65.01L61.13 60.1L60.4 60.13C60.27 60.14 60.18 60.05 60.17 59.93L60.15 59.35C60.14 59.22 60.23 59.12 60.35 59.12L62.86 59C62.96 59 63.07 59.09 63.08 59.21Z" fill="#FFFFFF" fill-opacity="1.000000" fill-rule="nonzero"/>
	<path id="Vector" d="M66.35 58.95L66.96 58.94C67.08 58.94 67.17 59.04 67.17 59.16L67.18 60.03C67.18 60.13 67.17 60.23 67.12 60.31L66.05 62.62L66.07 64.88C66.07 65.01 65.98 65.1 65.86 65.1L65.26 65.11C65.14 65.11 65.04 65.02 65.04 64.89L65.02 62.63L63.89 60.34C63.86 60.26 63.83 60.16 63.83 60.06L63.82 59.19C63.82 59.07 63.92 58.97 64.04 58.97L64.64 58.96C64.76 58.96 64.86 59.06 64.86 59.18L64.86 59.85C64.86 59.92 64.88 59.99 64.92 60.05L65.52 61.29L66.11 60.04C66.13 59.98 66.15 59.91 66.15 59.84L66.14 59.17C66.14 59.05 66.23 58.95 66.35 58.95Z" fill="#FFFFFF" fill-opacity="1.000000" fill-rule="nonzero"/>
	<path id="Vector" d="M72.65 62.21C72.62 62.89 72.06 63.41 71.4 63.37C70.74 63.34 70.23 62.77 70.26 62.09C70.29 61.42 70.86 60.89 71.51 60.93C72.17 60.96 72.68 61.54 72.65 62.21Z" fill="#FFFFFF" fill-opacity="1.000000" fill-rule="nonzero"/>
	<path id="Vector" d="M79.06 63.42L78.95 64.45C78.87 65.22 78.2 65.79 77.45 65.71L75.82 65.53C75.7 65.52 75.61 65.41 75.63 65.29L76.21 59.61C76.22 59.48 76.33 59.4 76.45 59.41L77.94 59.57C78.69 59.65 79.24 60.35 79.16 61.12L79.1 61.68C79.07 61.97 78.97 62.23 78.79 62.43C78.99 62.71 79.1 63.05 79.06 63.42ZM78.04 63.26C78.05 63.07 77.92 62.89 77.74 62.87L76.93 62.79L76.74 64.61L77.55 64.69C77.73 64.71 77.9 64.57 77.92 64.37L78.04 63.26ZM77.02 61.8L77.7 61.87C77.88 61.89 78.05 61.75 78.07 61.56L78.13 60.96C78.15 60.77 78.02 60.6 77.84 60.58L77.16 60.51L77.02 61.8Z" fill="#FFFFFF" fill-opacity="1.000000" fill-rule="nonzero"/>
	<path id="Vector" d="M81.44 61.02L81.25 62.32L82 62.43C82.12 62.45 82.2 62.56 82.19 62.68L82.11 63.22C82.09 63.34 81.98 63.42 81.87 63.4L81.12 63.29L80.86 65.13L82.04 65.3C82.16 65.32 82.24 65.43 82.23 65.55L82.15 66.11C82.13 66.23 82.03 66.31 81.9 66.29L79.9 66C79.78 65.98 79.7 65.88 79.72 65.76L80.51 60.1C80.53 59.98 80.63 59.9 80.75 59.91L82.76 60.2C82.88 60.22 82.96 60.33 82.94 60.45L82.86 61.01C82.85 61.13 82.74 61.21 82.62 61.19L81.44 61.02Z" fill="#FFFFFF" fill-opacity="1.000000" fill-rule="nonzero"/>
	<path id="Vector" d="M85.81 62.32L85.84 62.13C85.87 61.94 85.75 61.77 85.56 61.73L85.17 61.66C84.99 61.63 84.81 61.74 84.77 61.94L84.68 62.46C84.65 62.65 84.77 62.83 84.96 62.87L85.35 62.94C86.1 63.08 86.59 63.81 86.45 64.58L86.26 65.64C86.13 66.4 85.4 66.91 84.66 66.77L84.27 66.7C83.53 66.56 83.03 65.83 83.16 65.07L83.29 64.36C83.31 64.24 83.42 64.16 83.54 64.18L84.13 64.29C84.25 64.31 84.33 64.43 84.31 64.55L84.17 65.3C84.14 65.49 84.26 65.67 84.45 65.71L84.84 65.78C85.02 65.81 85.2 65.68 85.24 65.49L85.44 64.37C85.47 64.18 85.35 64 85.16 63.97L84.77 63.9C84.03 63.75 83.53 63.03 83.66 62.27L83.75 61.77C83.88 61.01 84.61 60.5 85.35 60.64L85.74 60.71C86.49 60.85 86.98 61.59 86.84 62.35L86.82 62.49C86.8 62.61 86.69 62.69 86.57 62.67L85.98 62.56C85.86 62.55 85.79 62.44 85.81 62.32Z" fill="#FFFFFF" fill-opacity="1.000000" fill-rule="nonzero"/>
	<path id="Vector" d="M90.81 62.04L90.69 62.6C90.66 62.72 90.54 62.79 90.43 62.77L89.71 62.6L88.66 67.4C88.63 67.52 88.52 67.59 88.4 67.56L87.81 67.43C87.7 67.4 87.62 67.29 87.65 67.17L88.7 62.37L87.99 62.2C87.87 62.18 87.8 62.06 87.83 61.94L87.95 61.38C87.98 61.26 88.09 61.18 88.21 61.21L90.65 61.77C90.76 61.8 90.84 61.92 90.81 62.04Z" fill="#FFFFFF" fill-opacity="1.000000" fill-rule="nonzero"/>
	<path id="Vector" d="M96.66 64.94L96.51 65.47C96.29 66.22 95.52 66.64 94.8 66.42L94.17 66.23L93.45 68.68C93.41 68.8 93.29 68.86 93.18 68.83L92.6 68.65C92.48 68.62 92.42 68.49 92.46 68.38L94.06 62.9C94.09 62.78 94.21 62.72 94.33 62.75L95.74 63.18C96.46 63.41 96.88 64.19 96.66 64.94ZM95.69 64.59C95.74 64.4 95.64 64.21 95.46 64.16L94.83 63.96L94.47 65.21L95.1 65.4C95.28 65.46 95.47 65.35 95.52 65.17L95.69 64.59Z" fill="#FFFFFF" fill-opacity="1.000000" fill-rule="nonzero"/>
	<path id="Vector" d="M99.11 67.78L99.36 69.44C99.37 69.53 99.35 69.64 99.32 69.73L99.04 70.56C99 70.68 98.88 70.74 98.77 70.7L98.2 70.5C98.09 70.45 98.02 70.33 98.06 70.21L98.26 69.63C98.3 69.54 98.31 69.44 98.31 69.33L98 67.37L97.14 69.89C97.1 70 96.98 70.06 96.86 70.02L96.29 69.81C96.19 69.78 96.12 69.65 96.16 69.53L98.03 64.14C98.07 64.03 98.2 63.97 98.3 64.01L99.71 64.51C100.42 64.77 100.79 65.58 100.54 66.31L100.36 66.83C100.16 67.39 99.65 67.75 99.11 67.78ZM99.37 65.47L98.74 65.24L98.31 66.47L98.94 66.7C99.11 66.76 99.31 66.67 99.38 66.48L99.58 65.9C99.64 65.72 99.54 65.53 99.37 65.47Z" fill="#FFFFFF" fill-opacity="1.000000" fill-rule="nonzero"/>
	<path id="Vector" d="M100.5 71.4L99.94 71.18C99.82 71.13 99.77 71 99.82 70.89L101.89 65.59C101.93 65.47 102.06 65.41 102.17 65.46L102.73 65.69C102.85 65.73 102.89 65.87 102.85 65.98L100.78 71.29C100.73 71.4 100.61 71.45 100.5 71.4Z" fill="#FFFFFF" fill-opacity="1.000000" fill-rule="nonzero"/>
	<path id="Vector" d="M104.79 70.2L105.34 70.45C105.45 70.5 105.49 70.64 105.44 70.75L104.84 72.11C104.59 72.67 103.94 72.93 103.38 72.68L102.52 72.28C101.97 72.03 101.72 71.35 101.97 70.79L103.54 67.23C103.79 66.66 104.44 66.41 104.99 66.67L105.86 67.06C106.42 67.32 106.66 67.99 106.41 68.55L106.02 69.44C105.98 69.55 105.84 69.6 105.73 69.56L105.18 69.3C105.07 69.25 105.03 69.11 105.08 69L105.43 68.21C105.48 68.1 105.43 67.97 105.33 67.92L104.74 67.65C104.63 67.6 104.5 67.64 104.45 67.75L102.96 71.12C102.91 71.23 102.97 71.36 103.08 71.42L103.67 71.69C103.77 71.73 103.9 71.69 103.95 71.58L104.51 70.32C104.55 70.2 104.68 70.15 104.79 70.2Z" fill="#FFFFFF" fill-opacity="1.000000" fill-rule="nonzero"/>
	<path id="Vector" d="M108.42 69.46L107.83 70.62L108.5 70.98C108.6 71.03 108.65 71.16 108.59 71.27L108.34 71.76C108.29 71.86 108.16 71.91 108.05 71.85L107.38 71.49L106.54 73.14L107.6 73.7C107.71 73.76 107.75 73.89 107.69 74L107.44 74.49C107.38 74.6 107.25 74.64 107.15 74.59L105.35 73.63C105.25 73.57 105.21 73.44 105.26 73.34L107.85 68.27C107.91 68.16 108.04 68.12 108.14 68.17L109.94 69.13C110.04 69.19 110.08 69.32 110.03 69.43L109.77 69.92C109.72 70.03 109.59 70.07 109.48 70.02L108.42 69.46Z" fill="#FFFFFF" fill-opacity="1.000000" fill-rule="nonzero"/>
	<path id="Vector" d="M111.62 73.69C111.27 74.27 110.54 74.47 109.97 74.12C109.41 73.77 109.22 73.02 109.56 72.44C109.9 71.87 110.64 71.68 111.2 72.02C111.77 72.37 111.95 73.12 111.62 73.69Z" fill="#FFFFFF" fill-opacity="1.000000" fill-rule="nonzero"/>
	<path id="Vector" d="M69.05 12.73C69.05 16.15 66.33 18.93 62.97 18.93C59.62 18.93 56.9 16.15 56.9 12.73C56.9 9.3 62.97 0 62.97 0C62.97 0 69.05 9.3 69.05 12.73Z" fill="#767676" fill-opacity="1.000000" fill-rule="nonzero"/>
	<path id="Vector" d="M50.17 21.22C47.83 21.22 45.92 19.27 45.92 16.87C45.92 14.68 49.31 9.43 49.7 8.84L50.17 8.11L50.65 8.84C51.04 9.43 54.43 14.68 54.43 16.87C54.42 19.27 52.51 21.22 50.17 21.22ZM50.17 10.23C49 12.11 47.06 15.52 47.06 16.87C47.06 18.62 48.45 20.05 50.17 20.05C51.88 20.05 53.28 18.63 53.28 16.87C53.28 15.52 51.34 12.11 50.17 10.23Z" fill="#767676" fill-opacity="1.000000" fill-rule="nonzero"/>
	<path id="Vector" d="M77.14 20.46C74.79 20.46 72.88 18.51 72.88 16.12C72.88 13.93 76.28 8.67 76.66 8.08L77.14 7.36L77.62 8.08C78 8.67 81.4 13.93 81.4 16.12C81.39 18.51 79.48 20.46 77.14 20.46ZM77.14 9.47C75.97 11.36 74.02 14.77 74.02 16.12C74.02 17.87 75.42 19.3 77.14 19.3C78.85 19.3 80.25 17.87 80.25 16.12C80.25 14.77 78.3 11.36 77.14 9.47Z" fill="#767676" fill-opacity="1.000000" fill-rule="nonzero"/>
</svg>
