<svg width="133.250122" height="84.677002" viewBox="0 0 133.25 84.677" fill="none" xmlns="http://www.w3.org/2000/svg" xmlns:xlink="http://www.w3.org/1999/xlink">
	<desc>
			Created with Pixso.
	</desc>
	<defs/>
	<path id="Vector" d="M25.12 28.92C25.14 29.63 25.06 30.37 24.87 31.12C24.69 31.88 24.43 32.62 24.1 33.32C23.68 34.22 23.18 35.03 22.58 35.75C21.98 36.47 21.34 37.09 20.65 37.61C20.01 38.08 19.34 38.44 18.63 38.68C17.93 38.92 17.25 39.04 16.59 39.04L16.48 39.04C15.66 39.03 14.92 38.83 14.26 38.47C13.6 38.11 13.06 37.58 12.62 36.88C12.32 37.39 12.07 37.84 11.85 38.24C11.63 38.65 11.44 38.96 11.3 39.18C9.94 41.44 8.67 43.13 7.46 44.25C6.76 44.87 6.07 45.33 5.37 45.64C4.68 45.95 3.96 46.1 3.21 46.1C2.12 46.1 1.31 45.81 0.76 45.24C0.25 44.68 0 43.96 0 43.08C0 42.31 0.17 41.49 0.53 40.62C0.89 39.76 1.38 38.93 2 38.14C2.67 37.29 3.4 36.62 4.19 36.15C4.98 35.69 5.75 35.45 6.52 35.45C7.16 35.45 7.68 35.64 8.08 36.01C8.43 36.35 8.61 36.81 8.61 37.39C8.61 37.87 8.48 38.39 8.24 38.93C7.99 39.47 7.66 39.97 7.23 40.44C6.79 40.93 6.31 41.31 5.78 41.59C5.16 41.9 4.56 42.06 3.97 42.06C3.82 42.06 3.71 42.02 3.61 41.92C3.52 41.83 3.48 41.71 3.48 41.56C3.48 41.41 3.52 41.29 3.61 41.21C3.71 41.13 3.82 41.08 3.97 41.08C4.41 41.08 4.85 40.97 5.3 40.75C5.75 40.52 6.16 40.2 6.55 39.77C6.88 39.4 7.14 38.99 7.34 38.57C7.54 38.14 7.64 37.75 7.64 37.39C7.64 37.3 7.63 37.19 7.62 37.08C7.6 36.97 7.55 36.87 7.46 36.77C7.38 36.68 7.27 36.6 7.12 36.54C6.98 36.47 6.77 36.44 6.52 36.44C5.9 36.44 5.26 36.64 4.6 37.04C3.94 37.44 3.32 38.02 2.73 38.76C2.19 39.46 1.75 40.18 1.43 40.95C1.11 41.71 0.95 42.43 0.95 43.08C0.95 43.72 1.12 44.2 1.44 44.54C1.79 44.93 2.38 45.13 3.2 45.13C4.42 45.13 5.62 44.58 6.79 43.5C7.94 42.45 9.17 40.85 10.47 38.68C10.61 38.44 10.81 38.11 11.05 37.68C11.3 37.27 11.58 36.78 11.88 36.24C12.18 35.7 12.49 35.12 12.81 34.49C13.13 33.86 13.43 33.22 13.73 32.57C14.17 31.62 14.51 30.79 14.76 30.09C15 29.39 15.18 28.79 15.28 28.28C15.38 27.78 15.42 27.37 15.41 27.05C15.4 26.73 15.37 26.48 15.32 26.29C15.21 25.96 15.01 25.73 14.71 25.62C14.29 25.45 13.88 25.4 13.47 25.44C13.06 25.49 12.66 25.6 12.29 25.78C11.91 25.95 11.57 26.19 11.25 26.49C10.93 26.79 10.65 27.11 10.41 27.44C10.03 28.04 9.79 28.62 9.7 29.18C9.66 29.37 9.66 29.57 9.68 29.8C9.71 30.02 9.8 30.24 9.97 30.44C10.34 30.89 10.78 30.92 11.31 30.55C11.7 30.31 11.99 29.96 12.19 29.51C12.39 29.12 12.43 28.79 12.3 28.53C12.17 28.24 12.25 28.02 12.55 27.89C12.66 27.83 12.77 27.82 12.9 27.86C13.03 27.9 13.12 27.98 13.18 28.11C13.31 28.38 13.36 28.66 13.33 28.97C13.3 29.28 13.22 29.58 13.08 29.88C12.95 30.18 12.77 30.46 12.56 30.73C12.35 31 12.12 31.22 11.86 31.39C11.46 31.65 11.02 31.78 10.54 31.78C10.07 31.76 9.63 31.53 9.23 31.08C8.79 30.54 8.62 29.86 8.73 29.04C8.84 28.31 9.13 27.59 9.61 26.88C9.9 26.47 10.25 26.08 10.65 25.72C11.05 25.35 11.49 25.06 11.97 24.85C12.44 24.63 12.94 24.5 13.46 24.46C13.98 24.41 14.51 24.49 15.04 24.7C15.59 24.92 15.98 25.34 16.22 25.96C16.31 26.27 16.36 26.63 16.37 27.04C16.38 27.44 16.33 27.89 16.22 28.39C16.71 27.85 17.21 27.38 17.7 26.99C18.38 26.42 19.05 25.96 19.73 25.62C20.4 25.28 21.03 25.07 21.62 24.98C22.66 24.83 23.47 25.07 24.06 25.71C24.77 26.41 25.12 27.48 25.12 28.92ZM23.23 32.9C23.88 31.58 24.2 30.26 24.16 28.95C24.16 28.37 24.09 27.87 23.97 27.43C23.84 26.99 23.64 26.65 23.39 26.4C23.04 25.99 22.5 25.84 21.77 25.95C21.28 26.03 20.73 26.22 20.13 26.53C19.52 26.83 18.92 27.24 18.31 27.74C17.69 28.25 17.13 28.8 16.63 29.41C16.12 30.02 15.7 30.64 15.35 31.28C15.35 31.29 15.35 31.3 15.34 31.3C15.33 31.3 15.32 31.31 15.32 31.33C15.22 31.59 15.1 31.86 15 32.13C14.89 32.4 14.76 32.69 14.61 32.99C14.14 34.01 13.65 34.97 13.16 35.87C13.49 36.58 13.94 37.12 14.52 37.48C15.09 37.85 15.76 38.04 16.51 38.06C17.09 38.07 17.69 37.98 18.3 37.76C18.92 37.55 19.52 37.23 20.1 36.8C20.74 36.33 21.33 35.77 21.86 35.12C22.38 34.46 22.84 33.73 23.23 32.9Z" fill="#767676" fill-opacity="1.000000" fill-rule="nonzero"/>
	<path id="Vector" d="M30.88 40.69C30.97 40.78 31.02 40.89 31.03 41.03C31.04 41.16 31 41.27 30.91 41.36C30.89 41.4 30.69 41.62 30.31 42.03C29.92 42.44 29.41 42.9 28.77 43.41C26.99 44.77 25.39 45.45 23.94 45.45C23.17 45.45 22.6 45.31 22.2 45.03C21.81 44.75 21.52 44.46 21.34 44.16C20.99 43.55 20.89 42.78 21.04 41.85C21.18 40.93 21.58 39.9 22.22 38.78C23.11 37.16 24.08 35.83 25.14 34.81C26.19 33.78 27.18 33.18 28.11 33.01C28.83 32.9 29.42 33.04 29.9 33.44C30.26 33.75 30.46 34.18 30.5 34.73C30.52 35.29 30.34 35.91 29.98 36.59C29.61 37.27 29.08 37.97 28.39 38.68C27.62 39.48 26.8 40.07 25.94 40.44C25.23 40.76 24.55 40.92 23.89 40.92C23.56 40.92 23.27 40.89 23.01 40.84C22.75 40.78 22.54 40.71 22.38 40.64C22.29 40.88 22.21 41.11 22.15 41.32C22.08 41.54 22.03 41.75 22 41.95C21.89 42.7 21.95 43.27 22.19 43.66C22.48 44.21 23.07 44.48 23.94 44.48C24.69 44.48 25.44 44.28 26.18 43.9C26.92 43.52 27.59 43.09 28.18 42.63C28.77 42.16 29.26 41.73 29.63 41.34C30.01 40.95 30.19 40.74 30.19 40.72C30.29 40.63 30.39 40.58 30.52 40.57C30.65 40.56 30.77 40.6 30.88 40.69ZM23.04 39.26C23 39.35 22.95 39.44 22.9 39.51C22.85 39.59 22.8 39.67 22.76 39.77C22.91 39.8 23.08 39.84 23.27 39.88C23.46 39.92 23.69 39.93 23.94 39.93C25.2 39.92 26.46 39.27 27.73 38C28.31 37.4 28.76 36.82 29.08 36.25C29.4 35.68 29.55 35.19 29.54 34.78C29.5 34.54 29.42 34.34 29.29 34.19C29.03 33.96 28.69 33.9 28.27 33.99C27.91 34.05 27.52 34.21 27.1 34.48C26.68 34.75 26.25 35.11 25.81 35.54C24.82 36.51 23.9 37.75 23.04 39.26Z" fill="#767676" fill-opacity="1.000000" fill-rule="nonzero"/>
	<path id="Vector" d="M37.51 33.57C37.83 33.61 37.98 33.79 37.98 34.11C37.96 34.26 37.9 34.37 37.8 34.46C37.7 34.54 37.59 34.57 37.46 34.55C37.06 34.51 36.58 34.5 36.03 34.5C35.49 34.5 34.94 34.51 34.39 34.53C33.99 35.2 33.6 35.87 33.22 36.56C32.85 37.24 32.53 37.86 32.25 38.42C31.72 39.47 31.33 40.34 31.09 41.04C30.84 41.74 30.67 42.31 30.58 42.73C30.49 43.16 30.46 43.49 30.5 43.71C30.54 43.94 30.58 44.09 30.64 44.16C30.65 44.2 30.7 44.25 30.77 44.32C30.85 44.38 31 44.42 31.24 44.42C31.55 44.42 31.93 44.31 32.38 44.09C32.82 43.88 33.32 43.58 33.84 43.18C34.28 42.85 34.72 42.47 35.17 42.05C35.62 41.63 36.01 41.21 36.34 40.8C36.43 40.71 36.54 40.66 36.67 40.63C36.8 40.62 36.91 40.65 37.02 40.75C37.11 40.84 37.17 40.95 37.19 41.08C37.21 41.21 37.17 41.33 37.08 41.44C36.72 41.87 36.3 42.31 35.83 42.75C35.37 43.19 34.89 43.59 34.4 43.97C33.15 44.92 32.1 45.4 31.24 45.4C30.82 45.4 30.5 45.32 30.28 45.16C30.06 45 29.91 44.83 29.82 44.67C29.47 44.1 29.46 43.21 29.79 41.97C30.06 40.93 30.6 39.59 31.41 37.97C31.67 37.46 31.95 36.92 32.26 36.33C32.57 35.74 32.91 35.14 33.27 34.52C33.02 34.54 32.78 34.55 32.57 34.56C32.36 34.57 32.18 34.58 32.04 34.58C31.86 34.59 31.69 34.6 31.54 34.6L31.52 34.6C31.23 34.6 31.06 34.45 31.02 34.13C31.02 33.98 31.06 33.86 31.14 33.76C31.23 33.67 31.34 33.62 31.49 33.62C31.52 33.62 31.76 33.61 32.21 33.59C32.66 33.58 33.21 33.56 33.85 33.54C34.18 32.98 34.49 32.45 34.79 31.94C35.09 31.44 35.36 30.99 35.59 30.59C35.81 30.2 36.08 29.78 36.37 29.3C36.44 29.19 36.54 29.12 36.67 29.08C36.8 29.04 36.92 29.06 37.03 29.13C37.3 29.32 37.36 29.56 37.19 29.84C36.94 30.23 36.71 30.59 36.51 30.93C36.31 31.27 36.08 31.65 35.81 32.09C35.54 32.53 35.26 33 34.97 33.51C35.45 33.51 35.91 33.51 36.36 33.51C36.8 33.52 37.19 33.54 37.51 33.57Z" fill="#767676" fill-opacity="1.000000" fill-rule="nonzero"/>
	<path id="Vector" d="M45.85 40.75C45.94 40.84 46 40.95 46.02 41.08C46.03 41.22 46 41.34 45.91 41.45C45.87 41.49 45.83 41.53 45.77 41.59C45.72 41.64 45.67 41.7 45.64 41.76C44.8 42.8 44.03 43.67 43.33 44.36C42.64 45.05 42 45.4 41.41 45.4C40.9 45.4 40.53 45.19 40.29 44.78C40.05 44.33 40.05 43.68 40.29 42.82C40.53 41.98 41.04 40.86 41.83 39.46C41.97 39.2 41.98 38.77 41.85 38.19C41.73 37.6 41.47 36.9 41.09 36.1C40.59 36.81 40.02 37.6 39.37 38.48C38.72 39.36 37.97 40.34 37.11 41.42C37.02 41.53 36.91 41.6 36.78 41.62C36.65 41.63 36.54 41.6 36.45 41.51C36.34 41.41 36.28 41.3 36.26 41.17C36.24 41.04 36.28 40.92 36.37 40.81C38.2 38.47 39.6 36.59 40.56 35.15C40.4 34.8 40.35 34.37 40.43 33.87C40.5 33.38 40.58 32.98 40.68 32.66C40.71 32.56 40.76 32.42 40.83 32.22C40.89 32.02 40.98 31.82 41.09 31.59C41.2 31.37 41.32 31.14 41.46 30.92C41.6 30.7 41.76 30.51 41.94 30.36C42.14 30.19 42.35 30.1 42.57 30.09C42.79 30.08 42.99 30.16 43.17 30.33C43.55 30.67 43.64 31.22 43.42 31.99C43.22 32.58 42.84 33.34 42.29 34.26C42.2 34.4 42.11 34.56 42.01 34.72C41.9 34.88 41.8 35.04 41.69 35.21C42.88 37.43 43.2 39.02 42.65 39.97C42.18 40.81 41.82 41.51 41.59 42.05C41.36 42.59 41.21 43.02 41.14 43.35C41.06 43.68 41.04 43.91 41.06 44.05C41.08 44.19 41.1 44.28 41.11 44.32C41.13 44.33 41.16 44.36 41.19 44.38C41.23 44.41 41.3 44.43 41.41 44.43C41.51 44.43 41.67 44.36 41.91 44.24C42.15 44.12 42.48 43.84 42.92 43.39C43.27 43.07 43.61 42.71 43.94 42.31C44.27 41.91 44.59 41.52 44.9 41.15C44.94 41.09 44.98 41.04 45.03 40.98C45.09 40.92 45.14 40.87 45.17 40.81C45.26 40.71 45.37 40.66 45.5 40.64C45.62 40.62 45.74 40.66 45.85 40.75ZM41.41 33.85C41.42 33.82 41.44 33.8 41.45 33.78C41.46 33.77 41.47 33.75 41.49 33.72C41.78 33.23 42 32.83 42.15 32.51C42.29 32.19 42.4 31.93 42.47 31.73C42.55 31.52 42.58 31.37 42.58 31.28C42.58 31.18 42.57 31.12 42.55 31.08C42.48 31.13 42.38 31.26 42.24 31.44C42.1 31.63 41.96 31.91 41.81 32.28C41.71 32.56 41.62 32.84 41.55 33.11C41.5 33.38 41.44 33.63 41.41 33.85Z" fill="#767676" fill-opacity="1.000000" fill-rule="nonzero"/>
	<path id="Vector" d="M53.2 40.89C52.96 41.32 52.66 41.79 52.3 42.32C51.93 42.84 51.51 43.34 51.03 43.81C50.56 44.29 50.03 44.69 49.46 45C48.88 45.32 48.26 45.48 47.6 45.48C46.95 45.48 46.44 45.35 46.08 45.09C45.72 44.83 45.46 44.56 45.3 44.28C44.9 43.59 44.79 42.69 45 41.59C45.2 40.54 45.63 39.42 46.29 38.22C46.54 37.77 46.89 37.24 47.33 36.63C47.77 36.01 48.28 35.41 48.87 34.83C49.09 34.61 49.34 34.38 49.62 34.15C49.91 33.92 50.2 33.71 50.5 33.52C50.8 33.33 51.11 33.18 51.43 33.05C51.75 32.93 52.07 32.87 52.38 32.87C52.52 32.87 52.64 32.92 52.73 33.01C52.82 33.11 52.87 33.23 52.87 33.38C52.87 33.53 52.82 33.64 52.73 33.73C52.64 33.81 52.52 33.85 52.38 33.85C52.01 33.85 51.58 34 51.09 34.29C50.59 34.58 50.08 34.99 49.55 35.53C49 36.08 48.52 36.64 48.1 37.21C47.68 37.79 47.35 38.29 47.11 38.7C46.5 39.78 46.12 40.8 45.96 41.75C45.79 42.59 45.85 43.26 46.15 43.77C46.39 44.26 46.87 44.5 47.6 44.5C47.98 44.5 48.35 44.42 48.7 44.26C49.05 44.1 49.38 43.9 49.7 43.66C50.02 43.42 50.32 43.15 50.59 42.85C50.87 42.55 51.11 42.26 51.33 41.98C51.48 41.79 51.61 41.61 51.72 41.43C51.82 41.25 51.94 41.08 52.04 40.91C51.66 40.87 51.35 40.78 51.13 40.63C50.9 40.48 50.72 40.33 50.59 40.18C50.21 39.73 50.02 39.15 50.02 38.44C50.02 38.02 50.08 37.58 50.21 37.13C50.34 36.68 50.53 36.27 50.78 35.9C51.39 35 52.07 34.55 52.84 34.55C53.43 34.55 53.87 34.8 54.18 35.31C54.47 35.77 54.6 36.38 54.55 37.13C54.51 37.87 54.26 38.71 53.82 39.65C53.68 39.95 53.56 40.18 53.47 40.36C53.38 40.55 53.29 40.72 53.2 40.89ZM52.85 35.54C52.63 35.54 52.41 35.62 52.19 35.79C51.97 35.96 51.77 36.18 51.59 36.46C51.4 36.74 51.26 37.05 51.15 37.4C51.04 37.74 50.98 38.09 50.98 38.45C50.98 38.6 51 38.78 51.03 38.98C51.07 39.19 51.16 39.37 51.31 39.54C51.55 39.82 51.93 39.96 52.46 39.96L52.6 39.96C52.69 39.78 52.76 39.63 52.82 39.53C52.87 39.42 52.91 39.37 52.93 39.34C53.18 38.77 53.36 38.27 53.45 37.86C53.54 37.45 53.58 37.1 53.58 36.82C53.58 36.54 53.56 36.32 53.52 36.16C53.47 36.01 53.43 35.9 53.39 35.84C53.25 35.64 53.07 35.54 52.85 35.54Z" fill="#767676" fill-opacity="1.000000" fill-rule="nonzero"/>
	<path id="Vector" d="M56.27 46.91C55.74 46.91 55.34 46.8 55.07 46.58C54.79 46.35 54.58 46.13 54.44 45.9C54.02 45.16 53.99 44.06 54.36 42.62C54.52 41.95 54.78 41.22 55.13 40.42C55.47 39.63 55.89 38.8 56.39 37.94C56.63 37.53 56.91 37.03 57.25 36.45C57.59 35.86 57.94 35.24 58.31 34.61C58.67 33.98 59.04 33.34 59.41 32.72C59.77 32.09 60.1 31.53 60.38 31.02C60.66 30.52 60.9 30.11 61.08 29.8C61.26 29.5 61.35 29.33 61.35 29.31C61.52 29.05 61.74 28.99 62.01 29.14C62.27 29.31 62.32 29.53 62.18 29.81C62.18 29.83 62.08 30 61.9 30.3C61.72 30.61 61.48 31.01 61.2 31.51C60.92 32 60.59 32.57 60.23 33.2C59.86 33.84 59.5 34.47 59.13 35.11C58.77 35.75 58.41 36.36 58.07 36.95C57.74 37.54 57.45 38.04 57.21 38.45C56.74 39.27 56.33 40.05 56.01 40.8C55.68 41.54 55.43 42.24 55.26 42.87C54.97 44.03 54.98 44.88 55.29 45.42C55.47 45.76 55.8 45.92 56.28 45.92C56.63 45.92 56.95 45.81 57.25 45.59C57.55 45.36 57.82 45.09 58.06 44.78C58.3 44.46 58.5 44.13 58.68 43.8C58.85 43.46 58.99 43.18 59.1 42.96L59.16 42.9C59.29 42.62 59.5 42.54 59.79 42.68C59.92 42.73 60 42.82 60.04 42.96C60.07 43.09 60.06 43.21 60.01 43.32L59.98 43.4C59.85 43.67 59.68 43.99 59.46 44.38C59.24 44.77 58.98 45.16 58.68 45.53C58.38 45.9 58.02 46.23 57.62 46.5C57.21 46.78 56.77 46.91 56.27 46.91Z" fill="#767676" fill-opacity="1.000000" fill-rule="nonzero"/>
	<path id="Vector" d="M72.32 33.66C71.66 34.73 71.08 35.77 70.58 36.81C70.07 37.85 69.68 38.84 69.39 39.8C69.09 40.75 68.93 41.59 68.89 42.32C68.85 43.05 68.96 43.63 69.19 44.06C69.48 44.63 70.05 44.93 70.89 44.93C72.12 44.93 73.55 43.91 75.2 41.9C75.91 41 76.57 40.08 77.17 39.12C77.78 38.17 78.29 37.34 78.71 36.63C78.82 36.44 78.92 36.27 79.01 36.11C79.1 35.95 79.2 35.81 79.29 35.67C79.29 35.66 79.29 35.65 79.3 35.65C79.31 35.65 79.31 35.64 79.31 35.62C79.66 34.98 79.99 34.37 80.32 33.78C80.63 33.19 80.94 32.66 81.23 32.17C81.29 32.04 81.38 31.96 81.51 31.92C81.64 31.88 81.77 31.9 81.89 31.97C82 32.05 82.07 32.15 82.11 32.28C82.15 32.41 82.13 32.53 82.06 32.64C81.65 33.34 81.23 34.1 80.78 34.94C80.33 35.78 79.88 36.64 79.41 37.52C78.94 38.4 78.48 39.28 78.02 40.15C77.57 41.03 77.14 41.85 76.75 42.62C76.35 43.38 76.01 44.07 75.7 44.68C75.4 45.29 75.17 45.75 75 46.06C75.2 45.95 75.41 45.84 75.62 45.71C75.83 45.59 76.05 45.46 76.26 45.31C76.96 44.86 77.73 44.28 78.57 43.57C79.41 42.86 80.25 41.94 81.09 40.8C81.18 40.69 81.29 40.62 81.42 40.6C81.55 40.58 81.66 40.61 81.77 40.68C81.86 40.78 81.92 40.89 81.95 41.02C81.98 41.15 81.95 41.27 81.86 41.38C80.96 42.58 80.07 43.54 79.18 44.28C78.29 45.02 77.5 45.63 76.78 46.12C76.31 46.44 75.85 46.71 75.42 46.95C74.99 47.18 74.59 47.37 74.2 47.52C73.62 48.47 73.02 49.25 72.39 49.84C71.52 50.69 70.74 51.11 70.06 51.14L69.98 51.14C69.45 51.14 69.07 50.93 68.83 50.52C68.65 50.24 68.61 49.9 68.72 49.51C68.83 49.14 69.06 48.78 69.42 48.44C69.78 48.11 70.21 47.85 70.73 47.66C70.83 47.62 70.96 47.58 71.11 47.53C71.25 47.49 71.41 47.44 71.58 47.38C71.83 47.3 72.13 47.22 72.45 47.11C72.78 47.01 73.15 46.88 73.55 46.73C73.6 46.64 73.67 46.54 73.73 46.43C73.79 46.32 73.85 46.2 73.91 46.09C73.95 46.05 74.1 45.76 74.38 45.21C74.65 44.66 75 43.96 75.42 43.12C74.8 43.83 74.18 44.42 73.55 44.89C72.62 45.56 71.74 45.9 70.89 45.9C70.14 45.9 69.57 45.75 69.18 45.45C68.79 45.15 68.51 44.84 68.34 44.52C67.74 43.4 67.78 41.73 68.45 39.51C68.76 38.52 69.18 37.48 69.7 36.38C70.22 35.29 70.82 34.2 71.52 33.12C71.96 32.43 72.51 31.69 73.17 30.9C73.02 30.72 72.89 30.53 72.79 30.34C72.31 29.41 72.2 28.27 72.46 26.92C72.57 26.33 72.75 25.72 73.01 25.1C73.26 24.49 73.57 23.91 73.94 23.37C74.14 23.11 74.37 23.06 74.62 23.23C74.73 23.32 74.8 23.43 74.83 23.56C74.85 23.69 74.82 23.81 74.73 23.93C74.4 24.41 74.12 24.93 73.88 25.48C73.65 26.03 73.48 26.58 73.39 27.12C73.3 27.67 73.27 28.17 73.31 28.63C73.34 29.1 73.46 29.52 73.66 29.89C73.68 29.93 73.7 29.98 73.73 30.04C73.76 30.09 73.79 30.14 73.83 30.18C74.66 29.26 75.55 28.41 76.49 27.63C76.78 27.38 77.14 27.11 77.56 26.8C77.98 26.49 78.42 26.2 78.89 25.92C79.35 25.64 79.83 25.41 80.3 25.22C80.77 25.03 81.22 24.93 81.64 24.91C82.06 24.87 82.39 24.93 82.63 25.08C82.87 25.23 83.04 25.38 83.15 25.53C83.35 25.79 83.45 26.12 83.43 26.51C83.41 26.9 83.29 27.34 83.07 27.83C82.82 28.35 82.47 28.87 82.03 29.38C81.59 29.9 81.09 30.36 80.52 30.77C80.05 31.11 79.45 31.44 78.74 31.76C78.03 32.09 77.2 32.26 76.27 32.26C75.47 32.26 74.75 32.08 74.11 31.72C74.07 31.71 74.03 31.69 74 31.67C73.96 31.65 73.92 31.62 73.89 31.58C73.3 32.26 72.78 32.95 72.32 33.66ZM71.74 49.15C72.07 48.82 72.37 48.47 72.65 48.11C72.5 48.15 72.36 48.19 72.22 48.23C72.08 48.26 71.95 48.3 71.82 48.34C71.68 48.37 71.54 48.41 71.4 48.45C71.26 48.49 71.15 48.52 71.06 48.56C70.65 48.73 70.33 48.93 70.08 49.16C69.83 49.39 69.68 49.6 69.63 49.79C69.61 49.9 69.61 49.97 69.63 49.99C69.66 50.02 69.71 50.07 69.76 50.11C69.82 50.16 69.9 50.17 70.01 50.15C70.47 50.12 71.05 49.79 71.74 49.15ZM77.09 28.42C76.17 29.15 75.33 29.96 74.54 30.86C74.98 31.14 75.56 31.28 76.27 31.28C76.96 31.28 77.62 31.15 78.25 30.9C78.88 30.65 79.46 30.33 79.98 29.95C80.5 29.56 80.95 29.15 81.33 28.69C81.7 28.23 81.99 27.8 82.19 27.38C82.35 27.07 82.45 26.8 82.46 26.59C82.48 26.37 82.46 26.23 82.41 26.15C82.37 26.11 82.31 26.06 82.22 25.98C82.12 25.9 81.95 25.88 81.69 25.9C81.16 25.91 80.5 26.15 79.69 26.58C78.89 27.02 78.02 27.63 77.09 28.42Z" fill="#767676" fill-opacity="1.000000" fill-rule="nonzero"/>
	<path id="Vector" d="M92.89 40.75C92.98 40.84 93.03 40.95 93.05 41.08C93.07 41.22 93.03 41.34 92.94 41.45C92.91 41.49 92.87 41.53 92.82 41.59C92.77 41.64 92.73 41.7 92.67 41.76C91.83 42.8 91.06 43.67 90.37 44.36C89.67 45.05 89.03 45.4 88.45 45.4C88.03 45.4 87.71 45.32 87.5 45.16C87.29 45 87.14 44.84 87.05 44.67C86.85 44.3 86.77 43.84 86.83 43.3C85.56 44.79 84.35 45.54 83.18 45.54C82.54 45.54 82.06 45.41 81.73 45.15C81.4 44.88 81.16 44.62 81.01 44.36C80.63 43.65 80.57 42.76 80.82 41.7C80.93 41.18 81.11 40.64 81.34 40.09C81.58 39.54 81.87 38.98 82.22 38.42C83.21 36.85 84.32 35.61 85.56 34.7C86.11 34.3 86.64 34 87.16 33.79C87.67 33.57 88.13 33.46 88.55 33.46C89.03 33.46 89.4 33.55 89.67 33.72C89.93 33.89 90.13 34.06 90.25 34.25C90.45 34.51 90.58 34.82 90.64 35.17C90.78 34.95 90.9 34.75 90.99 34.58C91.08 34.41 91.18 34.27 91.27 34.13C91.34 33.99 91.42 33.85 91.51 33.74C91.59 33.63 91.69 33.56 91.82 33.53C91.94 33.5 92.06 33.53 92.17 33.6C92.28 33.68 92.35 33.78 92.39 33.91C92.43 34.04 92.4 34.16 92.31 34.27C92.31 34.29 92.07 34.68 91.6 35.44C91.12 36.19 90.53 37.2 89.81 38.45C89.34 39.29 88.95 40.03 88.66 40.68C88.37 41.32 88.16 41.88 88.02 42.36C87.88 42.84 87.8 43.22 87.79 43.52C87.77 43.82 87.8 44.04 87.89 44.16C87.91 44.2 87.95 44.25 88.02 44.32C88.08 44.39 88.22 44.42 88.44 44.42C88.53 44.42 88.7 44.35 88.94 44.23C89.17 44.11 89.52 43.83 89.98 43.38C90.31 43.06 90.64 42.7 90.97 42.3C91.3 41.9 91.62 41.51 91.93 41.14C91.98 41.08 92.03 41.03 92.08 40.97C92.12 40.91 92.17 40.86 92.2 40.8C92.29 40.7 92.4 40.65 92.53 40.63C92.66 40.62 92.78 40.66 92.89 40.75ZM86.28 42.46C86.74 41.9 87.1 41.39 87.38 40.93C87.65 40.48 87.8 40.24 87.82 40.22C87.82 40.2 87.82 40.19 87.83 40.19C87.84 40.19 87.84 40.18 87.84 40.16C88.12 39.53 88.5 38.79 89 37.95C89.09 37.78 89.18 37.61 89.28 37.44C89.38 37.27 89.48 37.12 89.57 36.96L89.57 36.91C89.59 36.82 89.61 36.68 89.65 36.5C89.69 36.33 89.71 36.14 89.72 35.94C89.73 35.75 89.72 35.55 89.69 35.36C89.67 35.16 89.6 34.99 89.49 34.84C89.29 34.57 88.97 34.45 88.55 34.45C88.3 34.45 87.96 34.53 87.54 34.68C87.12 34.84 86.66 35.1 86.17 35.47C85.67 35.83 85.15 36.3 84.6 36.87C84.05 37.44 83.52 38.14 83.01 38.96C82.37 39.98 81.95 40.96 81.75 41.9C81.58 42.78 81.62 43.44 81.86 43.89C82.08 44.34 82.51 44.56 83.17 44.56C84.09 44.56 85.12 43.86 86.28 42.46Z" fill="#767676" fill-opacity="1.000000" fill-rule="nonzero"/>
	<path id="Vector" d="M101.69 40.75C101.78 40.84 101.84 40.95 101.86 41.08C101.87 41.22 101.84 41.34 101.75 41.45C101.71 41.49 101.67 41.53 101.61 41.59C101.55 41.64 101.51 41.7 101.47 41.76C100.63 42.8 99.86 43.67 99.17 44.36C98.48 45.05 97.84 45.4 97.25 45.4C96.74 45.4 96.36 45.19 96.13 44.78C95.89 44.33 95.89 43.68 96.13 42.82C96.36 41.98 96.87 40.86 97.66 39.46C97.81 39.2 97.82 38.77 97.69 38.19C97.56 37.6 97.31 36.9 96.92 36.1C96.43 36.81 95.85 37.6 95.21 38.48C94.56 39.36 93.81 40.34 92.95 41.42C92.85 41.53 92.75 41.6 92.62 41.62C92.49 41.63 92.38 41.6 92.29 41.51C92.18 41.41 92.12 41.3 92.1 41.17C92.08 41.04 92.11 40.92 92.2 40.81C94.03 38.47 95.43 36.59 96.4 35.15C96.23 34.8 96.19 34.37 96.26 33.87C96.34 33.38 96.42 32.98 96.51 32.66C96.55 32.56 96.6 32.42 96.66 32.22C96.73 32.02 96.81 31.82 96.92 31.59C97.03 31.37 97.16 31.14 97.29 30.92C97.43 30.7 97.59 30.51 97.77 30.36C97.97 30.19 98.18 30.1 98.4 30.09C98.62 30.08 98.82 30.16 99 30.33C99.39 30.67 99.47 31.22 99.25 31.99C99.05 32.58 98.68 33.34 98.13 34.26C98.04 34.4 97.94 34.56 97.84 34.72C97.74 34.88 97.63 35.04 97.52 35.21C98.71 37.43 99.03 39.02 98.48 39.97C98.01 40.81 97.66 41.51 97.43 42.05C97.2 42.59 97.05 43.02 96.97 43.35C96.9 43.68 96.87 43.91 96.89 44.05C96.91 44.19 96.93 44.28 96.95 44.32C96.96 44.33 96.99 44.36 97.03 44.38C97.06 44.41 97.13 44.43 97.25 44.43C97.34 44.43 97.5 44.36 97.74 44.24C97.98 44.12 98.32 43.84 98.76 43.39C99.1 43.07 99.44 42.71 99.77 42.31C100.1 41.91 100.42 41.52 100.73 41.15C100.77 41.09 100.81 41.04 100.87 40.98C100.92 40.92 100.97 40.87 101.01 40.81C101.1 40.71 101.21 40.66 101.34 40.64C101.46 40.62 101.58 40.66 101.69 40.75ZM97.25 33.85C97.26 33.82 97.28 33.8 97.29 33.78C97.3 33.77 97.31 33.75 97.33 33.72C97.62 33.23 97.84 32.83 97.98 32.51C98.13 32.19 98.24 31.93 98.31 31.73C98.39 31.52 98.42 31.37 98.42 31.28C98.42 31.18 98.41 31.12 98.39 31.08C98.32 31.13 98.22 31.26 98.08 31.44C97.94 31.63 97.8 31.91 97.65 32.28C97.54 32.56 97.46 32.84 97.39 33.11C97.33 33.38 97.28 33.63 97.25 33.85Z" fill="#767676" fill-opacity="1.000000" fill-rule="nonzero"/>
	<path id="Vector" d="M112.8 40.75C112.89 40.84 112.94 40.95 112.96 41.08C112.98 41.22 112.94 41.34 112.85 41.45C112.82 41.49 112.78 41.53 112.73 41.59C112.69 41.64 112.64 41.7 112.58 41.76C111.74 42.8 110.97 43.67 110.28 44.36C109.58 45.05 108.94 45.4 108.36 45.4C107.94 45.4 107.62 45.32 107.41 45.16C107.2 45 107.05 44.84 106.96 44.67C106.76 44.3 106.68 43.84 106.74 43.3C105.47 44.79 104.26 45.54 103.09 45.54C102.45 45.54 101.97 45.41 101.64 45.15C101.31 44.88 101.07 44.62 100.92 44.36C100.54 43.65 100.48 42.76 100.73 41.7C100.84 41.18 101.02 40.64 101.25 40.09C101.49 39.54 101.78 38.98 102.13 38.42C103.12 36.85 104.23 35.61 105.47 34.7C106.02 34.3 106.56 34 107.07 33.79C107.58 33.57 108.05 33.46 108.46 33.46C108.94 33.46 109.31 33.55 109.58 33.72C109.84 33.89 110.04 34.06 110.16 34.25C110.36 34.51 110.49 34.82 110.55 35.17C110.69 34.95 110.81 34.75 110.9 34.58C110.99 34.41 111.09 34.27 111.18 34.13C111.25 33.99 111.33 33.85 111.42 33.74C111.5 33.63 111.6 33.56 111.73 33.53C111.85 33.5 111.97 33.53 112.08 33.6C112.19 33.68 112.26 33.78 112.3 33.91C112.34 34.04 112.31 34.16 112.22 34.27C112.22 34.29 111.98 34.68 111.51 35.44C111.03 36.19 110.44 37.2 109.72 38.45C109.25 39.29 108.86 40.03 108.57 40.68C108.28 41.32 108.07 41.88 107.93 42.36C107.79 42.84 107.71 43.22 107.7 43.52C107.68 43.82 107.71 44.04 107.8 44.16C107.82 44.2 107.86 44.25 107.93 44.32C107.99 44.39 108.13 44.42 108.35 44.42C108.44 44.42 108.61 44.35 108.85 44.23C109.08 44.11 109.43 43.83 109.89 43.38C110.22 43.06 110.55 42.7 110.88 42.3C111.21 41.9 111.53 41.51 111.84 41.14C111.89 41.08 111.94 41.03 111.99 40.97C112.03 40.91 112.08 40.86 112.11 40.8C112.2 40.7 112.31 40.65 112.44 40.63C112.57 40.62 112.69 40.66 112.8 40.75ZM106.19 42.46C106.64 41.9 107.01 41.39 107.28 40.93C107.56 40.48 107.7 40.24 107.72 40.22C107.72 40.2 107.73 40.19 107.74 40.19C107.75 40.19 107.75 40.18 107.75 40.16C108.02 39.53 108.41 38.79 108.9 37.95C108.99 37.78 109.09 37.61 109.19 37.44C109.29 37.27 109.39 37.12 109.48 36.96L109.48 36.91C109.49 36.82 109.52 36.68 109.56 36.5C109.6 36.33 109.62 36.14 109.63 35.94C109.64 35.75 109.63 35.55 109.6 35.36C109.57 35.16 109.5 34.99 109.39 34.84C109.19 34.57 108.88 34.45 108.46 34.45C108.2 34.45 107.87 34.53 107.45 34.68C107.03 34.84 106.57 35.1 106.07 35.47C105.58 35.83 105.06 36.3 104.51 36.87C103.96 37.44 103.43 38.14 102.92 38.96C102.28 39.98 101.86 40.96 101.66 41.9C101.49 42.78 101.53 43.44 101.76 43.89C101.98 44.34 102.42 44.56 103.08 44.56C104 44.56 105.03 43.86 106.19 42.46Z" fill="#767676" fill-opacity="1.000000" fill-rule="nonzero"/>
	<path id="Vector" d="M124.15 40.75C124.26 40.84 124.32 40.95 124.34 41.08C124.36 41.22 124.32 41.34 124.23 41.45C124.2 41.49 124.17 41.52 124.14 41.56C124.11 41.6 124.08 41.63 124.04 41.67C123.86 41.89 123.63 42.17 123.34 42.51C123.06 42.85 122.73 43.19 122.35 43.56C121.98 43.92 121.57 44.28 121.14 44.64C120.69 45 120.22 45.29 119.71 45.54C119.36 45.71 119.01 45.86 118.64 45.99C118.27 46.12 117.91 46.25 117.54 46.38C117.05 47.27 116.51 48.05 115.92 48.7C115.08 49.64 114.29 50.15 113.56 50.24C113.53 50.24 113.49 50.25 113.46 50.26C113.42 50.27 113.38 50.27 113.35 50.27C112.87 50.27 112.5 50.08 112.22 49.71C112 49.47 111.94 49.12 112.03 48.67C112.12 48.26 112.34 47.87 112.69 47.51C113.04 47.15 113.47 46.83 114 46.57C114.35 46.42 114.72 46.28 115.13 46.15C115.53 46.02 115.94 45.88 116.36 45.73C116.45 45.69 116.54 45.66 116.62 45.65C116.7 45.63 116.79 45.6 116.88 45.56C116.96 45.42 117.02 45.27 117.09 45.11C117.15 44.97 117.22 44.82 117.3 44.67C117.31 44.63 117.36 44.51 117.43 44.32C117.51 44.12 117.61 43.85 117.76 43.52C116.44 44.86 115.25 45.53 114.19 45.53C113.55 45.53 113.07 45.4 112.74 45.14C112.41 44.88 112.18 44.62 112.03 44.36C111.64 43.65 111.58 42.76 111.83 41.7C111.94 41.17 112.12 40.64 112.35 40.08C112.59 39.53 112.89 38.98 113.23 38.42C114.22 36.85 115.33 35.6 116.58 34.69C117.13 34.3 117.65 34 118.17 33.78C118.68 33.57 119.15 33.46 119.57 33.46C120.04 33.46 120.41 33.54 120.68 33.71C120.94 33.88 121.14 34.06 121.27 34.24C121.38 34.38 121.48 34.55 121.57 34.78C121.66 34.57 121.75 34.38 121.84 34.19C121.93 34 122.03 33.81 122.12 33.6C122.26 33.32 122.48 33.25 122.77 33.38C122.88 33.43 122.96 33.53 123.01 33.66C123.05 33.79 123.05 33.91 122.99 34.02C122.74 34.56 122.49 35.1 122.24 35.63C121.99 36.16 121.74 36.7 121.48 37.24L121.46 37.3C121 38.33 120.57 39.3 120.17 40.23C119.76 41.15 119.42 41.97 119.12 42.69C118.83 43.41 118.6 43.98 118.42 44.4C118.25 44.82 118.16 45.04 118.16 45.06C118.16 45.1 118.15 45.11 118.13 45.11C118.33 45.04 118.53 44.97 118.71 44.89C118.89 44.81 119.08 44.73 119.26 44.64C119.72 44.41 120.15 44.14 120.56 43.82C120.97 43.51 121.35 43.17 121.7 42.83C122.05 42.48 122.35 42.15 122.62 41.84C122.88 41.52 123.11 41.25 123.29 41.02C123.33 40.98 123.36 40.95 123.38 40.91C123.41 40.87 123.44 40.84 123.48 40.8C123.57 40.71 123.68 40.65 123.81 40.63C123.95 40.62 124.06 40.66 124.15 40.75ZM117.48 42.4C117.94 41.88 118.32 41.4 118.64 40.96C118.95 40.52 119.12 40.25 119.16 40.16C119.38 39.65 119.61 39.13 119.86 38.57C120.11 38.02 120.36 37.46 120.61 36.88C120.63 36.77 120.66 36.62 120.69 36.46C120.73 36.29 120.75 36.11 120.75 35.91C120.75 35.72 120.74 35.52 120.71 35.32C120.68 35.13 120.61 34.96 120.5 34.83C120.3 34.57 119.99 34.44 119.57 34.44C119.31 34.44 118.97 34.52 118.55 34.68C118.13 34.84 117.68 35.1 117.18 35.47C116.69 35.83 116.17 36.3 115.62 36.87C115.07 37.44 114.54 38.13 114.03 38.95C113.39 39.98 112.97 40.96 112.76 41.89C112.6 42.77 112.64 43.43 112.87 43.88C113.09 44.33 113.53 44.55 114.19 44.55C114.65 44.55 115.15 44.37 115.7 44.01C116.25 43.65 116.84 43.11 117.48 42.4ZM115.21 48.03C115.38 47.86 115.53 47.67 115.69 47.47C115.85 47.27 115.99 47.05 116.14 46.83C115.49 47.03 114.91 47.25 114.42 47.47C113.98 47.67 113.63 47.91 113.39 48.19C113.14 48.46 113 48.7 112.96 48.9C112.94 49.01 112.94 49.08 112.96 49.1C113 49.16 113.05 49.21 113.13 49.26C113.2 49.3 113.31 49.31 113.46 49.27C113.97 49.21 114.55 48.8 115.21 48.03Z" fill="#767676" fill-opacity="1.000000" fill-rule="nonzero"/>
	<path id="Vector" d="M133.09 40.69C133.18 40.78 133.23 40.89 133.24 41.03C133.25 41.16 133.21 41.27 133.12 41.36C133.11 41.4 132.9 41.62 132.52 42.03C132.14 42.44 131.62 42.9 130.98 43.41C129.21 44.77 127.6 45.45 126.16 45.45C125.39 45.45 124.81 45.31 124.42 45.03C124.02 44.75 123.74 44.46 123.55 44.16C123.2 43.55 123.11 42.78 123.25 41.85C123.4 40.93 123.79 39.9 124.43 38.78C125.32 37.16 126.3 35.83 127.35 34.81C128.4 33.78 129.39 33.18 130.33 33.01C131.04 32.9 131.64 33.04 132.11 33.44C132.48 33.75 132.67 34.18 132.71 34.73C132.73 35.29 132.56 35.91 132.19 36.59C131.83 37.27 131.29 37.97 130.6 38.68C129.83 39.48 129.02 40.07 128.16 40.44C127.44 40.76 126.76 40.92 126.1 40.92C125.77 40.92 125.48 40.89 125.23 40.84C124.97 40.78 124.76 40.71 124.6 40.64C124.5 40.88 124.43 41.11 124.36 41.32C124.3 41.54 124.25 41.75 124.21 41.95C124.1 42.7 124.16 43.27 124.4 43.66C124.69 44.21 125.28 44.48 126.16 44.48C126.91 44.48 127.65 44.28 128.39 43.9C129.13 43.52 129.8 43.09 130.39 42.63C130.99 42.16 131.47 41.73 131.85 41.34C132.22 40.95 132.41 40.74 132.41 40.72C132.5 40.63 132.61 40.58 132.74 40.57C132.86 40.56 132.98 40.6 133.09 40.69ZM125.25 39.26C125.21 39.35 125.16 39.44 125.11 39.51C125.06 39.59 125.01 39.67 124.97 39.77C125.12 39.8 125.29 39.84 125.48 39.88C125.67 39.92 125.9 39.93 126.15 39.93C127.41 39.92 128.67 39.27 129.94 38C130.52 37.4 130.97 36.82 131.29 36.25C131.61 35.68 131.76 35.19 131.75 34.78C131.71 34.54 131.63 34.34 131.5 34.19C131.24 33.96 130.9 33.9 130.48 33.99C130.12 34.05 129.73 34.21 129.31 34.48C128.89 34.75 128.46 35.11 128.02 35.54C127.03 36.51 126.11 37.75 125.25 39.26Z" fill="#767676" fill-opacity="1.000000" fill-rule="nonzero"/>
	<path id="Vector" d="M43.19 65.21C43.12 65.21 43.06 65.18 43.02 65.13C42.96 65.04 42.97 64.9 43.06 64.83C44.4 63.81 45.79 62.68 47.32 61.36C47.41 61.29 47.54 61.3 47.61 61.39C47.68 61.48 47.67 61.61 47.58 61.69C46.04 63 44.65 64.14 43.31 65.17C43.27 65.2 43.23 65.21 43.19 65.21Z" fill="#767676" fill-opacity="1.000000" fill-rule="nonzero"/>
	<path id="Vector" d="M39.61 68.12C39.55 68.12 39.49 68.09 39.45 68.04C39.38 67.95 39.4 67.82 39.49 67.74L40.39 67.01C40.48 66.94 40.61 66.95 40.68 67.05C40.75 67.14 40.73 67.27 40.64 67.34L39.74 68.07C39.7 68.1 39.66 68.12 39.61 68.12Z" fill="#767676" fill-opacity="1.000000" fill-rule="nonzero"/>
	<path id="Vector" d="M39.5 62.17C39.41 62.17 39.32 62.11 39.3 62.01C39.28 61.89 39.35 61.78 39.46 61.76C40.65 61.51 41.91 61.21 43.31 60.83C43.42 60.79 43.53 60.86 43.56 60.97C43.59 61.08 43.53 61.2 43.42 61.23C42.01 61.61 40.74 61.92 39.54 62.17C39.53 62.17 39.51 62.17 39.5 62.17Z" fill="#767676" fill-opacity="1.000000" fill-rule="nonzero"/>
	<path id="Vector" d="M36.27 62.96C36.18 62.96 36.09 62.89 36.07 62.8C36.04 62.69 36.11 62.58 36.22 62.55L37.04 62.35C37.14 62.33 37.26 62.39 37.28 62.51C37.31 62.62 37.24 62.73 37.13 62.76L36.31 62.96C36.3 62.96 36.28 62.96 36.27 62.96Z" fill="#767676" fill-opacity="1.000000" fill-rule="nonzero"/>
	<path id="Vector" d="M105.19 62.9C105.17 62.9 105.16 62.9 105.14 62.9C103.72 62.61 102.45 62.33 101.26 62.02C101.15 61.99 101.08 61.88 101.11 61.77C101.14 61.66 101.25 61.59 101.36 61.62C102.54 61.92 103.8 62.21 105.22 62.49C105.33 62.51 105.41 62.62 105.39 62.73C105.37 62.83 105.28 62.9 105.19 62.9Z" fill="#767676" fill-opacity="1.000000" fill-rule="nonzero"/>
	<path id="Vector" d="M98.88 61.48C98.87 61.48 98.85 61.48 98.84 61.48L98.02 61.29C97.91 61.27 97.84 61.16 97.87 61.04C97.89 60.93 98 60.86 98.11 60.88L98.93 61.07C99.04 61.09 99.11 61.2 99.08 61.32C99.06 61.41 98.98 61.48 98.88 61.48Z" fill="#767676" fill-opacity="1.000000" fill-rule="nonzero"/>
	<path id="Vector" d="M58.46 63.82C58.42 63.82 58.38 63.81 58.35 63.79C58.26 63.73 58.22 63.61 58.28 63.51L59.06 62.14C59.11 62.04 59.24 62.01 59.34 62.07C59.43 62.13 59.47 62.25 59.41 62.35L58.64 63.72C58.59 63.78 58.52 63.82 58.46 63.82Z" fill="#767676" fill-opacity="1.000000" fill-rule="nonzero"/>
	<path id="Vector" d="M49.44 77.7C49.41 77.7 49.37 77.69 49.33 77.67C49.24 77.61 49.21 77.48 49.27 77.38L57.06 65.37C57.13 65.27 57.25 65.25 57.35 65.31C57.44 65.37 57.47 65.51 57.4 65.6L49.62 77.61C49.58 77.67 49.51 77.7 49.44 77.7Z" fill="#767676" fill-opacity="1.000000" fill-rule="nonzero"/>
	<path id="Vector" d="M61.34 82.98C61.33 82.98 61.31 82.98 61.3 82.97C61.19 82.95 61.12 82.84 61.14 82.72C62.09 78.35 63.25 73.96 64.36 69.72C65.07 67.05 65.79 64.29 66.46 61.56C66.49 61.45 66.6 61.38 66.71 61.41C66.82 61.43 66.88 61.55 66.86 61.66C66.19 64.39 65.46 67.15 64.76 69.83C63.64 74.07 62.49 78.45 61.54 82.81C61.52 82.91 61.44 82.98 61.34 82.98Z" fill="#767676" fill-opacity="1.000000" fill-rule="nonzero"/>
	<path id="Vector" d="M44.5 73.84C44.46 73.84 44.41 73.82 44.37 73.79C44.29 73.71 44.28 73.58 44.35 73.49L51.11 65.43C51.18 65.34 51.31 65.33 51.4 65.4C51.48 65.48 51.49 65.61 51.42 65.7L44.66 73.76C44.62 73.82 44.56 73.84 44.5 73.84Z" fill="#767676" fill-opacity="1.000000" fill-rule="nonzero"/>
	<path id="Vector" d="M55.51 80.22C55.48 80.22 55.46 80.22 55.44 80.21C55.33 80.16 55.28 80.05 55.31 79.94C56.81 75.8 58.6 71.71 60.33 67.76C60.88 66.5 61.43 65.24 61.97 63.97C62.02 63.87 62.14 63.82 62.25 63.87C62.35 63.91 62.39 64.04 62.35 64.14C61.81 65.41 61.26 66.67 60.7 67.93C58.98 71.88 57.2 75.96 55.7 80.08C55.67 80.17 55.59 80.22 55.51 80.22Z" fill="#767676" fill-opacity="1.000000" fill-rule="nonzero"/>
	<path id="Vector" d="M52.71 63.73C52.67 63.73 52.62 63.71 52.58 63.68C52.49 63.61 52.48 63.48 52.55 63.38L54.21 61.37C54.28 61.28 54.41 61.27 54.49 61.34C54.58 61.42 54.59 61.55 54.52 61.64L52.87 63.65C52.83 63.7 52.77 63.73 52.71 63.73Z" fill="#767676" fill-opacity="1.000000" fill-rule="nonzero"/>
	<path id="Vector" d="M55.51 80.22C55.48 80.22 55.46 80.22 55.44 80.21C55.33 80.16 55.28 80.05 55.31 79.94C56.81 75.8 58.6 71.71 60.33 67.76C60.88 66.5 61.43 65.24 61.97 63.97C62.02 63.87 62.14 63.82 62.25 63.87C62.35 63.91 62.39 64.04 62.35 64.14C61.81 65.41 61.26 66.67 60.7 67.93C58.98 71.88 57.2 75.96 55.7 80.08C55.67 80.17 55.59 80.22 55.51 80.22Z" fill="#767676" fill-opacity="1.000000" fill-rule="nonzero"/>
	<path id="Vector" d="M76.12 84.63C76.01 84.63 75.93 84.55 75.91 84.44C75.44 80.35 75.1 76.18 74.77 72.15C74.49 68.7 74.2 65.12 73.83 61.62C73.81 61.51 73.89 61.4 74.01 61.39C74.12 61.38 74.22 61.46 74.23 61.58C74.61 65.08 74.9 68.66 75.18 72.11C75.51 76.14 75.85 80.31 76.32 84.4C76.33 84.51 76.25 84.61 76.14 84.63C76.13 84.63 76.13 84.63 76.12 84.63Z" fill="#767676" fill-opacity="1.000000" fill-rule="nonzero"/>
	<path id="Vector" d="M83.37 83.36C83.27 83.36 83.19 83.3 83.17 83.2C82.08 78.7 80.75 74.18 79.47 69.81C78.89 67.84 78.29 65.8 77.72 63.79C77.69 63.68 77.75 63.56 77.86 63.53C77.96 63.5 78.08 63.56 78.11 63.67C78.68 65.68 79.28 67.72 79.85 69.68C81.14 74.06 82.47 78.58 83.56 83.1C83.59 83.21 83.52 83.32 83.41 83.35C83.4 83.36 83.38 83.36 83.37 83.36Z" fill="#767676" fill-opacity="1.000000" fill-rule="nonzero"/>
	<path id="Vector" d="M91.75 79.97C91.67 79.97 91.6 79.93 91.56 79.86C90.38 77.49 89.19 75.08 88.05 72.74C86.39 69.35 84.67 65.84 82.92 62.43C82.87 62.33 82.91 62.21 83 62.15C83.11 62.1 83.23 62.14 83.28 62.24C85.03 65.66 86.75 69.16 88.41 72.55C89.56 74.89 90.74 77.3 91.92 79.67C91.97 79.77 91.93 79.89 91.84 79.95C91.81 79.96 91.78 79.97 91.75 79.97Z" fill="#767676" fill-opacity="1.000000" fill-rule="nonzero"/>
	<path id="Vector" d="M96.58 64.65C96.53 64.65 96.48 64.63 96.44 64.59L93.44 61.68C93.35 61.6 93.35 61.47 93.43 61.39C93.51 61.31 93.63 61.3 93.72 61.38L96.72 64.29C96.8 64.37 96.8 64.5 96.73 64.58C96.69 64.63 96.63 64.65 96.58 64.65Z" fill="#767676" fill-opacity="1.000000" fill-rule="nonzero"/>
	<path id="Vector" d="M101.63 69.99C101.57 69.99 101.52 69.97 101.48 69.93L100.13 68.5C100.05 68.42 100.05 68.28 100.13 68.2C100.21 68.12 100.34 68.13 100.42 68.21L101.77 69.64C101.85 69.72 101.85 69.85 101.77 69.93C101.73 69.98 101.68 69.99 101.63 69.99Z" fill="#767676" fill-opacity="1.000000" fill-rule="nonzero"/>
	<path id="Vector" d="M68.57 78.57C68.56 78.57 68.56 78.57 68.55 78.57C68.44 78.56 68.35 78.46 68.36 78.35C68.73 73.63 69.06 69.49 69.37 65.72C69.38 65.61 69.48 65.53 69.59 65.53C69.7 65.54 69.79 65.64 69.78 65.75C69.47 69.53 69.14 73.66 68.77 78.38C68.76 78.49 68.68 78.57 68.57 78.57Z" fill="#767676" fill-opacity="1.000000" fill-rule="nonzero"/>
	<path id="Vector" d="M68.09 84.67C68.08 84.67 68.08 84.67 68.07 84.67C67.96 84.66 67.87 84.56 67.88 84.45L68.31 79.26C68.32 79.14 68.43 79.06 68.53 79.07C68.65 79.08 68.73 79.18 68.72 79.29L68.29 84.48C68.28 84.59 68.19 84.67 68.09 84.67Z" fill="#767676" fill-opacity="1.000000" fill-rule="nonzero"/>
	<path id="Vector" d="M97.13 75.74C97.06 75.74 97 75.71 96.96 75.65C93.57 70.85 90.21 66.14 86.97 61.64C86.9 61.55 86.92 61.42 87.01 61.35C87.1 61.28 87.23 61.3 87.29 61.4C90.53 65.9 93.89 70.61 97.29 75.41C97.36 75.5 97.34 75.64 97.24 75.7C97.21 75.73 97.17 75.74 97.13 75.74Z" fill="#767676" fill-opacity="1.000000" fill-rule="nonzero"/>
	<path id="Vector" d="M91.41 27.46C91.35 27.46 91.29 27.43 91.25 27.38C91.18 27.3 91.19 27.16 91.28 27.09L104.35 15.8C104.44 15.72 104.57 15.73 104.64 15.82C104.71 15.91 104.7 16.04 104.61 16.11L91.54 27.41C91.5 27.44 91.45 27.46 91.41 27.46Z" fill="#767676" fill-opacity="1.000000" fill-rule="nonzero"/>
	<path id="Vector" d="M84.14 22.63C84.1 22.63 84.07 22.62 84.04 22.6C83.94 22.54 83.9 22.42 83.96 22.32L84.74 20.95C84.8 20.85 84.93 20.82 85.02 20.87C85.12 20.93 85.16 21.06 85.1 21.16L84.32 22.53C84.28 22.59 84.21 22.63 84.14 22.63Z" fill="#767676" fill-opacity="1.000000" fill-rule="nonzero"/>
	<path id="Vector" d="M86.14 19.38C86.11 19.38 86.06 19.37 86.03 19.35C85.94 19.29 85.91 19.15 85.97 19.06L93.76 7.05C93.83 6.95 93.95 6.93 94.05 6.99C94.14 7.05 94.16 7.18 94.1 7.28L86.32 19.29C86.27 19.35 86.21 19.38 86.14 19.38Z" fill="#767676" fill-opacity="1.000000" fill-rule="nonzero"/>
	<path id="Vector" d="M77.65 19.94C77.64 19.94 77.62 19.94 77.6 19.94C77.49 19.91 77.43 19.79 77.45 19.68C77.82 18.19 78.19 16.7 78.57 15.22C79.66 10.84 80.79 6.32 81.82 1.85C81.85 1.74 81.96 1.67 82.07 1.69C82.18 1.72 82.25 1.83 82.22 1.95C81.19 6.42 80.06 10.95 78.96 15.32C78.59 16.81 78.22 18.3 77.85 19.79C77.82 19.88 77.74 19.94 77.65 19.94Z" fill="#767676" fill-opacity="1.000000" fill-rule="nonzero"/>
	<path id="Vector" d="M96.12 14.53C96.07 14.53 96.02 14.51 95.98 14.48C95.9 14.4 95.89 14.27 95.96 14.18L98.72 10.89C98.79 10.81 98.92 10.8 99 10.87C99.09 10.95 99.1 11.08 99.03 11.16L96.27 14.45C96.23 14.51 96.17 14.53 96.12 14.53Z" fill="#767676" fill-opacity="1.000000" fill-rule="nonzero"/>
	<path id="Vector" d="M85.96 9.54C85.93 9.54 85.9 9.54 85.88 9.53C85.78 9.48 85.72 9.36 85.77 9.26C86.03 8.57 86.32 7.9 86.6 7.25C86.99 6.34 87.36 5.48 87.67 4.58C87.71 4.48 87.83 4.42 87.93 4.46C88.04 4.5 88.1 4.62 88.05 4.72C87.73 5.63 87.35 6.54 86.97 7.42C86.69 8.06 86.41 8.73 86.14 9.41C86.11 9.49 86.04 9.54 85.96 9.54Z" fill="#767676" fill-opacity="1.000000" fill-rule="nonzero"/>
	<path id="Vector" d="M95.78 27.71C95.7 27.71 95.63 27.67 95.6 27.6C95.55 27.5 95.58 27.37 95.68 27.32L104.67 22.5C104.78 22.45 104.9 22.49 104.95 22.59C105 22.69 104.96 22.82 104.86 22.87L95.87 27.69C95.84 27.71 95.81 27.71 95.78 27.71Z" fill="#767676" fill-opacity="1.000000" fill-rule="nonzero"/>
	<path id="Vector" d="M105.32 22.59C105.24 22.59 105.17 22.54 105.14 22.48C105.08 22.37 105.13 22.25 105.22 22.2L107.45 21.01C107.55 20.95 107.67 20.99 107.72 21.09C107.78 21.2 107.74 21.32 107.64 21.37L105.41 22.57C105.39 22.58 105.35 22.59 105.32 22.59Z" fill="#767676" fill-opacity="1.000000" fill-rule="nonzero"/>
	<path id="Vector" d="M100.38 29.21C100.29 29.21 100.21 29.16 100.19 29.07C100.15 28.96 100.21 28.84 100.31 28.8L107.84 26.19C107.94 26.16 108.06 26.21 108.1 26.32C108.14 26.43 108.08 26.55 107.97 26.59L100.45 29.2C100.42 29.21 100.4 29.21 100.38 29.21Z" fill="#767676" fill-opacity="1.000000" fill-rule="nonzero"/>
	<path id="Vector" d="M85.58 27.54C85.54 27.54 85.49 27.53 85.45 27.5C85.36 27.42 85.35 27.29 85.42 27.2L93.21 17.7C93.28 17.61 93.41 17.6 93.5 17.68C93.58 17.75 93.6 17.88 93.52 17.97L85.74 27.47C85.7 27.52 85.64 27.54 85.58 27.54Z" fill="#767676" fill-opacity="1.000000" fill-rule="nonzero"/>
	<path id="Vector" d="M81.41 20.81C81.39 20.81 81.36 20.8 81.33 20.79C81.23 20.75 81.18 20.62 81.23 20.52C82.63 17.25 83.88 14.3 84.96 11.23C85 11.12 85.12 11.06 85.22 11.1C85.33 11.14 85.38 11.26 85.34 11.37C84.26 14.45 83.01 17.41 81.6 20.68C81.57 20.77 81.49 20.81 81.41 20.81Z" fill="#767676" fill-opacity="1.000000" fill-rule="nonzero"/>
	<path id="Vector" d="M69.32 22.19C69.22 22.19 69.13 22.12 69.12 22.01C68.65 17.75 68.26 13.41 67.88 9.21C67.62 6.28 67.35 3.24 67.05 0.26C67.04 0.15 67.12 0.04 67.23 0.03C67.35 0.02 67.45 0.11 67.46 0.22C67.76 3.2 68.03 6.24 68.29 9.17C68.67 13.37 69.06 17.7 69.52 21.96C69.54 22.07 69.46 22.18 69.34 22.19C69.34 22.19 69.33 22.19 69.32 22.19Z" fill="#767676" fill-opacity="1.000000" fill-rule="nonzero"/>
	<path id="Vector" d="M65.85 23.14C65.77 23.14 65.68 23.07 65.66 22.98L62.23 10.45C62.2 10.34 62.27 10.23 62.38 10.2C62.49 10.17 62.6 10.23 62.63 10.34L66.05 22.87C66.08 22.98 66.02 23.1 65.91 23.13C65.89 23.14 65.87 23.14 65.85 23.14Z" fill="#767676" fill-opacity="1.000000" fill-rule="nonzero"/>
	<path id="Vector" d="M61.51 7.2C61.42 7.2 61.33 7.14 61.31 7.05L59.81 1.57C59.78 1.46 59.85 1.34 59.95 1.31C60.06 1.28 60.17 1.34 60.2 1.46L61.7 6.94C61.73 7.05 61.67 7.16 61.56 7.19C61.54 7.2 61.52 7.2 61.51 7.2Z" fill="#767676" fill-opacity="1.000000" fill-rule="nonzero"/>
	<path id="Vector" d="M61.96 25.31C61.88 25.31 61.81 25.26 61.77 25.19C58.16 17.92 54.78 11.31 51.44 5C51.39 4.9 51.43 4.77 51.53 4.72C51.62 4.66 51.75 4.7 51.8 4.8C55.14 11.11 58.51 17.72 62.13 25C62.19 25.11 62.14 25.23 62.05 25.28C62.02 25.3 61.99 25.31 61.96 25.31Z" fill="#767676" fill-opacity="1.000000" fill-rule="nonzero"/>
	<path id="Vector" d="M54.12 27.52C54.07 27.52 54.02 27.5 53.98 27.46L46.66 20.38C46.58 20.3 46.57 20.16 46.65 20.08C46.73 20 46.86 20 46.94 20.07L54.27 27.16C54.35 27.24 54.35 27.37 54.27 27.45C54.23 27.5 54.18 27.52 54.12 27.52Z" fill="#767676" fill-opacity="1.000000" fill-rule="nonzero"/>
	<path id="Vector" d="M44.47 18.06C44.41 18.06 44.36 18.04 44.32 18L40.02 13.44C39.94 13.36 39.94 13.22 40.02 13.14C40.1 13.07 40.23 13.07 40.31 13.15L44.62 17.71C44.69 17.8 44.69 17.93 44.61 18.01C44.57 18.04 44.52 18.06 44.47 18.06Z" fill="#767676" fill-opacity="1.000000" fill-rule="nonzero"/>
	<path id="Vector" d="M40.51 27.27C40.48 27.27 40.45 27.26 40.42 27.25L33.14 23.68C33.04 23.63 33 23.51 33.05 23.4C33.1 23.3 33.22 23.25 33.32 23.31L40.6 26.87C40.7 26.92 40.75 27.04 40.7 27.15C40.66 27.22 40.59 27.27 40.51 27.27Z" fill="#767676" fill-opacity="1.000000" fill-rule="nonzero"/>
	<path id="Vector" d="M73.63 20.52C73.62 20.52 73.62 20.52 73.61 20.52C73.5 20.52 73.42 20.42 73.42 20.3C73.46 19.77 73.49 19.25 73.52 18.72C73.7 15.75 73.89 12.69 74.25 9.69C74.26 9.57 74.36 9.5 74.48 9.51C74.59 9.52 74.67 9.62 74.66 9.74C74.3 12.73 74.11 15.78 73.93 18.74C73.89 19.27 73.86 19.8 73.83 20.33C73.82 20.44 73.73 20.52 73.63 20.52Z" fill="#767676" fill-opacity="1.000000" fill-rule="nonzero"/>
	<path id="Vector" d="M74.86 5.6C74.85 5.6 74.85 5.6 74.84 5.6C74.73 5.59 74.64 5.49 74.65 5.37L75.08 0.19C75.09 0.07 75.2 -0.01 75.3 0C75.41 0.01 75.5 0.11 75.49 0.22L75.06 5.41C75.05 5.52 74.96 5.6 74.86 5.6Z" fill="#767676" fill-opacity="1.000000" fill-rule="nonzero"/>
	<path id="Vector" d="M47.41 10.92C47.35 10.92 47.29 10.9 47.25 10.84C46.69 10.09 46.13 9.31 45.59 8.55L45.27 8.11C45.21 8.02 45.23 7.89 45.32 7.82C45.41 7.75 45.54 7.77 45.6 7.87L45.92 8.31C46.46 9.06 47.02 9.84 47.57 10.59C47.64 10.68 47.62 10.81 47.53 10.88C47.5 10.91 47.45 10.92 47.41 10.92Z" fill="#767676" fill-opacity="1.000000" fill-rule="nonzero"/>
	<path id="Vector" d="M58.88 26.82C58.81 26.82 58.75 26.79 58.71 26.74C56.43 23.64 54.16 20.46 51.95 17.38L50.4 15.2C50.33 15.1 50.35 14.97 50.44 14.91C50.53 14.84 50.66 14.86 50.73 14.95L52.28 17.13C54.48 20.21 56.76 23.39 59.04 26.49C59.11 26.58 59.09 26.71 59 26.78C58.96 26.81 58.92 26.82 58.88 26.82Z" fill="#767676" fill-opacity="1.000000" fill-rule="nonzero"/>
	<path id="Vector" d="M47.53 27.47C47.49 27.47 47.45 27.46 47.42 27.43L41.75 23.44C41.66 23.37 41.63 23.24 41.7 23.15C41.76 23.05 41.89 23.03 41.98 23.09L47.65 27.09C47.74 27.16 47.77 27.29 47.7 27.38C47.66 27.44 47.6 27.47 47.53 27.47Z" fill="#767676" fill-opacity="1.000000" fill-rule="nonzero"/>
	<path id="Vector" d="M40.16 22.25C40.12 22.25 40.08 22.24 40.05 22.22L36.66 19.83C36.57 19.76 36.55 19.63 36.61 19.54C36.68 19.45 36.81 19.42 36.9 19.49L40.28 21.87C40.37 21.94 40.39 22.07 40.33 22.16C40.29 22.22 40.23 22.25 40.16 22.25Z" fill="#767676" fill-opacity="1.000000" fill-rule="nonzero"/>
	<path id="Vector" d="M35.62 54.88L35.62 55.76C35.62 56.41 35.1 56.94 34.46 56.94L33.09 56.94C32.99 56.94 32.91 56.86 32.91 56.76L32.91 51.95C32.91 51.85 32.99 51.77 33.09 51.77L34.35 51.77C34.99 51.77 35.5 52.3 35.5 52.95L35.5 53.43C35.5 53.68 35.44 53.9 35.3 54.08C35.5 54.29 35.62 54.58 35.62 54.88ZM33.78 53.71L34.35 53.71C34.5 53.71 34.63 53.58 34.63 53.42L34.63 52.91C34.63 52.75 34.5 52.62 34.35 52.62L33.78 52.62L33.78 53.71ZM34.75 54.84C34.75 54.68 34.62 54.55 34.47 54.55L33.78 54.55L33.78 56.08L34.47 56.08C34.62 56.08 34.75 55.95 34.75 55.78L34.75 54.84Z" fill="#767676" fill-opacity="1.000000" fill-rule="nonzero"/>
	<path id="Vector" d="M37.29 52.61L37.29 53.71L37.92 53.71C38.02 53.71 38.1 53.79 38.1 53.89L38.1 54.35C38.1 54.45 38.02 54.53 37.92 54.53L37.29 54.53L37.29 56.09L38.29 56.09C38.39 56.09 38.47 56.17 38.47 56.28L38.47 56.75C38.47 56.85 38.39 56.93 38.29 56.93L36.59 56.93C36.49 56.93 36.41 56.85 36.41 56.75L36.41 51.95C36.41 51.84 36.49 51.76 36.59 51.76L38.29 51.76C38.39 51.76 38.47 51.85 38.47 51.95L38.47 52.42C38.47 52.53 38.39 52.6 38.29 52.6L37.29 52.6L37.29 52.61Z" fill="#767676" fill-opacity="1.000000" fill-rule="nonzero"/>
	<path id="Vector" d="M40.97 53.07L40.97 52.92C40.97 52.75 40.85 52.63 40.69 52.63L40.36 52.63C40.2 52.63 40.07 52.75 40.07 52.92L40.07 53.37C40.07 53.53 40.2 53.65 40.36 53.66L40.69 53.66C41.33 53.66 41.85 54.19 41.85 54.84L41.85 55.75C41.85 56.4 41.32 56.94 40.69 56.94L40.36 56.94C39.72 56.94 39.2 56.4 39.2 55.75L39.2 55.15C39.2 55.04 39.27 54.96 39.38 54.96L39.88 54.96C39.98 54.96 40.06 55.05 40.06 55.15L40.06 55.79C40.06 55.95 40.19 56.09 40.35 56.09L40.68 56.09C40.84 56.09 40.97 55.95 40.97 55.79L40.97 54.83C40.97 54.67 40.84 54.54 40.68 54.54L40.35 54.54C39.71 54.54 39.19 54.02 39.19 53.37L39.19 52.94C39.19 52.29 39.71 51.76 40.35 51.76L40.68 51.76C41.32 51.76 41.84 52.29 41.84 52.94L41.84 53.07C41.84 53.17 41.76 53.25 41.66 53.25L41.15 53.25C41.05 53.26 40.97 53.18 40.97 53.07Z" fill="#767676" fill-opacity="1.000000" fill-rule="nonzero"/>
	<path id="Vector" d="M44.92 51.95L44.92 52.44C44.92 52.54 44.84 52.62 44.74 52.62L44.12 52.62L44.12 56.75C44.12 56.86 44.04 56.94 43.94 56.94L43.43 56.94C43.34 56.94 43.25 56.85 43.25 56.75L43.25 52.62L42.64 52.62C42.54 52.62 42.46 52.54 42.46 52.44L42.46 51.95C42.46 51.85 42.54 51.77 42.64 51.77L44.74 51.77C44.84 51.76 44.92 51.85 44.92 51.95Z" fill="#767676" fill-opacity="1.000000" fill-rule="nonzero"/>
	<path id="Vector" d="M49.67 56.09L49.96 56.09C50.04 56.09 50.13 56.17 50.13 56.27L50.13 56.75C50.13 56.85 50.04 56.93 49.94 56.93L48.51 56.93C47.94 56.93 47.49 56.47 47.49 55.9L47.49 52.8C47.49 52.22 47.94 51.76 48.51 51.76L49.11 51.76C49.68 51.76 50.13 52.23 50.13 52.8L50.13 55.35C50.14 55.68 49.94 55.96 49.67 56.09ZM49.27 52.81C49.27 52.7 49.18 52.62 49.08 52.62L48.54 52.62C48.44 52.62 48.36 52.71 48.36 52.81L48.36 55.9C48.36 56 48.44 56.09 48.54 56.09L49.27 56.09L49.27 52.81Z" fill="#767676" fill-opacity="1.000000" fill-rule="nonzero"/>
	<path id="Vector" d="M52.97 51.76L53.47 51.76C53.57 51.76 53.65 51.85 53.65 51.96L53.65 55.99C53.65 56.51 53.23 56.94 52.73 56.94L51.93 56.94C51.42 56.94 51.01 56.51 51.01 55.99L51.01 51.96C51.01 51.85 51.08 51.76 51.18 51.76L51.69 51.76C51.79 51.76 51.87 51.85 51.87 51.96L51.87 55.9C51.87 56.01 51.96 56.09 52.06 56.09L52.6 56.09C52.7 56.09 52.79 56.01 52.79 55.9L52.79 51.96C52.78 51.85 52.86 51.76 52.97 51.76Z" fill="#767676" fill-opacity="1.000000" fill-rule="nonzero"/>
	<path id="Vector" d="M57.08 56.1L57.08 56.75C57.08 56.86 57 56.94 56.9 56.94L56.39 56.94C56.29 56.94 56.21 56.85 56.21 56.75L56.21 56.08L55.25 56.08L55.25 56.75C55.25 56.86 55.17 56.94 55.07 56.94L54.56 56.94C54.46 56.94 54.38 56.85 54.38 56.75L54.38 56.1C54.38 56.07 54.38 56.05 54.39 56.01L55.01 51.93C55.02 51.83 55.1 51.76 55.2 51.76L56.28 51.76C56.38 51.76 56.45 51.85 56.46 51.93L57.07 56.01C57.08 56.05 57.08 56.07 57.08 56.1ZM56.11 55.24L55.73 52.64L55.35 55.24L56.11 55.24Z" fill="#767676" fill-opacity="1.000000" fill-rule="nonzero"/>
	<path id="Vector" d="M58.67 51.95L58.67 56.1L59.68 56.1C59.79 56.1 59.86 56.18 59.86 56.28L59.86 56.75C59.86 56.86 59.79 56.94 59.68 56.94L57.98 56.94C57.88 56.94 57.8 56.85 57.8 56.75L57.8 51.95C57.8 51.85 57.88 51.77 57.98 51.77L58.49 51.77C58.59 51.76 58.67 51.85 58.67 51.95Z" fill="#767676" fill-opacity="1.000000" fill-rule="nonzero"/>
	<path id="Vector" d="M61.24 56.94L60.73 56.94C60.63 56.94 60.56 56.85 60.56 56.75L60.56 51.96C60.56 51.85 60.64 51.76 60.73 51.76L61.24 51.76C61.34 51.76 61.42 51.85 61.42 51.96L61.42 56.75C61.42 56.86 61.34 56.94 61.24 56.94Z" fill="#767676" fill-opacity="1.000000" fill-rule="nonzero"/>
	<path id="Vector" d="M64.57 51.95L64.57 52.44C64.57 52.54 64.48 52.62 64.39 52.62L63.77 52.62L63.77 56.75C63.77 56.86 63.69 56.94 63.59 56.94L63.08 56.94C62.99 56.94 62.9 56.85 62.9 56.75L62.9 52.62L62.29 52.62C62.19 52.62 62.11 52.54 62.11 52.44L62.11 51.95C62.11 51.85 62.19 51.77 62.29 51.77L64.39 51.77C64.48 51.76 64.57 51.85 64.57 51.95Z" fill="#767676" fill-opacity="1.000000" fill-rule="nonzero"/>
	<path id="Vector" d="M67.21 51.76L67.71 51.76C67.81 51.76 67.89 51.85 67.89 51.95L67.89 52.68C67.89 52.76 67.88 52.84 67.84 52.91L66.92 54.84L66.92 56.75C66.92 56.85 66.84 56.93 66.74 56.93L66.24 56.93C66.14 56.93 66.06 56.85 66.06 56.75L66.06 54.84L65.13 52.91C65.1 52.84 65.08 52.76 65.08 52.68L65.08 51.95C65.08 51.84 65.16 51.76 65.26 51.76L65.77 51.76C65.87 51.76 65.95 51.85 65.95 51.95L65.95 52.51C65.95 52.57 65.96 52.63 65.99 52.68L66.49 53.73L66.99 52.68C67.01 52.63 67.03 52.57 67.03 52.51L67.03 51.95C67.03 51.85 67.1 51.76 67.21 51.76Z" fill="#767676" fill-opacity="1.000000" fill-rule="nonzero"/>
	<path id="Vector" d="M72.4 54.35C72.4 54.92 71.95 55.38 71.39 55.38C70.85 55.38 70.39 54.92 70.39 54.35C70.39 53.79 70.85 53.32 71.39 53.32C71.95 53.32 72.4 53.79 72.4 54.35Z" fill="#767676" fill-opacity="1.000000" fill-rule="nonzero"/>
	<path id="Vector" d="M77.78 54.88L77.78 55.75C77.78 56.4 77.27 56.94 76.63 56.94L75.25 56.94C75.15 56.94 75.07 56.85 75.07 56.75L75.07 51.95C75.07 51.85 75.16 51.77 75.25 51.77L76.51 51.77C77.15 51.77 77.67 52.3 77.67 52.95L77.67 53.43C77.67 53.67 77.6 53.9 77.47 54.08C77.66 54.29 77.78 54.57 77.78 54.88ZM75.94 53.71L76.51 53.71C76.67 53.71 76.79 53.58 76.79 53.42L76.79 52.91C76.79 52.75 76.67 52.62 76.51 52.62L75.94 52.62L75.94 53.71ZM76.91 54.84C76.91 54.68 76.78 54.55 76.63 54.55L75.94 54.55L75.94 56.08L76.63 56.08C76.78 56.08 76.91 55.95 76.91 55.78L76.91 54.84Z" fill="#767676" fill-opacity="1.000000" fill-rule="nonzero"/>
	<path id="Vector" d="M79.45 52.61L79.45 53.71L80.09 53.71C80.19 53.71 80.27 53.79 80.27 53.89L80.27 54.35C80.27 54.45 80.19 54.53 80.09 54.53L79.45 54.53L79.45 56.09L80.46 56.09C80.56 56.09 80.63 56.17 80.63 56.28L80.63 56.75C80.63 56.85 80.56 56.93 80.46 56.93L78.76 56.93C78.65 56.93 78.58 56.85 78.58 56.75L78.58 51.95C78.58 51.84 78.65 51.76 78.76 51.76L80.46 51.76C80.56 51.76 80.63 51.85 80.63 51.95L80.63 52.42C80.63 52.53 80.56 52.6 80.46 52.6L79.45 52.6L79.45 52.61Z" fill="#767676" fill-opacity="1.000000" fill-rule="nonzero"/>
	<path id="Vector" d="M83.14 53.07L83.14 52.92C83.14 52.75 83.01 52.63 82.85 52.63L82.52 52.63C82.36 52.63 82.23 52.75 82.23 52.92L82.23 53.37C82.23 53.53 82.36 53.65 82.52 53.66L82.85 53.66C83.49 53.66 84.01 54.19 84.01 54.84L84.01 55.75C84.01 56.4 83.49 56.94 82.85 56.94L82.52 56.94C81.88 56.94 81.36 56.4 81.36 55.75L81.36 55.15C81.36 55.04 81.44 54.96 81.54 54.96L82.04 54.96C82.15 54.96 82.22 55.05 82.22 55.15L82.22 55.79C82.22 55.95 82.35 56.09 82.51 56.09L82.84 56.09C83 56.09 83.13 55.95 83.13 55.79L83.13 54.83C83.13 54.67 83 54.54 82.84 54.54L82.51 54.54C81.87 54.54 81.35 54.02 81.35 53.37L81.35 52.94C81.35 52.29 81.87 51.76 82.51 51.76L82.84 51.76C83.49 51.76 84 52.29 84 52.94L84 53.07C84 53.17 83.92 53.25 83.82 53.25L83.32 53.25C83.22 53.26 83.14 53.18 83.14 53.07Z" fill="#767676" fill-opacity="1.000000" fill-rule="nonzero"/>
	<path id="Vector" d="M87.09 51.95L87.09 52.44C87.09 52.54 87 52.62 86.91 52.62L86.28 52.62L86.28 56.75C86.28 56.86 86.2 56.94 86.1 56.94L85.6 56.94C85.5 56.94 85.42 56.85 85.42 56.75L85.42 52.62L84.8 52.62C84.7 52.62 84.62 52.54 84.62 52.44L84.62 51.95C84.62 51.85 84.7 51.77 84.8 51.77L86.9 51.77C87 51.76 87.09 51.85 87.09 51.95Z" fill="#767676" fill-opacity="1.000000" fill-rule="nonzero"/>
	<path id="Vector" d="M92.23 52.95L92.23 53.42C92.23 54.07 91.71 54.6 91.08 54.6L90.52 54.6L90.52 56.75C90.52 56.86 90.44 56.94 90.34 56.94L89.84 56.94C89.74 56.94 89.66 56.85 89.66 56.75L89.66 51.95C89.66 51.85 89.74 51.77 89.84 51.77L91.08 51.77C91.71 51.76 92.23 52.3 92.23 52.95ZM91.36 52.91C91.36 52.75 91.24 52.62 91.08 52.62L90.52 52.62L90.52 53.71L91.08 53.71C91.24 53.71 91.36 53.58 91.36 53.42L91.36 52.91Z" fill="#767676" fill-opacity="1.000000" fill-rule="nonzero"/>
	<path id="Vector" d="M94.81 54.52L95.46 55.76C95.5 55.84 95.51 55.93 95.51 56.01L95.51 56.75C95.51 56.85 95.44 56.93 95.34 56.93L94.83 56.93C94.73 56.93 94.64 56.85 94.64 56.75L94.64 56.23C94.64 56.15 94.63 56.07 94.59 55.98L93.82 54.51L93.82 56.75C93.82 56.86 93.74 56.94 93.64 56.94L93.14 56.94C93.04 56.94 92.96 56.85 92.96 56.75L92.96 51.95C92.96 51.85 93.04 51.77 93.14 51.77L94.38 51.77C95.02 51.77 95.53 52.3 95.53 52.95L95.53 53.42C95.53 53.92 95.23 54.34 94.81 54.52ZM94.38 52.62L93.82 52.62L93.82 53.72L94.38 53.72C94.53 53.72 94.66 53.58 94.66 53.41L94.66 52.9C94.67 52.74 94.53 52.62 94.38 52.62Z" fill="#767676" fill-opacity="1.000000" fill-rule="nonzero"/>
	<path id="Vector" d="M96.94 56.94L96.44 56.94C96.34 56.94 96.26 56.85 96.26 56.75L96.26 51.96C96.26 51.85 96.34 51.76 96.44 51.76L96.94 51.76C97.04 51.76 97.12 51.85 97.12 51.96L97.12 56.75C97.12 56.86 97.04 56.94 96.94 56.94Z" fill="#767676" fill-opacity="1.000000" fill-rule="nonzero"/>
	<path id="Vector" d="M99.88 54.54L100.38 54.54C100.48 54.54 100.56 54.63 100.56 54.73L100.56 55.99C100.56 56.5 100.15 56.93 99.64 56.93L98.84 56.93C98.33 56.93 97.92 56.5 97.92 55.99L97.92 52.71C97.92 52.18 98.33 51.76 98.84 51.76L99.64 51.76C100.15 51.76 100.56 52.19 100.56 52.71L100.56 53.52C100.56 53.63 100.48 53.72 100.38 53.72L99.88 53.72C99.78 53.72 99.7 53.63 99.7 53.52L99.7 52.79C99.7 52.69 99.61 52.61 99.52 52.61L98.98 52.61C98.87 52.61 98.79 52.69 98.79 52.79L98.79 55.89C98.79 56 98.87 56.08 98.98 56.08L99.52 56.08C99.61 56.08 99.7 56 99.7 55.89L99.7 54.74C99.7 54.63 99.78 54.54 99.88 54.54Z" fill="#767676" fill-opacity="1.000000" fill-rule="nonzero"/>
	<path id="Vector" d="M102.24 52.61L102.24 53.71L102.88 53.71C102.98 53.71 103.06 53.79 103.06 53.89L103.06 54.35C103.06 54.45 102.98 54.53 102.88 54.53L102.24 54.53L102.24 56.09L103.24 56.09C103.35 56.09 103.42 56.17 103.42 56.28L103.42 56.75C103.42 56.85 103.35 56.93 103.24 56.93L101.54 56.93C101.44 56.93 101.37 56.85 101.37 56.75L101.37 51.95C101.37 51.84 101.44 51.76 101.54 51.76L103.24 51.76C103.35 51.76 103.42 51.85 103.42 51.95L103.42 52.42C103.42 52.53 103.35 52.6 103.24 52.6L102.24 52.6L102.24 52.61Z" fill="#767676" fill-opacity="1.000000" fill-rule="nonzero"/>
	<path id="Vector" d="M106.12 52.57C111.34 52.57 116.57 52.57 121.79 52.57C122.45 52.57 122.45 51.52 121.79 51.52C116.57 51.52 111.34 51.52 106.12 51.52C105.46 51.52 105.46 52.57 106.12 52.57Z" fill="#767676" fill-opacity="1.000000" fill-rule="nonzero"/>
	<path id="Vector" d="M106.12 54.8C109.53 54.8 112.93 54.8 116.34 54.8C117 54.8 117 53.75 116.34 53.75C112.94 53.75 109.53 53.75 106.12 53.75C105.46 53.75 105.46 54.8 106.12 54.8Z" fill="#767676" fill-opacity="1.000000" fill-rule="nonzero"/>
	<path id="Vector" d="M106.12 56.88C107.66 56.88 109.21 56.88 110.75 56.88C111.41 56.88 111.41 55.84 110.75 55.84C109.21 55.84 107.66 55.84 106.12 55.84C105.46 55.84 105.46 56.88 106.12 56.88Z" fill="#767676" fill-opacity="1.000000" fill-rule="nonzero"/>
	<path id="Vector" d="M29.66 51.52C24.43 51.52 19.21 51.52 13.98 51.52C13.32 51.52 13.32 52.57 13.98 52.57C19.21 52.57 24.43 52.57 29.66 52.57C30.32 52.57 30.32 51.52 29.66 51.52Z" fill="#767676" fill-opacity="1.000000" fill-rule="nonzero"/>
	<path id="Vector" d="M29.66 53.75C26.25 53.75 22.85 53.75 19.44 53.75C18.78 53.75 18.78 54.8 19.44 54.8C22.84 54.8 26.25 54.8 29.66 54.8C30.32 54.8 30.32 53.75 29.66 53.75Z" fill="#767676" fill-opacity="1.000000" fill-rule="nonzero"/>
	<path id="Vector" d="M29.66 55.84C28.12 55.84 26.57 55.84 25.03 55.84C24.37 55.84 24.37 56.88 25.03 56.88C26.57 56.88 28.12 56.88 29.66 56.88C30.32 56.88 30.32 55.84 29.66 55.84Z" fill="#767676" fill-opacity="1.000000" fill-rule="nonzero"/>
</svg>
