<svg width="128.269897" height="94.147461" viewBox="0 0 128.27 94.1475" fill="none" xmlns="http://www.w3.org/2000/svg" xmlns:xlink="http://www.w3.org/1999/xlink">
	<desc>
			Created with Pixso.
	</desc>
	<defs/>
	<path id="Vector" d="M45.53 63.19C45.42 63.06 45.23 63.03 45.09 63.14C42.73 65.03 40.87 66.44 39.07 67.69C38.93 67.78 38.89 67.98 38.99 68.13C39.05 68.22 39.15 68.26 39.25 68.26C39.31 68.26 39.37 68.25 39.42 68.21C41.23 66.95 43.1 65.54 45.47 63.64C45.61 63.53 45.63 63.33 45.53 63.19Z" fill="#767676" fill-opacity="1.000000" fill-rule="nonzero"/>
	<path id="Vector" d="M35.97 70.69C36.03 70.69 36.09 70.67 36.15 70.63L36.98 70.02C37.12 69.91 37.15 69.72 37.05 69.57C36.94 69.43 36.75 69.4 36.61 69.5L35.78 70.11C35.65 70.22 35.61 70.41 35.72 70.56C35.78 70.64 35.87 70.69 35.97 70.69Z" fill="#767676" fill-opacity="1.000000" fill-rule="nonzero"/>
	<path id="Vector" d="M55.09 63.33L53.02 66.62C52.93 66.77 52.97 66.97 53.11 67.06C53.16 67.09 53.22 67.11 53.28 67.11C53.38 67.11 53.48 67.06 53.54 66.97L55.61 63.68C55.7 63.53 55.66 63.33 55.52 63.24C55.38 63.14 55.18 63.18 55.09 63.33Z" fill="#767676" fill-opacity="1.000000" fill-rule="nonzero"/>
	<path id="Vector" d="M45 78.67C45.1 78.67 45.19 78.62 45.25 78.54L52.41 68.54C52.51 68.4 52.48 68.2 52.34 68.1C52.21 67.99 52.01 68.02 51.91 68.17L44.75 78.16C44.65 78.3 44.68 78.5 44.82 78.61C44.87 78.65 44.94 78.67 45 78.67Z" fill="#767676" fill-opacity="1.000000" fill-rule="nonzero"/>
	<path id="Vector" d="M60.96 63.41C60.23 66.23 59.4 69.08 58.6 71.84C57.57 75.37 56.51 79.02 55.64 82.66C55.6 82.83 55.7 83 55.86 83.05C55.89 83.05 55.92 83.06 55.94 83.06C56.08 83.06 56.21 82.96 56.24 82.82C57.11 79.19 58.17 75.54 59.19 72.02C59.99 69.26 60.82 66.4 61.56 63.57C61.6 63.4 61.51 63.23 61.34 63.18C61.18 63.14 61 63.24 60.96 63.41Z" fill="#767676" fill-opacity="1.000000" fill-rule="nonzero"/>
	<path id="Vector" d="M40.46 75.45C40.54 75.45 40.62 75.42 40.69 75.35L46.9 68.63C47.02 68.5 47.02 68.31 46.89 68.18C46.77 68.06 46.57 68.07 46.45 68.2L40.24 74.91C40.12 75.04 40.12 75.24 40.25 75.36C40.31 75.42 40.38 75.45 40.46 75.45Z" fill="#767676" fill-opacity="1.000000" fill-rule="nonzero"/>
	<path id="Vector" d="M35.8 63.08L32.56 64.75C32.41 64.83 32.35 65.02 32.43 65.17C32.48 65.28 32.59 65.35 32.7 65.35C32.75 65.35 32.8 65.33 32.84 65.31L36.09 63.65C36.24 63.57 36.3 63.38 36.22 63.22C36.14 63.07 35.96 63 35.8 63.08Z" fill="#767676" fill-opacity="1.000000" fill-rule="nonzero"/>
	<path id="Vector" d="M48.23 66.93L51.18 63.68C51.3 63.55 51.29 63.35 51.16 63.23C51.04 63.11 50.84 63.12 50.72 63.25L47.78 66.5C47.66 66.63 47.67 66.83 47.79 66.95C47.85 67.01 47.93 67.04 48 67.04C48.09 67.04 48.17 67 48.23 66.93Z" fill="#767676" fill-opacity="1.000000" fill-rule="nonzero"/>
	<path id="Vector" d="M58.65 63.65C58.72 63.49 58.66 63.3 58.5 63.23C58.34 63.16 58.16 63.22 58.09 63.39C57.07 65.67 55.96 67.97 54.89 70.18C53.31 73.47 51.67 76.87 50.28 80.32C50.22 80.48 50.3 80.67 50.46 80.74C50.49 80.75 50.53 80.76 50.57 80.76C50.69 80.76 50.81 80.69 50.86 80.56C52.23 77.12 53.87 73.74 55.45 70.46C56.52 68.24 57.63 65.94 58.65 63.65Z" fill="#767676" fill-opacity="1.000000" fill-rule="nonzero"/>
	<path id="Vector" d="M69.2 84.15C69.22 84.31 69.36 84.43 69.51 84.43C69.52 84.43 69.54 84.43 69.55 84.42C69.72 84.4 69.84 84.24 69.82 84.07C69.39 80.68 69.08 77.21 68.78 73.85C68.47 70.41 68.15 66.85 67.69 63.36C67.67 63.19 67.52 63.07 67.34 63.09C67.17 63.12 67.05 63.27 67.08 63.45C67.53 66.92 67.85 70.48 68.16 73.91C68.46 77.27 68.77 80.75 69.2 84.15Z" fill="#767676" fill-opacity="1.000000" fill-rule="nonzero"/>
	<path id="Vector" d="M72.47 72C73.65 75.63 74.87 79.39 75.87 83.14C75.91 83.28 76.04 83.38 76.17 83.38C76.2 83.38 76.23 83.37 76.25 83.37C76.42 83.32 76.52 83.15 76.47 82.98C75.46 79.21 74.24 75.44 73.06 71.8C72.17 69.05 71.25 66.19 70.42 63.36C70.37 63.2 70.2 63.1 70.03 63.15C69.87 63.2 69.78 63.38 69.83 63.54C70.65 66.38 71.58 69.24 72.47 72Z" fill="#767676" fill-opacity="1.000000" fill-rule="nonzero"/>
	<path id="Vector" d="M83.6 80.39C83.66 80.5 83.76 80.56 83.87 80.56C83.92 80.56 83.98 80.54 84.03 80.52C84.17 80.43 84.23 80.23 84.14 80.08C83.05 78.12 81.97 76.11 80.91 74.16C78.98 70.6 76.99 66.91 74.92 63.35C74.83 63.2 74.64 63.15 74.49 63.24C74.35 63.33 74.3 63.53 74.39 63.67C76.45 67.23 78.45 70.91 80.37 74.47C81.43 76.41 82.52 78.42 83.6 80.39Z" fill="#767676" fill-opacity="1.000000" fill-rule="nonzero"/>
	<path id="Vector" d="M88.11 67.72C88.17 67.77 88.24 67.8 88.31 67.8C88.4 67.8 88.49 67.76 88.55 67.69C88.66 67.55 88.65 67.36 88.52 67.24L83.78 63.1C83.66 62.98 83.46 63 83.35 63.13C83.24 63.27 83.25 63.46 83.38 63.58L88.11 67.72Z" fill="#767676" fill-opacity="1.000000" fill-rule="nonzero"/>
	<path id="Vector" d="M92.74 72.16C92.8 72.22 92.88 72.25 92.95 72.25C93.04 72.25 93.12 72.22 93.18 72.15C93.3 72.02 93.29 71.82 93.17 71.7L91.92 70.51C91.8 70.39 91.6 70.39 91.48 70.52C91.37 70.65 91.37 70.85 91.5 70.97L92.74 72.16Z" fill="#767676" fill-opacity="1.000000" fill-rule="nonzero"/>
	<path id="Vector" d="M64 63.14C63.83 63.13 63.68 63.25 63.66 63.43C63.23 68.01 62.79 72.97 62.27 79.04C62.25 79.22 62.38 79.37 62.55 79.39C62.56 79.39 62.56 79.39 62.57 79.39C62.73 79.39 62.87 79.26 62.88 79.1C63.4 73.03 63.85 68.06 64.27 63.49C64.3 63.31 64.17 63.16 64 63.14Z" fill="#767676" fill-opacity="1.000000" fill-rule="nonzero"/>
	<path id="Vector" d="M62.56 79.51C62.39 79.5 62.24 79.63 62.22 79.8L61.83 84.12C61.81 84.29 61.94 84.45 62.11 84.47C62.12 84.47 62.13 84.47 62.14 84.47C62.3 84.47 62.43 84.35 62.45 84.18L62.84 79.86C62.85 79.68 62.73 79.53 62.56 79.51Z" fill="#767676" fill-opacity="1.000000" fill-rule="nonzero"/>
	<path id="Vector" d="M88.82 77.03C88.89 77.03 88.95 77.01 89.01 76.96C89.15 76.85 89.17 76.65 89.06 76.51C85.52 71.98 82.01 67.53 78.63 63.29C78.53 63.16 78.33 63.14 78.2 63.25C78.07 63.36 78.04 63.56 78.15 63.69C81.53 67.93 85.03 72.37 88.57 76.91C88.64 76.99 88.73 77.03 88.82 77.03Z" fill="#767676" fill-opacity="1.000000" fill-rule="nonzero"/>
	<path id="Vector" d="M92.84 65.27C92.95 65.27 93.05 65.22 93.11 65.12C93.2 64.97 93.16 64.78 93.01 64.68L90.64 63.17C90.49 63.08 90.3 63.12 90.21 63.27C90.12 63.42 90.16 63.61 90.31 63.71L92.68 65.22C92.73 65.25 92.79 65.27 92.84 65.27Z" fill="#767676" fill-opacity="1.000000" fill-rule="nonzero"/>
	<path id="Vector" d="M82.28 34.27C82.34 34.35 82.43 34.39 82.53 34.39C82.59 34.39 82.66 34.37 82.72 34.33L91.82 27.2C91.96 27.1 91.98 26.9 91.88 26.76C91.77 26.62 91.58 26.59 91.44 26.7L82.34 33.83C82.2 33.93 82.18 34.13 82.28 34.27Z" fill="#767676" fill-opacity="1.000000" fill-rule="nonzero"/>
	<path id="Vector" d="M77.77 27.84C77.62 27.75 77.43 27.79 77.34 27.94L73.58 33.91C73.48 34.06 73.53 34.26 73.67 34.35C73.72 34.39 73.78 34.4 73.84 34.4C73.94 34.4 74.04 34.35 74.1 34.26L77.86 28.28C77.95 28.13 77.91 27.94 77.77 27.84Z" fill="#767676" fill-opacity="1.000000" fill-rule="nonzero"/>
	<path id="Vector" d="M85.63 16.36L78.47 26.36C78.37 26.5 78.4 26.7 78.54 26.8C78.59 26.84 78.66 26.86 78.72 26.86C78.82 26.86 78.91 26.81 78.97 26.73L86.13 16.73C86.23 16.59 86.2 16.4 86.06 16.29C85.92 16.19 85.73 16.22 85.63 16.36Z" fill="#767676" fill-opacity="1.000000" fill-rule="nonzero"/>
	<path id="Vector" d="M75.24 12.24C75.29 12.07 75.19 11.9 75.02 11.85C74.86 11.81 74.69 11.91 74.64 12.08C74.16 13.97 73.65 15.89 73.14 17.79C73.33 17.87 73.52 17.97 73.7 18.08C74.23 16.14 74.75 14.18 75.24 12.24Z" fill="#767676" fill-opacity="1.000000" fill-rule="nonzero"/>
	<path id="Vector" d="M68.73 34.02C68.69 34.19 68.79 34.36 68.96 34.41C68.98 34.41 69.01 34.41 69.03 34.41C69.17 34.41 69.3 34.32 69.33 34.18C69.61 33.1 69.9 32.01 70.18 30.93L69.54 30.93C69.27 31.96 69 32.99 68.73 34.02Z" fill="#767676" fill-opacity="1.000000" fill-rule="nonzero"/>
	<path id="Vector" d="M88.11 22.72L90.64 19.98C90.76 19.86 90.76 19.66 90.63 19.54C90.51 19.42 90.31 19.42 90.19 19.55L87.66 22.28C87.54 22.41 87.55 22.61 87.67 22.73C87.73 22.79 87.81 22.82 87.88 22.82C87.97 22.82 88.05 22.79 88.11 22.72Z" fill="#767676" fill-opacity="1.000000" fill-rule="nonzero"/>
	<path id="Vector" d="M80.42 14.16C80.26 14.1 80.08 14.18 80.02 14.34C79.73 15.08 79.39 15.79 79.03 16.55C78.78 17.09 78.51 17.65 78.27 18.23C78.2 18.39 78.27 18.57 78.43 18.64C78.47 18.66 78.51 18.67 78.55 18.67C78.67 18.67 78.79 18.6 78.84 18.48C79.08 17.92 79.34 17.37 79.59 16.83C79.94 16.1 80.3 15.34 80.6 14.58C80.66 14.41 80.58 14.23 80.42 14.16Z" fill="#767676" fill-opacity="1.000000" fill-rule="nonzero"/>
	<path id="Vector" d="M89.71 34.22C89.77 34.33 89.88 34.39 89.99 34.39C90.04 34.39 90.09 34.38 90.13 34.36L97.62 30.51C97.77 30.43 97.83 30.25 97.75 30.09C97.68 29.93 97.49 29.87 97.34 29.95L89.85 33.79C89.7 33.87 89.64 34.06 89.71 34.22Z" fill="#767676" fill-opacity="1.000000" fill-rule="nonzero"/>
	<path id="Vector" d="M77.29 34.35C77.35 34.41 77.43 34.44 77.5 34.44C77.59 34.44 77.67 34.4 77.73 34.34L85.59 25.65C85.71 25.52 85.7 25.32 85.57 25.2C85.45 25.08 85.25 25.09 85.13 25.22L77.27 33.91C77.16 34.03 77.17 34.23 77.29 34.35Z" fill="#767676" fill-opacity="1.000000" fill-rule="nonzero"/>
	<path id="Vector" d="M71.17 33.98C71.1 34.15 71.17 34.33 71.33 34.4C71.37 34.42 71.41 34.43 71.45 34.43C71.57 34.43 71.69 34.36 71.74 34.24C72.28 32.97 72.86 31.71 73.44 30.46C73.17 30.61 72.89 30.72 72.6 30.8C72.11 31.85 71.63 32.91 71.17 33.98Z" fill="#767676" fill-opacity="1.000000" fill-rule="nonzero"/>
	<path id="Vector" d="M78.1 20.11C78.16 19.95 78.09 19.76 77.93 19.7C77.77 19.63 77.59 19.71 77.52 19.87C77.02 21.17 76.47 22.46 75.89 23.75L75.89 25.25C76.67 23.55 77.43 21.83 78.1 20.11Z" fill="#767676" fill-opacity="1.000000" fill-rule="nonzero"/>
	<path id="Vector" d="M61.68 10.75C61.66 10.58 61.51 10.45 61.33 10.47C61.16 10.49 61.04 10.65 61.06 10.82C61.3 13.02 61.52 15.27 61.74 17.47L62.37 17.47C62.15 15.25 61.92 12.97 61.68 10.75Z" fill="#767676" fill-opacity="1.000000" fill-rule="nonzero"/>
	<path id="Vector" d="M63.65 34.12C63.67 34.28 63.8 34.39 63.96 34.39C63.97 34.39 63.99 34.39 64 34.39C64.17 34.37 64.29 34.2 64.26 34.03C64.11 33.01 63.97 31.97 63.84 30.93L63.21 30.93C63.35 32 63.49 33.07 63.65 34.12Z" fill="#767676" fill-opacity="1.000000" fill-rule="nonzero"/>
	<path id="Vector" d="M61.07 34.04C61.11 34.17 61.24 34.26 61.37 34.26C61.4 34.26 61.43 34.26 61.46 34.24C61.62 34.19 61.72 34.01 61.67 33.85L60.79 30.93L60.14 30.93L61.07 34.04Z" fill="#767676" fill-opacity="1.000000" fill-rule="nonzero"/>
	<path id="Vector" d="M56.08 16.72C56.11 16.72 56.14 16.72 56.18 16.71C56.34 16.65 56.43 16.48 56.38 16.31L55.01 11.75C54.96 11.58 54.79 11.49 54.62 11.54C54.45 11.59 54.36 11.76 54.41 11.93L55.79 16.5C55.83 16.63 55.95 16.72 56.08 16.72Z" fill="#767676" fill-opacity="1.000000" fill-rule="nonzero"/>
	<path id="Vector" d="M57.65 34.23C57.71 34.33 57.81 34.39 57.92 34.39C57.97 34.39 58.02 34.38 58.07 34.35C58.22 34.27 58.28 34.07 58.19 33.92C57.65 32.91 57.1 31.92 56.56 30.93L55.85 30.93C56.44 32.02 57.04 33.12 57.65 34.23Z" fill="#767676" fill-opacity="1.000000" fill-rule="nonzero"/>
	<path id="Vector" d="M51.27 21.46C49.91 19.06 48.58 16.74 47.27 14.5C47.18 14.35 46.99 14.3 46.85 14.39C46.7 14.48 46.65 14.68 46.74 14.83C48.19 17.32 49.68 19.92 51.21 22.62L51.21 22.22C51.21 21.96 51.23 21.71 51.27 21.46Z" fill="#767676" fill-opacity="1.000000" fill-rule="nonzero"/>
	<path id="Vector" d="M42.33 27.21C42.22 27.35 42.24 27.54 42.37 27.66L49.99 34.34C50.05 34.39 50.12 34.41 50.2 34.41C50.28 34.41 50.37 34.38 50.43 34.3C50.54 34.17 50.53 33.97 50.4 33.86L42.77 27.18C42.64 27.06 42.44 27.08 42.33 27.21Z" fill="#767676" fill-opacity="1.000000" fill-rule="nonzero"/>
	<path id="Vector" d="M36.68 21.42C36.56 21.3 36.36 21.3 36.24 21.43C36.13 21.56 36.13 21.76 36.26 21.88L40.22 25.68C40.28 25.74 40.35 25.76 40.43 25.76C40.51 25.76 40.59 25.73 40.66 25.66C40.77 25.54 40.77 25.33 40.64 25.21L36.68 21.42Z" fill="#767676" fill-opacity="1.000000" fill-rule="nonzero"/>
	<path id="Vector" d="M30.82 31.75C30.66 31.68 30.48 31.75 30.41 31.92C30.34 32.08 30.41 32.26 30.57 32.33L35.29 34.43C35.33 34.45 35.37 34.45 35.41 34.45C35.53 34.45 35.65 34.38 35.7 34.26C35.77 34.1 35.69 33.91 35.54 33.84L30.82 31.75Z" fill="#767676" fill-opacity="1.000000" fill-rule="nonzero"/>
	<path id="Vector" d="M66.28 34.07C66.25 34.25 66.37 34.41 66.54 34.43C66.56 34.43 66.57 34.43 66.59 34.43C66.74 34.43 66.87 34.32 66.89 34.16C67.04 33.09 67.16 32.01 67.26 30.93L66.64 30.93C66.54 31.98 66.42 33.03 66.28 34.07Z" fill="#767676" fill-opacity="1.000000" fill-rule="nonzero"/>
	<path id="Vector" d="M68.78 10.44C68.61 10.42 68.45 10.55 68.44 10.72L68.04 15.04C68.03 15.22 68.15 15.37 68.32 15.39C68.33 15.39 68.35 15.39 68.35 15.39C68.51 15.39 68.65 15.27 68.66 15.1L69.06 10.78C69.07 10.61 68.95 10.45 68.78 10.44Z" fill="#767676" fill-opacity="1.000000" fill-rule="nonzero"/>
	<path id="Vector" d="M41.87 17.42L41.56 17.03C41.46 16.9 41.26 16.88 41.13 16.99C40.99 17.1 40.97 17.29 41.08 17.43L41.38 17.82C41.87 18.44 42.39 19.09 42.89 19.71C42.96 19.78 43.04 19.82 43.13 19.82C43.21 19.82 43.27 19.8 43.33 19.75C43.47 19.63 43.48 19.43 43.37 19.3C42.87 18.69 42.36 18.04 41.87 17.42Z" fill="#767676" fill-opacity="1.000000" fill-rule="nonzero"/>
	<path id="Vector" d="M54.55 34.31C54.62 34.39 54.7 34.43 54.79 34.43C54.86 34.43 54.93 34.4 54.99 34.35C55.12 34.24 55.14 34.04 55.03 33.91C52.57 30.92 50.09 27.78 47.7 24.74L46.27 22.94C46.16 22.8 45.97 22.78 45.83 22.89C45.7 23 45.68 23.2 45.79 23.33L47.21 25.14C49.61 28.17 52.09 31.32 54.55 34.31Z" fill="#767676" fill-opacity="1.000000" fill-rule="nonzero"/>
	<path id="Vector" d="M37.77 29.78C37.68 29.93 37.72 30.13 37.87 30.22L44.41 34.39C44.46 34.43 44.52 34.44 44.58 34.44C44.68 34.44 44.78 34.39 44.84 34.29C44.93 34.14 44.89 33.95 44.74 33.86L38.2 29.68C38.06 29.59 37.86 29.63 37.77 29.78Z" fill="#767676" fill-opacity="1.000000" fill-rule="nonzero"/>
	<path id="Vector" d="M5.02 43.5C5.08 43.25 5.36 42.88 5.93 42.59C6.58 42.19 7.49 41.97 8.49 41.97C8.74 41.97 8.99 41.98 9.23 42.01C11.08 42.18 12.4 43.05 12.84 43.78L12.89 43.85L17.09 41.03L17.06 41C15.64 38.75 12.88 37.22 9.7 36.91C9.32 36.88 8.92 36.85 8.52 36.85C6.71 36.85 4.99 37.28 3.54 38.08C1.51 39.19 0.23 41.01 0.03 43.07C-0.36 47.22 2.97 50.38 8.3 50.93C9.83 51.08 10.93 51.45 11.6 52.03C12.09 52.52 12.09 52.99 12.06 53.19C12.04 53.5 11.67 53.91 11.16 54.18C10.48 54.56 9.58 54.77 8.62 54.77C8.37 54.77 8.12 54.75 7.88 54.73C6.06 54.56 4.71 53.69 4.22 52.94L4.2 52.89L0 55.67L0.04 55.73C1.47 57.98 4.22 59.51 7.4 59.82C7.77 59.85 8.17 59.88 8.58 59.88C10.36 59.88 12.12 59.46 13.53 58.69C15.59 57.53 16.87 55.71 17.05 53.7C17.43 49.44 14.19 46.35 8.8 45.83C7.44 45.68 4.9 45.01 5.02 43.55L5.02 43.52L5.02 43.5ZM4.3 46.36C5.3 47.19 6.79 47.72 8.61 47.9C11.92 48.23 15.35 49.87 15.02 53.47C14.89 54.79 14.03 55.99 12.58 56.83C11.48 57.44 10.06 57.78 8.59 57.78C8.24 57.78 7.92 57.78 7.6 57.75C6.06 57.58 4.62 57.08 3.54 56.34L3.18 56.09L3.99 55.53L4.15 55.64C5.1 56.26 6.36 56.67 7.69 56.79C7.97 56.82 8.26 56.85 8.59 56.85C9.87 56.85 11.14 56.55 12.14 56.01C13.33 55.31 14.01 54.4 14.12 53.38C14.21 52.36 13.8 51.32 13.01 50.51C12.05 49.59 10.58 49.04 8.5 48.83C6.09 48.6 4.09 47.71 3.01 46.37C2.29 45.49 1.98 44.45 2.09 43.27C2.19 41.94 3.07 40.73 4.52 39.94C5.63 39.29 7.01 38.95 8.53 38.95C8.87 38.95 9.19 38.95 9.52 38.98C11.02 39.15 12.46 39.65 13.57 40.39L13.96 40.66L13.09 41.19L12.94 41.09C11.98 40.48 10.73 40.06 9.42 39.91C9.13 39.88 8.84 39.88 8.53 39.88C7.12 39.88 5.9 40.18 4.96 40.76C3.77 41.38 3.07 42.3 2.99 43.35C2.87 44.51 3.33 45.55 4.3 46.36Z" fill="#767676" fill-opacity="1.000000" fill-rule="nonzero"/>
	<path id="Vector" d="M25.23 59.88L30.37 59.88L30.37 42.13L35.93 42.13L35.93 36.85L19.71 36.85L19.71 42.13L25.23 42.13L25.23 59.88L25.23 59.88ZM21.8 39.97L21.8 39.05L33.81 39.05L33.81 39.97L28.26 39.97L28.26 57.72L27.35 57.72L27.35 39.97L21.8 39.97Z" fill="#767676" fill-opacity="1.000000" fill-rule="nonzero"/>
	<path id="Vector" d="M42.12 52.98L50.98 52.98L46.73 41.03L42.12 52.98ZM44.11 51.57L46.7 44.95L49.02 51.57L44.11 51.57Z" fill="#767676" fill-opacity="1.000000" fill-rule="nonzero"/>
	<path id="Vector" d="M48.45 36.85L45.1 36.85L36.23 59.88L41.73 59.88L43.21 56.06L49.86 56.06L51.19 59.88L56.66 59.88L48.45 36.85ZM51.32 53.9L41.77 53.9L40.29 57.72L39.3 57.72L46.54 38.98L46.98 38.98L53.65 57.72L52.67 57.72L51.32 53.9Z" fill="#767676" fill-opacity="1.000000" fill-rule="nonzero"/>
	<path id="Vector" d="M67.12 59.88L67.12 42.13L72.67 42.13L72.67 36.85L56.46 36.85L56.46 42.13L61.98 42.13L61.98 59.88L67.12 59.88ZM58.54 39.97L58.54 39.05L70.56 39.05L70.56 39.97L65 39.97L65 57.72L64.1 57.72L64.1 39.97L58.54 39.97Z" fill="#767676" fill-opacity="1.000000" fill-rule="nonzero"/>
	<path id="Vector" d="M75.61 59.88L80.72 59.88L80.72 36.85L75.61 36.85L75.61 59.88ZM77.7 38.98L78.64 38.98L78.64 57.75L77.7 57.75L77.7 38.98Z" fill="#767676" fill-opacity="1.000000" fill-rule="nonzero"/>
	<path id="Vector" d="M106.12 48.33C106.12 41.98 101.05 36.82 94.82 36.82C88.6 36.82 83.54 41.98 83.54 48.33C83.54 54.7 88.6 59.88 94.82 59.88C101.05 59.88 106.12 54.7 106.12 48.33ZM85.63 48.33C85.63 43.16 89.75 38.95 94.82 38.95C99.9 38.95 104.03 43.16 104.03 48.33C104.03 53.52 99.9 57.75 94.82 57.75C89.75 57.75 85.63 53.52 85.63 48.33Z" fill="#767676" fill-opacity="1.000000" fill-rule="nonzero"/>
	<path id="Vector" d="M103.15 48.33C103.15 43.65 99.41 39.84 94.81 39.84C90.23 39.84 86.51 43.65 86.51 48.33C86.51 53.03 90.23 56.85 94.81 56.85C99.41 56.85 103.15 53.03 103.15 48.33ZM94.81 55.48C90.98 55.48 87.85 52.27 87.85 48.33C87.85 44.41 90.98 41.22 94.81 41.22C98.67 41.22 101.81 44.41 101.81 48.33C101.81 52.27 98.67 55.48 94.81 55.48Z" fill="#767676" fill-opacity="1.000000" fill-rule="nonzero"/>
	<path id="Vector" d="M123.1 36.82L123.1 49.37L113.85 36.82L109.58 36.82L109.58 59.88L114.72 59.88L114.72 46.76L124.42 59.88L128.27 59.88L128.27 36.82L123.1 36.82ZM126.12 57.69L125.46 57.69L112.64 40.33L112.64 57.69L111.7 57.69L111.7 38.98L112.8 38.98L125.22 55.81L125.22 38.98L126.12 38.98L126.12 57.69L126.12 57.69Z" fill="#767676" fill-opacity="1.000000" fill-rule="nonzero"/>
	<path id="Vector" d="M27.48 66.41L27.27 65.97C27.23 65.88 27.13 65.85 27.05 65.89L25.58 66.61L25.24 65.89L26.71 65.17C26.79 65.12 26.83 65.02 26.79 64.93L26.58 64.49C26.54 64.41 26.44 64.37 26.35 64.41L22.35 66.38C22.27 66.42 22.23 66.53 22.27 66.61L22.48 67.05C22.52 67.14 22.62 67.18 22.71 67.14L24.54 66.23L24.89 66.96L23.05 67.86C22.96 67.9 22.93 68 22.97 68.09L23.17 68.53C23.21 68.61 23.31 68.66 23.4 68.61L27.4 66.64C27.49 66.6 27.52 66.49 27.48 66.41Z" fill="#767676" fill-opacity="1.000000" fill-rule="nonzero"/>
	<path id="Vector" d="M28.28 67.9L28.04 67.47C27.99 67.38 27.89 67.36 27.8 67.4L23.93 69.61C23.85 69.66 23.82 69.76 23.87 69.85L24.1 70.28C24.15 70.36 24.25 70.39 24.33 70.34L28.2 68.14C28.29 68.09 28.32 67.98 28.28 67.9Z" fill="#767676" fill-opacity="1.000000" fill-rule="nonzero"/>
	<path id="Vector" d="M28.42 71.98C28.5 71.93 28.52 71.82 28.47 71.74L27.96 70.92C27.91 70.84 27.8 70.82 27.72 70.87L27.37 71.1C27.29 71.16 27.26 71.27 27.31 71.35L27.47 71.6L26.42 72.29C26.34 72.34 26.23 72.31 26.18 72.23L25.91 71.79C25.86 71.71 25.88 71.6 25.96 71.55L28.37 69.97C28.45 69.92 28.56 69.95 28.61 70.02L28.89 70.46C28.94 70.55 28.91 70.66 28.84 70.71L28.61 70.86C28.53 70.91 28.5 71.02 28.56 71.1L28.81 71.51C28.86 71.6 28.97 71.62 29.05 71.57L29.34 71.37C29.75 71.11 29.87 70.55 29.61 70.14L29.21 69.49C28.95 69.07 28.41 68.95 28 69.22L25.44 70.89C25.04 71.15 24.92 71.71 25.18 72.12L25.58 72.77C25.84 73.18 26.38 73.3 26.79 73.04L28.42 71.98Z" fill="#767676" fill-opacity="1.000000" fill-rule="nonzero"/>
	<path id="Vector" d="M31.85 73.34L31.56 72.95C31.51 72.87 31.4 72.86 31.33 72.92L30.03 73.92L29.56 73.28L30.85 72.27C30.93 72.22 30.94 72.11 30.89 72.03L30.6 71.64C30.54 71.56 30.44 71.55 30.36 71.61L26.81 74.34C26.74 74.4 26.72 74.5 26.78 74.58L27.07 74.97C27.12 75.05 27.23 75.07 27.31 75.01L28.94 73.75L29.41 74.39L27.78 75.65C27.7 75.71 27.69 75.82 27.75 75.9L28.03 76.29C28.09 76.36 28.19 76.38 28.27 76.32L31.82 73.59C31.9 73.53 31.91 73.41 31.85 73.34Z" fill="#767676" fill-opacity="1.000000" fill-rule="nonzero"/>
	<path id="Vector" d="M33.02 79.72L34.71 78.04C35.09 77.66 35.1 77.04 34.73 76.65L34.33 76.22C33.96 75.83 33.35 75.82 32.97 76.2L30.91 78.24C30.54 78.62 30.53 79.24 30.9 79.63L31.84 80.62C31.91 80.69 32.02 80.69 32.08 80.63L32.4 80.31C32.47 80.24 32.47 80.13 32.41 80.07L32.22 79.87C32.49 79.98 32.81 79.93 33.02 79.72ZM31.96 79.6L31.49 79.1C31.42 79.03 31.42 78.91 31.48 78.85L33.54 76.81C33.61 76.74 33.72 76.74 33.79 76.81L34.14 77.18C34.21 77.25 34.21 77.37 34.14 77.44L31.96 79.6Z" fill="#767676" fill-opacity="1.000000" fill-rule="nonzero"/>
	<path id="Vector" d="M37.73 79.48L37.37 79.16C37.3 79.09 37.19 79.11 37.12 79.18L34.72 81.98C34.65 82.06 34.54 82.06 34.47 81.99L34.09 81.65C34.02 81.59 34.01 81.47 34.07 81.4L36.48 78.6C36.54 78.53 36.54 78.42 36.46 78.35L36.11 78.03C36.03 77.96 35.92 77.98 35.86 78.05L33.4 80.91C33.08 81.28 33.12 81.85 33.48 82.17L34.05 82.68C34.4 83.01 34.96 82.97 35.28 82.6L37.74 79.74C37.8 79.66 37.8 79.55 37.73 79.48Z" fill="#767676" fill-opacity="1.000000" fill-rule="nonzero"/>
	<path id="Vector" d="M39.8 81.13L38.98 80.5C38.91 80.44 38.82 80.45 38.75 80.51L36.01 83.23C35.98 83.26 35.97 83.28 35.95 83.3L35.59 83.79C35.54 83.87 35.55 83.98 35.62 84.03L36.01 84.33C36.09 84.39 36.19 84.37 36.25 84.29L36.62 83.79L37.35 84.35L36.98 84.86C36.92 84.94 36.94 85.04 37.01 85.1L37.4 85.39C37.48 85.45 37.58 85.44 37.64 85.36L38 84.87C38.02 84.85 38.03 84.83 38.05 84.79L39.85 81.36C39.88 81.29 39.87 81.18 39.8 81.13ZM37.74 83.66L37.16 83.21L38.9 81.47L37.74 83.66Z" fill="#767676" fill-opacity="1.000000" fill-rule="nonzero"/>
	<path id="Vector" d="M40.28 86.39L39.48 85.86L41.57 82.57C41.62 82.49 41.59 82.38 41.51 82.33L41.11 82.07C41.03 82.02 40.93 82.04 40.88 82.12L38.46 85.92C38.4 86.01 38.43 86.11 38.51 86.17L39.85 87.06C39.93 87.11 40.04 87.09 40.09 87.01L40.33 86.63C40.38 86.55 40.36 86.44 40.28 86.39Z" fill="#767676" fill-opacity="1.000000" fill-rule="nonzero"/>
	<path id="Vector" d="M43.76 83.74L43.35 83.5C43.26 83.45 43.16 83.48 43.11 83.57L40.89 87.49C40.84 87.57 40.87 87.68 40.95 87.73L41.36 87.97C41.45 88.02 41.55 87.99 41.6 87.91L43.82 83.99C43.86 83.9 43.84 83.79 43.76 83.74Z" fill="#767676" fill-opacity="1.000000" fill-rule="nonzero"/>
	<path id="Vector" d="M46.29 85.83L46.5 85.42C46.54 85.33 46.5 85.23 46.42 85.18L44.65 84.26C44.57 84.22 44.46 84.25 44.42 84.34L44.22 84.75C44.17 84.84 44.21 84.94 44.29 84.98L44.81 85.25L43.08 88.73C43.04 88.82 43.08 88.93 43.15 88.97L43.58 89.19C43.67 89.23 43.77 89.2 43.81 89.11L45.54 85.63L46.06 85.9C46.14 85.94 46.25 85.91 46.29 85.83Z" fill="#767676" fill-opacity="1.000000" fill-rule="nonzero"/>
	<path id="Vector" d="M49.12 87.32L49.38 86.68C49.42 86.59 49.38 86.49 49.29 86.45L48.85 86.26C48.76 86.22 48.66 86.26 48.62 86.36L48.42 86.84C48.4 86.9 48.37 86.94 48.33 86.98L47.52 87.71L47.46 86.61C47.46 86.55 47.46 86.49 47.49 86.44L47.69 85.95C47.72 85.86 47.68 85.76 47.59 85.72L47.15 85.53C47.06 85.5 46.97 85.54 46.93 85.63L46.66 86.26C46.63 86.33 46.62 86.41 46.62 86.49L46.74 88.52L46.05 90.18C46.02 90.27 46.06 90.37 46.15 90.41L46.59 90.6C46.68 90.63 46.77 90.59 46.81 90.5L47.49 88.84L48.98 87.5C49.05 87.45 49.09 87.39 49.12 87.32Z" fill="#767676" fill-opacity="1.000000" fill-rule="nonzero"/>
	<path id="Vector" d="M49.31 90.79L48.88 90.63C48.79 90.6 48.7 90.64 48.67 90.73L48.51 91.18C48.48 91.27 48.53 91.36 48.62 91.4L48.74 91.44L48.61 91.57C48.58 91.6 48.55 91.63 48.54 91.67L48.5 91.8C48.48 91.85 48.51 91.91 48.55 91.93L48.77 92.01C48.82 92.02 48.88 92 48.9 91.94L48.91 91.91C48.92 91.87 48.95 91.85 48.96 91.84L49.16 91.64C49.18 91.61 49.2 91.58 49.21 91.55L49.4 91C49.43 90.9 49.39 90.82 49.31 90.79Z" fill="#767676" fill-opacity="1.000000" fill-rule="nonzero"/>
	<path id="Vector" d="M54.08 92.21L53.16 91.97L54.08 88.17C54.11 88.08 54.05 87.98 53.96 87.96L53.5 87.84C53.4 87.82 53.31 87.88 53.29 87.97L52.22 92.38C52.19 92.47 52.25 92.56 52.34 92.59L53.9 92.98C53.99 93.01 54.08 92.95 54.11 92.86L54.21 92.42C54.23 92.33 54.18 92.23 54.08 92.21Z" fill="#767676" fill-opacity="1.000000" fill-rule="nonzero"/>
	<path id="Vector" d="M57.45 88.71L56.71 88.58C56.23 88.49 55.78 88.83 55.7 89.31L55.18 92.36C55.1 92.85 55.41 93.31 55.89 93.39L56.63 93.52C57.1 93.6 57.56 93.28 57.64 92.8L58.16 89.75C58.24 89.26 57.92 88.79 57.45 88.71ZM56.85 92.56C56.83 92.66 56.74 92.73 56.64 92.71L56.14 92.62C56.05 92.61 55.98 92.51 56 92.41L56.49 89.52C56.51 89.43 56.6 89.37 56.69 89.39L57.19 89.48C57.29 89.49 57.36 89.58 57.34 89.67L56.85 92.56Z" fill="#767676" fill-opacity="1.000000" fill-rule="nonzero"/>
	<path id="Vector" d="M62.41 89.26L61.81 89.21C61.75 89.2 61.7 89.25 61.7 89.31L61.65 89.91C61.65 89.96 61.64 89.99 61.63 90.05L61.29 91.8L61.09 89.25C61.08 89.19 61.04 89.14 60.98 89.14L60.47 89.1C60.41 89.09 60.36 89.13 60.35 89.18L59.75 91.67L59.68 89.88C59.68 89.83 59.68 89.8 59.69 89.75L59.74 89.15C59.74 89.09 59.7 89.03 59.64 89.03L59.04 88.98C58.98 88.97 58.92 89.02 58.92 89.08L58.87 89.75C58.87 89.78 58.86 89.82 58.87 89.89L59.09 93.73C59.1 93.82 59.16 93.89 59.25 93.9L59.78 93.94C59.86 93.95 59.94 93.89 59.96 93.8L60.58 90.95L60.75 93.87C60.75 93.96 60.81 94.03 60.9 94.04L61.43 94.08C61.52 94.09 61.59 94.04 61.61 93.95L62.45 90.19C62.46 90.13 62.46 90.09 62.46 90.05L62.52 89.39C62.52 89.32 62.47 89.27 62.41 89.26Z" fill="#767676" fill-opacity="1.000000" fill-rule="nonzero"/>
	<path id="Vector" d="M66.34 89.2L65.16 89.26C65.07 89.27 64.99 89.35 65 89.44L65.22 93.98C65.22 94.08 65.3 94.15 65.4 94.14L65.88 94.12C65.97 94.11 66.04 94.03 66.04 93.93L65.94 91.91L66.46 91.88C67.06 91.85 67.53 91.32 67.5 90.71L67.48 90.26C67.45 89.65 66.93 89.17 66.34 89.2ZM66.42 91.04L65.9 91.06L65.85 90.03L66.37 90C66.52 90 66.64 90.12 66.65 90.27L66.67 90.75C66.68 90.9 66.57 91.03 66.42 91.04Z" fill="#767676" fill-opacity="1.000000" fill-rule="nonzero"/>
	<path id="Vector" d="M70.9 92.53L70.14 91.45C70.52 91.23 70.75 90.79 70.69 90.32L70.64 89.88C70.56 89.27 70.02 88.84 69.42 88.91L68.25 89.06C68.16 89.07 68.09 89.16 68.1 89.26L68.65 93.76C68.66 93.86 68.75 93.92 68.84 93.91L69.32 93.85C69.41 93.84 69.48 93.75 69.47 93.66L69.21 91.56L70.1 92.84C70.15 92.92 70.17 92.99 70.18 93.07L70.24 93.55C70.25 93.65 70.34 93.71 70.44 93.7L70.91 93.64C71.01 93.63 71.06 93.54 71.05 93.45L70.97 92.76C70.96 92.68 70.94 92.6 70.9 92.53ZM69.65 90.74L69.12 90.81L69 89.78L69.53 89.71C69.67 89.69 69.8 89.79 69.82 89.95L69.88 90.42C69.9 90.58 69.8 90.72 69.65 90.74Z" fill="#767676" fill-opacity="1.000000" fill-rule="nonzero"/>
	<path id="Vector" d="M71.84 88.52L71.37 88.61C71.28 88.63 71.22 88.72 71.24 88.82L72.04 93.28C72.06 93.38 72.14 93.44 72.24 93.42L72.71 93.33C72.8 93.31 72.86 93.22 72.85 93.13L72.04 88.67C72.03 88.57 71.94 88.5 71.84 88.52Z" fill="#767676" fill-opacity="1.000000" fill-rule="nonzero"/>
	<path id="Vector" d="M75.85 90.47C75.83 90.37 75.73 90.31 75.64 90.33L75.18 90.45C75.09 90.47 75.03 90.57 75.06 90.67L75.31 91.73C75.33 91.83 75.27 91.92 75.18 91.94L74.69 92.07C74.59 92.09 74.49 92.04 74.47 91.94L73.79 89.1C73.77 89 73.83 88.91 73.92 88.88L74.42 88.76C74.51 88.74 74.6 88.79 74.63 88.89L74.79 89.56C74.81 89.65 74.91 89.72 75 89.69L75.46 89.58C75.56 89.55 75.61 89.45 75.59 89.36L75.41 88.61C75.29 88.13 74.82 87.84 74.35 87.96L73.62 88.14C73.15 88.26 72.86 88.74 72.98 89.22L73.7 92.23C73.81 92.71 74.29 93.01 74.75 92.89L75.48 92.71C75.96 92.59 76.24 92.1 76.13 91.63L75.85 90.47Z" fill="#767676" fill-opacity="1.000000" fill-rule="nonzero"/>
	<path id="Vector" d="M79.04 90.98C79.01 90.89 78.92 90.83 78.83 90.86L77.92 91.16L77.48 89.76L78.05 89.57C78.14 89.54 78.19 89.44 78.16 89.35L78.04 88.94C78.01 88.85 77.91 88.79 77.82 88.82L77.25 89.01L76.94 88.02L77.84 87.72C77.93 87.69 77.98 87.6 77.95 87.5L77.82 87.08C77.79 86.99 77.7 86.94 77.6 86.97L76.07 87.47C75.99 87.5 75.93 87.59 75.96 87.69L77.32 92.01C77.35 92.1 77.44 92.15 77.54 92.12L79.06 91.62C79.15 91.59 79.21 91.49 79.18 91.4L79.04 90.98Z" fill="#767676" fill-opacity="1.000000" fill-rule="nonzero"/>
	<path id="Vector" d="M80.9 90.98C80.9 90.95 80.89 90.91 80.88 90.88L80.68 90.33C80.65 90.24 80.56 90.2 80.48 90.23L80.05 90.4C79.96 90.43 79.92 90.53 79.95 90.62L80.12 91.06C80.15 91.15 80.24 91.19 80.33 91.15L80.46 91.11L80.44 91.3C80.43 91.33 80.43 91.38 80.45 91.42L80.49 91.54C80.51 91.59 80.57 91.62 80.62 91.61L80.84 91.52C80.88 91.5 80.91 91.44 80.89 91.39L80.88 91.36C80.87 91.32 80.87 91.28 80.88 91.27L80.9 90.98Z" fill="#767676" fill-opacity="1.000000" fill-rule="nonzero"/>
	<path id="Vector" d="M85.22 86.77C85.09 86.51 84.88 86.33 84.62 86.23C84.66 86.02 84.62 85.8 84.52 85.6L84.32 85.19C84.05 84.64 83.39 84.42 82.86 84.69L81.79 85.24C81.71 85.28 81.67 85.39 81.72 85.48L83.72 89.53C83.76 89.62 83.86 89.65 83.95 89.61L85.11 89.01C85.65 88.74 85.86 88.06 85.59 87.51L85.22 86.77ZM82.73 85.66L83.21 85.41C83.34 85.34 83.5 85.4 83.57 85.53L83.78 85.97C83.85 86.1 83.79 86.26 83.66 86.33L83.18 86.58L82.73 85.66ZM84.75 88.28L84.17 88.58L83.53 87.28L84.11 86.99C84.24 86.92 84.4 86.98 84.47 87.11L84.86 87.9C84.93 88.05 84.88 88.22 84.75 88.28Z" fill="#767676" fill-opacity="1.000000" fill-rule="nonzero"/>
	<path id="Vector" d="M88.38 86.4C88.33 86.32 88.23 86.29 88.15 86.34L87.34 86.84L86.59 85.57L87.11 85.26C87.19 85.21 87.22 85.1 87.17 85.02L86.95 84.65C86.9 84.57 86.8 84.54 86.72 84.59L86.2 84.9L85.68 84.01L86.5 83.51C86.58 83.46 86.6 83.36 86.55 83.27L86.33 82.89C86.28 82.81 86.18 82.78 86.1 82.83L84.72 83.67C84.64 83.72 84.61 83.83 84.66 83.91L86.94 87.8C86.99 87.89 87.09 87.91 87.17 87.86L88.55 87.02C88.63 86.97 88.66 86.87 88.61 86.78L88.38 86.4Z" fill="#767676" fill-opacity="1.000000" fill-rule="nonzero"/>
	<path id="Vector" d="M90.49 83.29C90.14 82.78 89.46 82.67 88.97 83.02L88.71 83.2C88.58 83.29 88.42 83.26 88.33 83.14L88.09 82.79C88 82.66 88.04 82.49 88.16 82.41L88.42 82.22C88.54 82.13 88.71 82.16 88.8 82.29L88.88 82.41C88.93 82.49 89.04 82.5 89.12 82.45L89.51 82.17C89.59 82.11 89.61 82.01 89.55 81.92L89.49 81.83C89.14 81.32 88.46 81.2 87.96 81.55L87.71 81.73C87.21 82.08 87.09 82.79 87.44 83.29L87.66 83.62C88.01 84.12 88.69 84.23 89.18 83.88L89.44 83.7C89.56 83.61 89.73 83.64 89.82 83.77L90.32 84.51C90.41 84.63 90.38 84.81 90.26 84.9L90 85.08C89.88 85.17 89.71 85.14 89.62 85.01L89.28 84.51C89.23 84.43 89.12 84.42 89.04 84.47L88.65 84.75C88.57 84.81 88.55 84.91 88.61 85L88.93 85.46C89.27 85.97 89.96 86.09 90.45 85.74L90.71 85.56C91.2 85.2 91.32 84.5 90.98 84L90.49 83.29Z" fill="#767676" fill-opacity="1.000000" fill-rule="nonzero"/>
	<path id="Vector" d="M91.02 80.17L91.47 79.79C91.54 79.74 91.56 79.62 91.5 79.55L91.21 79.19C91.15 79.12 91.04 79.11 90.98 79.17L89.44 80.45C89.36 80.51 89.35 80.62 89.41 80.7L89.7 81.05C89.76 81.13 89.86 81.14 89.93 81.08L90.38 80.7L92.8 83.72C92.86 83.8 92.97 83.81 93.04 83.75L93.41 83.44C93.48 83.38 93.49 83.27 93.43 83.19L91.02 80.17Z" fill="#767676" fill-opacity="1.000000" fill-rule="nonzero"/>
	<path id="Vector" d="M96.6 77.51C96.53 77.44 96.42 77.44 96.35 77.51L96.02 77.86C95.96 77.93 95.96 78.04 96.03 78.11L96.8 78.87C96.87 78.94 96.87 79.06 96.81 79.12L96.45 79.5C96.38 79.57 96.27 79.57 96.21 79.5L94.14 77.46C94.07 77.4 94.08 77.28 94.14 77.21L94.5 76.84C94.56 76.77 94.67 76.76 94.74 76.83L95.23 77.31C95.3 77.38 95.41 77.38 95.47 77.31L95.8 76.96C95.87 76.89 95.86 76.78 95.8 76.71L95.25 76.18C94.9 75.83 94.35 75.84 94.02 76.2L93.49 76.75C93.16 77.11 93.16 77.67 93.51 78.02L95.69 80.17C96.04 80.51 96.6 80.5 96.93 80.15L97.45 79.6C97.79 79.24 97.78 78.68 97.43 78.33L96.6 77.51Z" fill="#767676" fill-opacity="1.000000" fill-rule="nonzero"/>
	<path id="Vector" d="M96.78 73.21C96.71 73.14 96.6 73.16 96.55 73.23L96.24 73.61C96.18 73.68 96.19 73.79 96.26 73.85L97.52 74.91L97.01 75.53L95.76 74.47C95.69 74.41 95.58 74.42 95.52 74.5L95.21 74.87C95.15 74.95 95.16 75.05 95.24 75.12L98.66 78.01C98.73 78.07 98.84 78.06 98.9 77.98L99.21 77.61C99.27 77.53 99.26 77.42 99.18 77.36L97.61 76.03L98.11 75.41L99.68 76.75C99.76 76.81 99.86 76.8 99.92 76.72L100.23 76.35C100.29 76.28 100.28 76.16 100.21 76.1L96.78 73.21Z" fill="#767676" fill-opacity="1.000000" fill-rule="nonzero"/>
	<path id="Vector" d="M101.77 72.64L99.28 70.89C98.88 70.61 98.33 70.71 98.05 71.12L97.63 71.75C97.35 72.16 97.46 72.71 97.86 73L100.35 74.75C100.75 75.03 101.29 74.93 101.57 74.52L101.99 73.89C102.27 73.48 102.17 72.92 101.77 72.64ZM101.28 73.53L100.99 73.96C100.94 74.04 100.82 74.06 100.74 74L98.38 72.34C98.3 72.29 98.29 72.18 98.34 72.1L98.63 71.67C98.68 71.59 98.79 71.56 98.86 71.62L101.23 73.28C101.31 73.34 101.33 73.45 101.28 73.53Z" fill="#767676" fill-opacity="1.000000" fill-rule="nonzero"/>
	<path id="Vector" d="M103.37 71.4L99.6 69.02C99.52 68.97 99.41 68.99 99.36 69.07L99.11 69.48C99.06 69.57 99.09 69.68 99.17 69.73L102.94 72.11C103.02 72.17 103.12 72.14 103.18 72.06L103.43 71.64C103.48 71.56 103.46 71.45 103.37 71.4Z" fill="#767676" fill-opacity="1.000000" fill-rule="nonzero"/>
	<path id="Vector" d="M104.49 67.9L103.47 67.33C103.39 67.29 103.28 67.32 103.23 67.4L103.01 67.83C102.96 67.92 103 68.03 103.08 68.07L104.03 68.59C104.11 68.64 104.14 68.75 104.09 68.83L103.85 69.29C103.81 69.38 103.7 69.41 103.62 69.37L101.09 67.97C101.01 67.92 100.98 67.81 101.03 67.73L101.27 67.27C101.31 67.19 101.42 67.15 101.5 67.2L102.1 67.53C102.18 67.57 102.29 67.55 102.33 67.46L102.56 67.03C102.6 66.94 102.57 66.84 102.49 66.79L101.82 66.42C101.4 66.19 100.87 66.35 100.64 66.78L100.28 67.46C100.05 67.89 100.21 68.43 100.63 68.67L103.3 70.14C103.73 70.37 104.26 70.21 104.49 69.78L104.85 69.11C105.08 68.67 104.91 68.13 104.49 67.9Z" fill="#767676" fill-opacity="1.000000" fill-rule="nonzero"/>
	<path id="Vector" d="M106.37 65.45L105.98 65.27C105.89 65.23 105.79 65.26 105.75 65.35L105.36 66.24L104.05 65.63L104.29 65.07C104.33 64.98 104.3 64.88 104.21 64.84L103.82 64.66C103.74 64.62 103.64 64.66 103.6 64.74L103.35 65.3L102.42 64.88L102.81 63.99C102.85 63.9 102.82 63.8 102.73 63.76L102.33 63.58C102.24 63.54 102.14 63.57 102.1 63.66L101.44 65.16C101.4 65.25 101.44 65.35 101.52 65.39L105.57 67.26C105.66 67.3 105.76 67.26 105.8 67.17L106.46 65.68C106.5 65.59 106.46 65.49 106.37 65.45Z" fill="#767676" fill-opacity="1.000000" fill-rule="nonzero"/>
	<path id="Vector" d="M22.47 26.88L26.42 28.96C26.5 29 26.6 28.97 26.65 28.88L26.87 28.45C26.91 28.36 26.88 28.26 26.79 28.21L25.03 27.28L25.26 26.81C25.54 26.27 25.32 25.59 24.79 25.31L24.4 25.1C23.87 24.82 23.2 25.04 22.93 25.58L22.39 26.65C22.35 26.73 22.39 26.84 22.47 26.88ZM23.63 25.94C23.7 25.81 23.86 25.76 24 25.83L24.42 26.05C24.54 26.12 24.6 26.28 24.53 26.42L24.29 26.89L23.39 26.42L23.63 25.94Z" fill="#767676" fill-opacity="1.000000" fill-rule="nonzero"/>
	<path id="Vector" d="M24.28 23.44L28.04 25.84C28.12 25.89 28.23 25.86 28.28 25.79L28.53 25.37C28.58 25.29 28.56 25.18 28.48 25.13L26.72 24.01L28.26 24.11C28.34 24.12 28.42 24.15 28.48 24.19L28.89 24.45C28.97 24.5 29.07 24.47 29.12 24.39L29.38 23.97C29.43 23.89 29.4 23.79 29.32 23.74L28.74 23.37C28.68 23.33 28.6 23.3 28.53 23.29L27.23 23.2C27.3 22.77 27.11 22.31 26.72 22.06L26.36 21.82C25.84 21.5 25.17 21.65 24.85 22.17L24.23 23.19C24.18 23.27 24.2 23.38 24.28 23.44ZM25.52 22.6C25.59 22.47 25.75 22.43 25.88 22.51L26.28 22.76C26.42 22.85 26.46 23.02 26.38 23.15L26.1 23.61L25.23 23.06L25.52 22.6Z" fill="#767676" fill-opacity="1.000000" fill-rule="nonzero"/>
	<path id="Vector" d="M29.93 22.86C30 22.92 30.11 22.9 30.17 22.83L31.12 21.51C31.17 21.43 31.16 21.32 31.08 21.26L30.73 21C30.65 20.94 30.54 20.95 30.49 21.03L29.93 21.81L28.77 20.94L29.12 20.45C29.18 20.37 29.16 20.26 29.09 20.2L28.74 19.94C28.67 19.89 28.56 19.9 28.51 19.98L28.15 20.48L27.33 19.86L27.89 19.08C27.95 19 27.93 18.89 27.86 18.83L27.5 18.57C27.43 18.51 27.32 18.52 27.27 18.6L26.31 19.92C26.26 20 26.27 20.11 26.35 20.17L29.93 22.86Z" fill="#767676" fill-opacity="1.000000" fill-rule="nonzero"/>
	<path id="Vector" d="M31.09 19.97C31.12 20.01 31.16 20.04 31.17 20.06L31.65 20.5C31.72 20.56 31.82 20.55 31.89 20.48L32.2 20.11C32.27 20.04 32.26 19.93 32.19 19.87L31.79 19.51C31.76 19.48 31.74 19.45 31.71 19.42L30.26 17.76L31.99 18.93C32.06 18.97 32.15 18.96 32.21 18.89L32.55 18.5C32.61 18.44 32.61 18.34 32.55 18.27L31.21 16.66L33 17.93C33.04 17.96 33.06 17.98 33.1 18.01L33.49 18.37C33.57 18.43 33.67 18.43 33.74 18.35L34.05 17.99C34.11 17.92 34.11 17.8 34.04 17.74L33.56 17.31C33.54 17.3 33.51 17.27 33.46 17.24L30.32 15.14C30.25 15.09 30.16 15.11 30.1 15.17L29.76 15.57C29.7 15.63 29.7 15.73 29.76 15.79L31.31 17.73L29.24 16.38C29.17 16.34 29.08 16.35 29.02 16.42L28.68 16.81C28.62 16.88 28.63 16.97 28.68 17.04L31.09 19.97Z" fill="#767676" fill-opacity="1.000000" fill-rule="nonzero"/>
	<path id="Vector" d="M34.79 17.01C34.85 17.08 34.96 17.09 35.03 17.02L35.37 16.68C35.44 16.61 35.45 16.5 35.38 16.43L32.29 13.18C32.23 13.11 32.11 13.1 32.05 13.17L31.7 13.51C31.63 13.57 31.64 13.69 31.7 13.76L34.79 17.01Z" fill="#767676" fill-opacity="1.000000" fill-rule="nonzero"/>
	<path id="Vector" d="M35.78 15.05C36.09 15.42 36.65 15.47 37.01 15.15L37.59 14.66C37.95 14.34 38 13.77 37.69 13.4L35.29 10.49C35.22 10.41 35.11 10.4 35.04 10.46L34.68 10.77C34.6 10.84 34.6 10.95 34.66 11.03L37.02 13.87C37.08 13.95 37.07 14.06 36.99 14.12L36.6 14.46C36.53 14.52 36.42 14.51 36.36 14.44L34 11.59C33.94 11.52 33.83 11.5 33.76 11.57L33.39 11.88C33.32 11.94 33.32 12.06 33.38 12.13L35.78 15.05Z" fill="#767676" fill-opacity="1.000000" fill-rule="nonzero"/>
	<path id="Vector" d="M38.5 12.66C38.53 12.71 38.56 12.75 38.57 12.77L38.93 13.3C38.98 13.38 39.09 13.41 39.17 13.35L39.56 13.07C39.64 13.02 39.66 12.91 39.6 12.83L39.3 12.38C39.28 12.35 39.26 12.32 39.24 12.28L38.22 10.31L39.62 11.87C39.68 11.93 39.78 11.94 39.84 11.89L40.27 11.58C40.34 11.54 40.36 11.45 40.33 11.37L39.4 9.47L40.84 11.15C40.87 11.18 40.89 11.21 40.91 11.24L41.21 11.69C41.27 11.77 41.37 11.79 41.45 11.74L41.84 11.46C41.92 11.41 41.94 11.3 41.89 11.22L41.52 10.69C41.51 10.67 41.48 10.63 41.44 10.59L38.89 7.79C38.83 7.73 38.74 7.72 38.67 7.77L38.24 8.07C38.17 8.12 38.15 8.21 38.19 8.29L39.24 10.55L37.55 8.74C37.49 8.68 37.4 8.66 37.33 8.72L36.91 9.01C36.84 9.06 36.81 9.16 36.85 9.23L38.5 12.66Z" fill="#767676" fill-opacity="1.000000" fill-rule="nonzero"/>
	<path id="Vector" d="M44.28 9C44.49 9.44 45.02 9.62 45.45 9.41L46.13 9.07C46.56 8.85 46.74 8.31 46.53 7.87L45.67 6.1C45.63 6.01 45.53 5.97 45.44 6.02L44.6 6.44C44.51 6.48 44.48 6.59 44.52 6.67L44.71 7.06C44.75 7.15 44.86 7.19 44.94 7.15L45.2 7.01L45.75 8.15C45.79 8.24 45.75 8.35 45.67 8.39L45.21 8.62C45.13 8.66 45.02 8.63 44.98 8.54L43.72 5.91C43.68 5.83 43.71 5.72 43.79 5.68L44.25 5.44C44.34 5.4 44.45 5.44 44.49 5.52L44.61 5.77C44.65 5.86 44.75 5.89 44.84 5.85L45.27 5.63C45.35 5.59 45.39 5.49 45.35 5.4L45.19 5.08C44.98 4.64 44.45 4.46 44.02 4.67L43.34 5.01C42.91 5.23 42.73 5.76 42.95 6.21L44.28 9Z" fill="#767676" fill-opacity="1.000000" fill-rule="nonzero"/>
	<path id="Vector" d="M47.46 7.46C47.47 7.51 47.47 7.52 47.48 7.55L47.7 8.12C47.74 8.21 47.83 8.25 47.92 8.22L48.37 8.04C48.46 8 48.5 7.91 48.46 7.81L48.24 7.22L49.09 6.88L49.32 7.47C49.35 7.56 49.45 7.61 49.53 7.57L49.98 7.39C50.07 7.36 50.11 7.26 50.08 7.17L49.86 6.6C49.85 6.57 49.84 6.55 49.82 6.51L47.91 3.14C47.87 3.07 47.77 3.03 47.69 3.06L46.74 3.44C46.65 3.48 46.6 3.56 46.63 3.65L47.46 7.46ZM48.72 6.19L48.04 6.46L47.5 4.03L48.72 6.19Z" fill="#767676" fill-opacity="1.000000" fill-rule="nonzero"/>
	<path id="Vector" d="M50.09 3.79C50.26 4.38 50.87 4.7 51.45 4.54L51.75 4.45C51.89 4.4 52.04 4.48 52.09 4.63L52.34 5.5C52.38 5.64 52.3 5.8 52.15 5.84L51.85 5.94C51.71 5.98 51.56 5.9 51.51 5.75L51.34 5.16C51.31 5.07 51.22 5.02 51.13 5.04L50.67 5.18C50.58 5.21 50.53 5.31 50.56 5.4L50.72 5.95C50.89 6.54 51.5 6.88 52.08 6.7L52.38 6.61C52.96 6.44 53.29 5.81 53.11 5.22L52.88 4.4C52.7 3.8 52.1 3.47 51.52 3.65L51.21 3.74C51.07 3.77 50.92 3.7 50.87 3.55L50.75 3.14C50.71 2.99 50.79 2.84 50.94 2.8L51.24 2.7C51.38 2.66 51.54 2.74 51.58 2.88L51.62 3.03C51.65 3.12 51.74 3.17 51.83 3.14L52.29 3C52.38 2.98 52.43 2.88 52.4 2.79L52.37 2.67C52.2 2.08 51.59 1.75 51.01 1.92L50.71 2.01C50.13 2.19 49.8 2.81 49.97 3.4L50.09 3.79Z" fill="#767676" fill-opacity="1.000000" fill-rule="nonzero"/>
	<path id="Vector" d="M54.29 5.15C54.39 5.64 54.85 5.95 55.32 5.85L56.06 5.69C56.53 5.59 56.83 5.12 56.74 4.64L56.13 1.61C56.03 1.13 55.56 0.81 55.09 0.91L54.36 1.06C53.88 1.16 53.58 1.64 53.68 2.13L54.29 5.15ZM54.64 1.82L55.13 1.72C55.23 1.7 55.32 1.75 55.34 1.85L55.92 4.72C55.94 4.82 55.87 4.92 55.78 4.93L55.29 5.04C55.19 5.06 55.09 4.99 55.08 4.9L54.5 2.03C54.48 1.93 54.54 1.85 54.64 1.82Z" fill="#767676" fill-opacity="1.000000" fill-rule="nonzero"/>
	<path id="Vector" d="M58.22 5.31L59.81 5.11C59.91 5.1 59.97 5.01 59.96 4.91L59.91 4.47C59.89 4.37 59.81 4.31 59.71 4.32L58.77 4.44L58.29 0.56C58.28 0.46 58.19 0.39 58.1 0.41L57.62 0.47C57.53 0.48 57.46 0.57 57.47 0.66L58.03 5.17C58.04 5.26 58.12 5.33 58.22 5.31Z" fill="#767676" fill-opacity="1.000000" fill-rule="nonzero"/>
	<path id="Vector" d="M61.18 4.99L61.66 4.96C61.76 4.95 61.83 4.87 61.82 4.77L61.53 0.25C61.52 0.16 61.44 0.08 61.35 0.09L60.87 0.12C60.77 0.13 60.7 0.21 60.71 0.31L61 4.83C61.01 4.93 61.09 5 61.18 4.99Z" fill="#767676" fill-opacity="1.000000" fill-rule="nonzero"/>
	<path id="Vector" d="M63.18 4.88L63.62 4.88C63.72 4.88 63.79 4.8 63.79 4.71L63.79 1.83L64.69 4.76C64.71 4.83 64.78 4.88 64.85 4.88L65.36 4.88C65.45 4.88 65.53 4.81 65.53 4.71L65.53 0.17C65.53 0.07 65.46 0 65.36 0L64.9 0C64.81 0 64.73 0.07 64.73 0.17L64.73 2.62L63.94 0.11C63.91 0.04 63.85 0 63.77 0L63.18 0C63.09 0 63.01 0.07 63.01 0.17L63.01 4.71C63.01 4.8 63.08 4.88 63.18 4.88Z" fill="#767676" fill-opacity="1.000000" fill-rule="nonzero"/>
	<path id="Vector" d="M66.85 4.96L68.45 5.09C68.55 5.1 68.63 5.03 68.64 4.93L68.67 4.49C68.68 4.39 68.61 4.31 68.52 4.3L67.57 4.22L67.69 2.75L68.28 2.8C68.38 2.81 68.46 2.74 68.47 2.64L68.51 2.21C68.51 2.11 68.45 2.03 68.35 2.02L67.75 1.97L67.83 0.94L68.78 1.02C68.88 1.02 68.96 0.95 68.97 0.86L69 0.41C69.01 0.31 68.94 0.23 68.85 0.22L67.25 0.09C67.15 0.08 67.07 0.15 67.06 0.25L66.7 4.77C66.69 4.87 66.76 4.95 66.85 4.96Z" fill="#767676" fill-opacity="1.000000" fill-rule="nonzero"/>
	<path id="Vector" d="M69.87 5.28L70 5.29L69.9 5.45C69.87 5.48 69.85 5.52 69.85 5.56L69.83 5.69C69.82 5.75 69.86 5.8 69.91 5.81L70.14 5.84C70.19 5.85 70.24 5.81 70.25 5.75L70.25 5.72C70.26 5.69 70.28 5.65 70.29 5.64L70.45 5.41C70.47 5.37 70.48 5.34 70.48 5.31L70.56 4.73C70.58 4.63 70.52 4.55 70.44 4.54L69.98 4.47C69.89 4.46 69.81 4.52 69.79 4.61L69.73 5.08C69.72 5.18 69.78 5.26 69.87 5.28Z" fill="#767676" fill-opacity="1.000000" fill-rule="nonzero"/>
	<path id="Vector" d="M71.78 5.58L72.94 5.83C73.53 5.95 74.11 5.56 74.23 4.96L74.77 2.38C74.9 1.77 74.52 1.17 73.93 1.05L72.76 0.79C72.67 0.77 72.58 0.84 72.56 0.94L71.65 5.37C71.62 5.47 71.68 5.55 71.78 5.58ZM73.24 1.7L73.77 1.82C73.91 1.85 74.01 2 73.98 2.15L73.43 4.82C73.4 4.97 73.25 5.07 73.1 5.04L72.57 4.92L73.24 1.7Z" fill="#767676" fill-opacity="1.000000" fill-rule="nonzero"/>
	<path id="Vector" d="M75.24 6.4L75.7 6.53C75.79 6.56 75.89 6.51 75.91 6.42L77.11 2.05C77.14 1.96 77.09 1.86 77 1.83L76.54 1.7C76.44 1.67 76.35 1.73 76.32 1.83L75.12 6.19C75.09 6.28 75.15 6.38 75.24 6.4Z" fill="#767676" fill-opacity="1.000000" fill-rule="nonzero"/>
	<path id="Vector" d="M77.17 6.99L78.69 7.53C78.78 7.57 78.87 7.52 78.91 7.43L79.05 7.01C79.08 6.91 79.04 6.82 78.95 6.78L78.05 6.46L78.52 5.07L79.09 5.27C79.18 5.31 79.28 5.26 79.31 5.17L79.45 4.76C79.48 4.67 79.44 4.57 79.35 4.53L78.78 4.33L79.12 3.35L80.01 3.67C80.1 3.71 80.2 3.66 80.23 3.57L80.38 3.14C80.41 3.05 80.36 2.95 80.27 2.92L78.75 2.38C78.67 2.35 78.57 2.4 78.54 2.49L77.07 6.77C77.04 6.86 77.08 6.96 77.17 6.99Z" fill="#767676" fill-opacity="1.000000" fill-rule="nonzero"/>
	<path id="Vector" d="M80.8 8.41L81.08 8.54C81.63 8.79 82.28 8.53 82.53 7.97L82.86 7.19C83.11 6.62 82.86 5.96 82.3 5.71L82.02 5.58C81.88 5.52 81.82 5.36 81.88 5.22L82.04 4.83C82.1 4.69 82.27 4.63 82.4 4.69L82.69 4.82C82.83 4.88 82.89 5.04 82.83 5.18L82.78 5.31C82.74 5.4 82.78 5.5 82.86 5.54L83.3 5.74C83.39 5.78 83.48 5.74 83.52 5.65L83.57 5.54C83.81 4.98 83.57 4.32 83.01 4.07L82.73 3.94C82.18 3.69 81.53 3.95 81.28 4.51L81.13 4.88C80.88 5.44 81.14 6.09 81.69 6.34L81.98 6.47C82.11 6.53 82.18 6.69 82.12 6.83L81.76 7.66C81.7 7.8 81.54 7.87 81.4 7.81L81.11 7.68C80.97 7.62 80.91 7.45 80.97 7.31L81.21 6.75C81.25 6.66 81.21 6.56 81.12 6.52L80.69 6.32C80.6 6.28 80.5 6.32 80.46 6.41L80.23 6.94C80 7.5 80.25 8.17 80.8 8.41Z" fill="#767676" fill-opacity="1.000000" fill-rule="nonzero"/>
	<path id="Vector" d="M83.2 9.57L84.62 10.35C84.7 10.4 84.8 10.37 84.85 10.28L85.05 9.89C85.1 9.8 85.07 9.7 84.98 9.65L84.15 9.19L84.83 7.9L85.36 8.19C85.44 8.23 85.55 8.2 85.59 8.12L85.79 7.74C85.84 7.65 85.81 7.55 85.72 7.5L85.19 7.21L85.67 6.29L86.51 6.76C86.6 6.8 86.7 6.77 86.74 6.68L86.95 6.29C87 6.21 86.97 6.1 86.88 6.06L85.47 5.28C85.38 5.23 85.28 5.26 85.24 5.35L83.13 9.34C83.09 9.42 83.12 9.53 83.2 9.57Z" fill="#767676" fill-opacity="1.000000" fill-rule="nonzero"/>
	<path id="Vector" d="M85.86 11.1L87.22 11.98C87.3 12.03 87.4 12.01 87.45 11.93L87.69 11.55C87.74 11.47 87.71 11.36 87.63 11.31L86.83 10.79L88.88 7.48C88.93 7.4 88.91 7.29 88.83 7.24L88.42 6.97C88.34 6.92 88.24 6.95 88.19 7.03L85.81 10.86C85.76 10.94 85.78 11.05 85.86 11.1Z" fill="#767676" fill-opacity="1.000000" fill-rule="nonzero"/>
	<path id="Vector" d="M88.54 12.14L88.27 12.52C88.21 12.6 88.23 12.7 88.31 12.76L88.41 12.84L88.25 12.92C88.22 12.94 88.18 12.97 88.16 13L88.08 13.11C88.05 13.15 88.06 13.22 88.1 13.25L88.29 13.39C88.33 13.41 88.39 13.4 88.43 13.36L88.45 13.33C88.47 13.3 88.5 13.29 88.52 13.28L88.76 13.15C88.79 13.13 88.82 13.1 88.84 13.07L89.17 12.6C89.23 12.52 89.22 12.42 89.15 12.37L88.78 12.1C88.7 12.05 88.59 12.06 88.54 12.14Z" fill="#767676" fill-opacity="1.000000" fill-rule="nonzero"/>
	<path id="Vector" d="M90.25 14.26C90.32 14.32 90.42 14.31 90.48 14.23L91.78 12.61L92.25 13C92.32 13.06 92.43 13.05 92.49 12.97L92.76 12.63C92.82 12.56 92.81 12.45 92.74 12.39L92.26 12L92.9 11.2L93.64 11.81C93.72 11.87 93.82 11.87 93.88 11.79L94.16 11.44C94.22 11.36 94.2 11.26 94.13 11.2L92.89 10.16C92.81 10.1 92.71 10.11 92.65 10.18L89.84 13.71C89.78 13.78 89.8 13.89 89.87 13.95L90.25 14.26Z" fill="#767676" fill-opacity="1.000000" fill-rule="nonzero"/>
	<path id="Vector" d="M92.63 16.36L93.17 16.89C93.52 17.23 94.08 17.22 94.41 16.86L96.98 14.1C97.05 14.03 97.05 13.92 96.98 13.85L96.63 13.51C96.56 13.45 96.45 13.46 96.39 13.53L93.87 16.23C93.81 16.3 93.7 16.3 93.63 16.23L93.26 15.87C93.19 15.8 93.18 15.69 93.25 15.62L95.76 12.92C95.83 12.85 95.83 12.74 95.76 12.67L95.41 12.33C95.34 12.27 95.23 12.27 95.17 12.34L92.6 15.11C92.27 15.46 92.28 16.03 92.63 16.36Z" fill="#767676" fill-opacity="1.000000" fill-rule="nonzero"/>
	<path id="Vector" d="M94.72 18.49L95.79 19.72C95.85 19.79 95.96 19.8 96.03 19.73L96.36 19.43C96.43 19.36 96.43 19.25 96.37 19.18L95.73 18.46L96.81 17.47L97.21 17.93C97.27 18.01 97.38 18.01 97.45 17.94L97.76 17.65C97.84 17.59 97.84 17.48 97.78 17.41L97.37 16.95L98.13 16.26L98.77 16.98C98.83 17.05 98.94 17.06 99.01 16.99L99.33 16.69C99.4 16.62 99.41 16.51 99.35 16.44L98.27 15.22C98.21 15.15 98.1 15.14 98.03 15.21L94.73 18.23C94.66 18.31 94.65 18.42 94.72 18.49Z" fill="#767676" fill-opacity="1.000000" fill-rule="nonzero"/>
	<path id="Vector" d="M96.7 20.85L97.69 22.14C97.74 22.22 97.85 22.23 97.92 22.17L98.27 21.9C98.35 21.84 98.36 21.73 98.3 21.65L97.72 20.88L100.74 18.48C100.82 18.42 100.83 18.31 100.77 18.24L100.48 17.85C100.42 17.78 100.32 17.76 100.24 17.82L96.73 20.6C96.66 20.66 96.64 20.77 96.7 20.85Z" fill="#767676" fill-opacity="1.000000" fill-rule="nonzero"/>
	<path id="Vector" d="M100 25.72L100.38 26.38C100.62 26.8 101.16 26.95 101.58 26.7L104.19 25.15C104.61 24.9 104.75 24.34 104.52 23.92L104.14 23.26C103.89 22.83 103.35 22.69 102.94 22.94L100.32 24.49C99.9 24.74 99.76 25.29 100 25.72ZM100.81 25.17L103.29 23.7C103.37 23.65 103.47 23.68 103.52 23.77L103.77 24.22C103.82 24.3 103.8 24.41 103.72 24.46L101.24 25.93C101.15 25.98 101.04 25.95 100.99 25.87L100.74 25.42C100.7 25.34 100.73 25.22 100.81 25.17Z" fill="#767676" fill-opacity="1.000000" fill-rule="nonzero"/>
	<path id="Vector" d="M101.43 28.38L101.64 28.82C101.69 28.91 101.79 28.94 101.87 28.9L105.85 26.89C105.94 26.85 105.97 26.74 105.93 26.65L105.72 26.22C105.68 26.13 105.57 26.1 105.48 26.14L101.51 28.15C101.42 28.19 101.39 28.3 101.43 28.38Z" fill="#767676" fill-opacity="1.000000" fill-rule="nonzero"/>
	<path id="Vector" d="M106.7 28.35C106.66 28.25 106.57 28.21 106.48 28.25L102.38 30.01C102.3 30.05 102.25 30.15 102.29 30.24L102.91 31.75C102.95 31.84 103.05 31.88 103.14 31.84L103.54 31.67C103.63 31.63 103.67 31.53 103.64 31.44L103.26 30.54L106.8 29.02C106.89 28.98 106.93 28.88 106.89 28.79L106.7 28.35Z" fill="#767676" fill-opacity="1.000000" fill-rule="nonzero"/>
</svg>
