<svg width="14" height="14" viewBox="0 0 14 14" fill="none" xmlns="http://www.w3.org/2000/svg">
<g clip-path="url(#clip0_1_1471)">
<path d="M11.6603 6.75017C11.6124 5.83195 11.2931 4.94861 10.7427 4.21209C10.575 4.3927 10.3957 4.56223 10.206 4.71959C9.62321 5.20366 8.97196 5.59878 8.27342 5.89209C8.37084 6.09625 8.46009 6.294 8.53884 6.48067V6.48242C8.56106 6.53458 8.58245 6.58709 8.60301 6.63992C9.48617 6.54075 10.4172 6.57692 11.3196 6.69884C11.4398 6.71517 11.5529 6.73267 11.6603 6.75017ZM6.18567 2.40434C6.75415 3.20535 7.27838 4.03688 7.75601 4.89517C8.46942 4.614 9.05917 4.25934 9.53401 3.86442C9.69883 3.72858 9.85398 3.58142 9.99834 3.424C9.15891 2.71801 8.09685 2.33161 7.00001 2.33317C6.72703 2.33298 6.45455 2.3566 6.18567 2.40375V2.40434ZM2.48092 5.83142C2.8783 5.82139 3.27521 5.79746 3.67092 5.75967C4.62738 5.67412 5.57567 5.5138 6.50709 5.28017C6.0203 4.43446 5.49474 3.61167 4.93209 2.81442C4.33109 3.11215 3.80116 3.53566 3.37823 4.05621C2.95531 4.57677 2.64928 5.18219 2.48092 5.83142ZM3.37342 9.93692C3.59976 9.60617 3.89726 9.234 4.29217 8.82917C5.14034 7.96 6.14134 7.28334 7.29984 6.91L7.33601 6.8995C7.23976 6.68717 7.14934 6.49759 7.05834 6.31909C5.98734 6.63117 4.85917 6.826 3.73509 6.92692C3.18676 6.9765 2.69501 6.99809 2.33334 7.00159C2.33231 8.0706 2.69984 9.10729 3.37401 9.93692H3.37342ZM8.75292 11.3253C8.52797 10.1908 8.20955 9.07694 7.80092 7.995C6.63309 8.41909 5.70267 9.03917 4.98342 9.77884C4.69316 10.0719 4.43556 10.3956 4.21517 10.7443C5.01948 11.3444 5.99648 11.6679 7.00001 11.6665C7.60079 11.6674 8.19605 11.5519 8.75292 11.3264V11.3253ZM9.84551 10.6982C10.7562 9.99803 11.3767 8.9865 11.5879 7.85734C11.3896 7.80775 11.1382 7.75817 10.8617 7.71967C10.2469 7.63115 9.62313 7.62467 9.00667 7.70042C9.35379 8.67974 9.63404 9.68148 9.84551 10.6988V10.6982ZM7.00001 12.8332C3.77826 12.8332 1.16667 10.2216 1.16667 6.99984C1.16667 3.77809 3.77826 1.1665 7.00001 1.1665C10.2218 1.1665 12.8333 3.77809 12.8333 6.99984C12.8333 10.2216 10.2218 12.8332 7.00001 12.8332Z" fill="#2B2B2B"/>
</g>
<defs>
<clipPath id="clip0_1_1471">
<rect width="14" height="14" fill="white"/>
</clipPath>
</defs>
</svg>
