<svg width="14" height="14" viewBox="0 0 14 14" fill="none" xmlns="http://www.w3.org/2000/svg">
<g clip-path="url(#clip0_1_1462)">
<path d="M7.00001 1.1665C8.58492 1.1665 8.78267 1.17234 9.40451 1.2015C10.0258 1.23067 10.4487 1.32809 10.8208 1.47275C11.2058 1.62092 11.5302 1.82159 11.8545 2.14534C12.1511 2.43694 12.3806 2.78968 12.5271 3.179C12.6712 3.55059 12.7692 3.97409 12.7983 4.59534C12.8258 5.21717 12.8333 5.41492 12.8333 6.99984C12.8333 8.58475 12.8275 8.7825 12.7983 9.40434C12.7692 10.0256 12.6712 10.4485 12.5271 10.8207C12.3811 11.2102 12.1515 11.563 11.8545 11.8543C11.5628 12.1509 11.2101 12.3804 10.8208 12.5269C10.4493 12.671 10.0258 12.769 9.40451 12.7982C8.78267 12.8256 8.58492 12.8332 7.00001 12.8332C5.41509 12.8332 5.21734 12.8273 4.59551 12.7982C3.97426 12.769 3.55134 12.671 3.17917 12.5269C2.7897 12.3808 2.4369 12.1512 2.14551 11.8543C1.84883 11.5628 1.6193 11.21 1.47292 10.8207C1.32826 10.4491 1.23084 10.0256 1.20167 9.40434C1.17426 8.7825 1.16667 8.58475 1.16667 6.99984C1.16667 5.41492 1.17251 5.21717 1.20167 4.59534C1.23084 3.9735 1.32826 3.55117 1.47292 3.179C1.61889 2.78944 1.84847 2.43661 2.14551 2.14534C2.43698 1.84856 2.78976 1.61901 3.17917 1.47275C3.55134 1.32809 3.97367 1.23067 4.59551 1.2015C5.21734 1.17409 5.41509 1.1665 7.00001 1.1665ZM7.00001 4.08317C6.22646 4.08317 5.48459 4.39046 4.93761 4.93744C4.39063 5.48442 4.08334 6.22629 4.08334 6.99984C4.08334 7.77339 4.39063 8.51525 4.93761 9.06223C5.48459 9.60921 6.22646 9.9165 7.00001 9.9165C7.77355 9.9165 8.51542 9.60921 9.0624 9.06223C9.60938 8.51525 9.91667 7.77339 9.91667 6.99984C9.91667 6.22629 9.60938 5.48442 9.0624 4.93744C8.51542 4.39046 7.77355 4.08317 7.00001 4.08317ZM10.7917 3.93734C10.7917 3.74395 10.7149 3.55848 10.5781 3.42174C10.4414 3.28499 10.2559 3.20817 10.0625 3.20817C9.86912 3.20817 9.68365 3.28499 9.54691 3.42174C9.41016 3.55848 9.33334 3.74395 9.33334 3.93734C9.33334 4.13072 9.41016 4.31619 9.54691 4.45294C9.68365 4.58968 9.86912 4.6665 10.0625 4.6665C10.2559 4.6665 10.4414 4.58968 10.5781 4.45294C10.7149 4.31619 10.7917 4.13072 10.7917 3.93734ZM7.00001 5.24984C7.46413 5.24984 7.90925 5.43421 8.23744 5.7624C8.56563 6.09059 8.75001 6.53571 8.75001 6.99984C8.75001 7.46397 8.56563 7.90909 8.23744 8.23727C7.90925 8.56546 7.46413 8.74984 7.00001 8.74984C6.53588 8.74984 6.09076 8.56546 5.76257 8.23727C5.43438 7.90909 5.25001 7.46397 5.25001 6.99984C5.25001 6.53571 5.43438 6.09059 5.76257 5.7624C6.09076 5.43421 6.53588 5.24984 7.00001 5.24984Z" fill="#1B1B1B"/>
</g>
<defs>
<clipPath id="clip0_1_1462">
<rect width="14" height="14" fill="white"/>
</clipPath>
</defs>
</svg>
