<svg width="14" height="14" viewBox="0 0 14 14" fill="none" xmlns="http://www.w3.org/2000/svg">
<g clip-path="url(#clip0_1_1465)">
<path d="M12.9278 3.29953C12.4825 3.49652 12.0102 3.62589 11.5267 3.68337C12.0364 3.37854 12.4178 2.89879 12.6 2.33353C12.1217 2.6182 11.5973 2.8177 11.0507 2.92562C10.6835 2.53279 10.1969 2.27226 9.66639 2.18454C9.13591 2.09682 8.5913 2.18682 8.11724 2.44055C7.64318 2.69428 7.26623 3.09752 7.04498 3.58758C6.82374 4.07764 6.7706 4.62707 6.89383 5.15045C5.92381 5.10183 4.97486 4.84976 4.10858 4.41059C3.24231 3.97142 2.47807 3.35498 1.8655 2.60128C1.64867 2.97371 1.53472 3.39708 1.53533 3.82803C1.53533 4.67387 1.96583 5.42112 2.62033 5.85862C2.23301 5.84642 1.8542 5.74182 1.5155 5.55354V5.58387C1.51562 6.14719 1.71055 6.69314 2.06724 7.12915C2.42394 7.56516 2.92045 7.8644 3.47258 7.97612C3.11303 8.07356 2.73601 8.08792 2.37008 8.01812C2.52576 8.503 2.82917 8.92707 3.23785 9.23093C3.64652 9.5348 4.13999 9.70325 4.64917 9.7127C4.14311 10.1101 3.56369 10.4039 2.94401 10.5773C2.32434 10.7507 1.67657 10.8002 1.03775 10.723C2.15291 11.4402 3.45106 11.8209 4.77692 11.8197C9.2645 11.8197 11.7186 8.10212 11.7186 4.87804C11.7186 4.77304 11.7157 4.66687 11.711 4.56303C12.1887 4.2178 12.6009 3.79013 12.9284 3.30012L12.9278 3.29953Z" fill="#1B1B1B"/>
</g>
<defs>
<clipPath id="clip0_1_1465">
<rect width="14" height="14" fill="white"/>
</clipPath>
</defs>
</svg>
