<svg width="14" height="14" viewBox="0 0 14 14" fill="none" xmlns="http://www.w3.org/2000/svg">
<g clip-path="url(#clip0_1_1474)">
<path d="M12.5668 3.79066C12.8333 4.83016 12.8333 7.00016 12.8333 7.00016C12.8333 7.00016 12.8333 9.17016 12.5668 10.2097C12.4186 10.7842 11.9852 11.2363 11.4363 11.3892C10.4393 11.6668 7.00001 11.6668 7.00001 11.6668C7.00001 11.6668 3.56242 11.6668 2.56376 11.3892C2.01251 11.234 1.57967 10.7825 1.43326 10.2097C1.16667 9.17016 1.16667 7.00016 1.16667 7.00016C1.16667 7.00016 1.16667 4.83016 1.43326 3.79066C1.58142 3.21608 2.01484 2.764 2.56376 2.61116C3.56242 2.3335 7.00001 2.3335 7.00001 2.3335C7.00001 2.3335 10.4393 2.3335 11.4363 2.61116C11.9875 2.76633 12.4203 3.21783 12.5668 3.79066ZM5.83334 9.04183L9.33334 7.00016L5.83334 4.9585V9.04183Z" fill="#1B1B1B"/>
</g>
<defs>
<clipPath id="clip0_1_1474">
<rect width="14" height="14" fill="white"/>
</clipPath>
</defs>
</svg>
